<svg xmlns="http://www.w3.org/2000/svg" viewBox="0 0 217.51 185.86"><defs><style>.cls-1{isolation:isolate;}.cls-2{fill:#ebe2db;}.cls-13,.cls-3{fill:#f79702;}.cls-4{fill:#eb7c00;}.cls-5{fill:#da2c0f;}.cls-6{fill:#fa461a;}.cls-22,.cls-7{fill:#fff;}.cls-15,.cls-8{fill:#373543;}.cls-9{fill:#6511bc;}.cls-10{fill:#1a100e;}.cls-11{fill:#8028d8;}.cls-12,.cls-13{mix-blend-mode:multiply;}.cls-13{opacity:0.5;}.cls-14{fill:#a056e5;}.cls-15{font-size:23.74px;font-family:Montserrat-Black, Montserrat;font-weight:800;}.cls-16{fill:#f9af8b;}.cls-17{fill:#fc8664;}.cls-18{fill:#fd664d;}.cls-19{fill:#b31111;}.cls-20{fill:#fbf5ee;}.cls-21,.cls-23{opacity:0.75;}.cls-22{fill-rule:evenodd;}.cls-23{fill:none;stroke:#fff;stroke-miterlimit:10;stroke-width:0.75px;}</style></defs><g class="cls-1"><g id="Layer_2" data-name="Layer 2"><g id="objects"><path class="cls-2" d="M47.24,178.38C9.56,156.21.5,73.13,29.67,41.42l.88-.93C50.9,19.13,86.4,28.33,94.28,56.91c4.9,17.8,15.9,37.14,40.52,32,43.59-9,69.1-4.6,74.27,31.92,2.39,16.82-11.14,48.86-50.36,57.52Z"/><path class="cls-2" d="M17.52,152.09A15.39,15.39,0,0,0,15.7,140c-2.16-3.52-5.45-7.2-9.09-5.28-6.4,3.38,1,19.81,6.43,21.38C15.49,156.83,16.81,154.67,17.52,152.09Z"/><path class="cls-2" d="M146.92,67.14c-3.24-3.19-7.95-3.74-12-2.86s-9,3.53-8.64,8.69c.57,9,18.72,7.93,22.4,2.09C150.3,72.42,148.7,68.89,146.92,67.14Z"/><ellipse class="cls-2" cx="104.39" cy="180.31" rx="104.39" ry="5.55"/><path class="cls-3" d="M84.29,95.48a11.47,11.47,0,0,0-4.86-.89c-1.88,0-3.66-3.75-1.51-8.82s.37-11.78-2.5-12-.37,4.2-4.08,3.51-4.27-10.54-9-10c-4.19.48-1.51,7.78.57,10.86,2,2.9,1.38,5.86-.82,5.21s-4.4,2.41-1.13,7.15,7.71,9.46,5.58,10-6.57-4.12-8.47,1.4c-.84,2.46,4.53,11,16.45,11.67l5.08-5.5Z"/><path class="cls-4" d="M78.17,108c-5-13.36-13.5-33.83-13.6-34.08a.3.3,0,0,1,.17-.4.31.31,0,0,1,.4.17c.1.25,8.66,20.94,13.68,34.31Z"/><path class="cls-4" d="M70.66,88.47a.24.24,0,0,1-.14,0,.31.31,0,0,1-.08-.43,30.28,30.28,0,0,0,3.44-6.72.31.31,0,1,1,.59.16A30.17,30.17,0,0,1,71,88.34.31.31,0,0,1,70.66,88.47Z"/><path class="cls-4" d="M71.8,91.76h0a27.48,27.48,0,0,1-7.68-2.38A.3.3,0,0,1,64,89a.31.31,0,0,1,.41-.12,27.47,27.47,0,0,0,7.48,2.31.3.3,0,0,1,.26.35A.31.31,0,0,1,71.8,91.76Z"/><path class="cls-4" d="M79.56,101.23A25.49,25.49,0,0,1,76.85,104a.3.3,0,0,0,0,.43.33.33,0,0,0,.2.11.32.32,0,0,0,.23-.08,24,24,0,0,0,2.31-2.29Z"/><path class="cls-4" d="M73.18,107.21A18.34,18.34,0,0,1,67.91,106a.32.32,0,0,1-.17-.41.32.32,0,0,1,.41-.16c3.79,1.62,9.86,1.21,9.92,1.2a.31.31,0,0,1,.33.29.3.3,0,0,1-.28.33A33.39,33.39,0,0,1,73.18,107.21Z"/><path class="cls-3" d="M169.05,132.43c1.7-6.9,4.59-13.12,7.32-10.33s-2.44,13.39-9.59,19l-2,2.5c5.13-4.2,13.14-6.42,15.13-3.77s-3.49,3.62-8.63,3.7a18.3,18.3,0,0,0-7.71,1.6l-9.31,11.79c8.15-6.62,20.79-10.11,23.94-5.93s-5.53,5.76-13.69,5.88a29.22,29.22,0,0,0-12.2,2.51l-1.85,2.35c-.46-.25-.92-.52-1.37-.78l11.08-14a20,20,0,0,0-.47-6.32c-1.12-5-1.42-10.57,1.6-9.25,2.62,1.14,2.75,7.47.88,13l3.84-4.85A29.65,29.65,0,0,0,169.05,132.43Z"/><path class="cls-3" d="M60.32,128.42c-1.71-6.89-4.6-13.11-7.32-10.32s2.44,13.39,9.59,19l2,2.5c-5.14-4.2-13.14-6.42-15.13-3.77s3.48,3.62,8.63,3.7a18.2,18.2,0,0,1,7.7,1.6l9.32,11.79c-8.15-6.62-20.79-10.12-23.94-5.93s5.53,5.75,13.69,5.88A29.12,29.12,0,0,1,77,155.4l1.86,2.35,1.37-.78-11.08-14a20,20,0,0,1,.47-6.32c1.12-5,1.41-10.57-1.6-9.25-2.62,1.14-2.75,7.47-.89,13l-3.83-4.85A29.57,29.57,0,0,1,60.32,128.42Z"/><circle class="cls-5" cx="175.85" cy="37.66" r="28.02" transform="translate(58.61 174.02) rotate(-61.4)"/><circle class="cls-6" cx="172.64" cy="37.66" r="28.02" transform="translate(51.89 166.66) rotate(-59.2)"/><circle class="cls-7" cx="172.64" cy="37.66" r="22.15" transform="translate(14.98 117.44) rotate(-39.15)"/><circle class="cls-6" cx="172.64" cy="37.66" r="16.27" transform="translate(0.33 76.79) rotate(-25.1)"/><circle class="cls-7" cx="172.64" cy="37.66" r="10.4" transform="matrix(0.95, -0.31, 0.31, 0.95, -3.24, 54.66)"/><path class="cls-6" d="M173.86,42A4.52,4.52,0,1,1,177,36.43,4.53,4.53,0,0,1,173.86,42Z"/><path class="cls-8" d="M204,20.4l-6.76-1,1-6.77a.71.71,0,1,0-1.41-.21l-1.12,7.31-2.59,1.91.89-5.89a.71.71,0,1,0-1.41-.22l-1.12,7.31-3.28,2.41.9-5.89a.72.72,0,1,0-1.42-.21l-1.11,7.31L172.76,36.6a2.05,2.05,0,0,0,0,1.78l14.83-10.91,7,1.07a.72.72,0,0,0,.82-.6.71.71,0,0,0-.61-.81l-5.63-.86,3.28-2.41,7.05,1.07a.72.72,0,1,0,.22-1.42l-5.63-.86,2.59-1.91,7.05,1.07A.71.71,0,1,0,204,20.4Z"/><path class="cls-4" d="M67.22,11V22.21a16.29,16.29,0,0,0-4,.48A16.58,16.58,0,0,0,51,35.62c-.1.53-.18,1.07-.23,1.62H39.57c0-.55.07-1.08.13-1.62a27.72,27.72,0,0,1,23.55-24.3A29.1,29.1,0,0,1,67.22,11Z"/><path class="cls-5" d="M94.88,37.24H83.69c0-.54-.13-1.07-.22-1.59A16.57,16.57,0,0,0,67.22,22.21a16.29,16.29,0,0,0-4,.48V9.46a32.49,32.49,0,0,1,23.56,9.69,27.5,27.5,0,0,1,7.94,16.5C94.81,36.18,94.85,36.71,94.88,37.24Z"/><path class="cls-9" d="M67.22,55.27V66.44a27.71,27.71,0,0,1-27.68-26.9c0-.26,0-.53,0-.8,0-.5,0-1,0-1.5s.07-1.08.13-1.62H51c-.1.53-.18,1.07-.23,1.62a14.81,14.81,0,0,0-.06,1.5c0,.27,0,.54,0,.8A16.56,16.56,0,0,0,63.25,54.79,16.85,16.85,0,0,0,67.22,55.27Z"/><path class="cls-10" d="M94.92,38.74c0,.51,0,1,0,1.53A27.67,27.67,0,0,1,63.25,66.15V54.79a16.85,16.85,0,0,0,4,.48,16.55,16.55,0,0,0,16.46-15c0-.51.07-1,.07-1.53s0-1-.06-1.5-.13-1.07-.22-1.59H94.75c.06.53.1,1.06.13,1.59S94.92,38.24,94.92,38.74Z"/><path class="cls-11" d="M46.72,37.15c0-.5,0-1,.07-1.5H35.6c0,.5,0,1,0,1.5a27.69,27.69,0,0,0,27.69,27.7V53.68A16.55,16.55,0,0,1,46.72,37.15Z"/><path class="cls-8" d="M90.91,35.65H79.72q.06.75.06,1.5A16.54,16.54,0,0,1,63.25,53.68V64.85A27.69,27.69,0,0,0,91,37.15C91,36.65,90.94,36.15,90.91,35.65Z"/><path class="cls-3" d="M63.25,20.62V9.46A27.69,27.69,0,0,0,35.6,35.65H46.79A16.55,16.55,0,0,1,63.25,20.62Z"/><path class="cls-6" d="M79.72,35.65H90.91A27.69,27.69,0,0,0,63.25,9.46V20.62A16.56,16.56,0,0,1,79.72,35.65Z"/><rect class="cls-5" x="85.9" y="95.48" width="69.15" height="69.15"/><rect class="cls-6" x="74.23" y="95.48" width="69.15" height="69.15"/><path class="cls-3" d="M141.55,28.06a27.93,27.93,0,0,1-3.74,14c-4.23,7.33-8.27,14.77-12,22.39l-2.07,4.3H103.2l-3-6.26c-3.35-6.92-7-13.67-10.92-20.31A28.05,28.05,0,0,1,112.81,0h.81A28.05,28.05,0,0,1,141.55,28.06Z"/><g class="cls-12"><path class="cls-13" d="M123,40.89a.43.43,0,0,1-.39-.24l-.92-1.77-.92,1.77a.44.44,0,0,1-.78,0l-.92-1.77-.92,1.77a.42.42,0,0,1-.39.24h0a.42.42,0,0,1-.38-.24l-.92-1.77-.93,1.77a.42.42,0,0,1-.38.24h0a.44.44,0,0,1-.39-.24l-.92-1.77-.92,1.77a.43.43,0,0,1-.39.24.42.42,0,0,1-.38-.24l-.92-1.77-.93,1.77a.42.42,0,0,1-.38.24h0a.44.44,0,0,1-.39-.24l-.92-1.77-.92,1.77a.43.43,0,0,1-.39.24.42.42,0,0,1-.38-.24L106,38.88l-.93,1.77a.42.42,0,0,1-.38.24h0a.44.44,0,0,1-.39-.24L103,38.14a.43.43,0,0,1,.19-.58.44.44,0,0,1,.59.18l.92,1.77.92-1.77a.44.44,0,0,1,.77,0l.92,1.77.92-1.77a.45.45,0,0,1,.78,0l.92,1.77.92-1.77a.44.44,0,0,1,.39-.23.43.43,0,0,1,.38.23l.92,1.77.93-1.77a.43.43,0,0,1,.38-.23.45.45,0,0,1,.39.23l.92,1.77.92-1.77a.44.44,0,0,1,.39-.23h0a.43.43,0,0,1,.38.23l.92,1.77.93-1.77a.43.43,0,0,1,.38-.23.45.45,0,0,1,.39.23l.92,1.77.92-1.77a.45.45,0,0,1,.39-.23.43.43,0,0,1,.38.23l.93,1.77.92-1.77a.44.44,0,0,1,.59-.18.43.43,0,0,1,.18.58l-1.31,2.51A.42.42,0,0,1,123,40.89Z"/></g><polygon class="cls-8" points="107.94 68.75 102.09 38.99 102.95 38.82 108.83 68.76 107.94 68.75"/><path class="cls-8" d="M104.42,38.91a1.9,1.9,0,1,1-1.9-1.9A1.9,1.9,0,0,1,104.42,38.91Z"/><polygon class="cls-8" points="119.97 68.75 125.81 38.99 124.96 38.82 119.08 68.75 119.97 68.75"/><path class="cls-8" d="M123.49,38.91a1.9,1.9,0,1,0,1.9-1.9A1.9,1.9,0,0,0,123.49,38.91Z"/><path class="cls-13" d="M141.55,28.06a27.93,27.93,0,0,1-3.74,14c-4.23,7.33-8.27,14.77-12,22.39l-2.07,4.3H105.23c12-1.2,25.4-22.94,23.48-43.63-2-21.25-15-24.92-15.9-25.12h.81A28.05,28.05,0,0,1,141.55,28.06Z"/><rect class="cls-8" x="101.83" y="68.76" width="22.94" height="5.86" rx="1.41"/><path class="cls-10" d="M124.78,71.42v1.79a1.42,1.42,0,0,1-1.42,1.41H103.25a1.42,1.42,0,0,1-1.42-1.41V71.42Z"/><path class="cls-8" d="M124.78,76v3a1.41,1.41,0,0,1-1.18,1.39l-.24,0H103.25l-.24,0a1.41,1.41,0,0,1-1.18-1.39V76a1.42,1.42,0,0,1,1.42-1.42h20.11A1.42,1.42,0,0,1,124.78,76Z"/><path class="cls-10" d="M124.78,77.26v1.81a1.41,1.41,0,0,1-1.18,1.39H103a1.41,1.41,0,0,1-1.18-1.39V77.26Z"/><path class="cls-8" d="M124.78,81.89v3a1.42,1.42,0,0,1-1.19,1.39l-.23,0H103.25l-.24,0a1.41,1.41,0,0,1-1.18-1.39v-3a1.42,1.42,0,0,1,1.42-1.41h20.11A1.42,1.42,0,0,1,124.78,81.89Z"/><path class="cls-10" d="M124.78,83.12v1.81a1.42,1.42,0,0,1-1.19,1.39H103a1.41,1.41,0,0,1-1.18-1.39V83.12Z"/><path class="cls-10" d="M107.82,86.34a5.64,5.64,0,0,0,11.27,0Z"/><rect class="cls-7" x="125.46" y="82.71" width="58.62" height="33.26"/><rect class="cls-8" x="125.46" y="82.71" width="58.62" height="2.86"/><path class="cls-3" d="M178.57,84.14a.6.6,0,1,1-.59-.59A.59.59,0,0,1,178.57,84.14Z"/><path class="cls-14" d="M180.49,84.14a.6.6,0,1,1-.59-.59A.59.59,0,0,1,180.49,84.14Z"/><path class="cls-6" d="M182.31,84.14a.58.58,0,0,1-.59.59.59.59,0,0,1,0-1.18A.58.58,0,0,1,182.31,84.14Z"/><path class="cls-8" d="M132.06,113.9a.14.14,0,0,1-.14-.14V87.5a.14.14,0,0,1,.14-.14.13.13,0,0,1,.13.14v26.26A.13.13,0,0,1,132.06,113.9Z"/><path class="cls-8" d="M132.47,87.56a.43.43,0,1,1-.42-.42A.42.42,0,0,1,132.47,87.56Z"/><path class="cls-8" d="M132.47,113.76a.43.43,0,1,1-.42-.42A.42.42,0,0,1,132.47,113.76Z"/><path class="cls-8" d="M177.39,113.9a.14.14,0,0,1-.14-.14V87.5a.14.14,0,1,1,.28,0v26.26A.14.14,0,0,1,177.39,113.9Z"/><path class="cls-8" d="M177.81,87.56a.43.43,0,1,1-.43-.42A.42.42,0,0,1,177.81,87.56Z"/><path class="cls-8" d="M177.81,113.76a.43.43,0,1,1-.43-.42A.42.42,0,0,1,177.81,113.76Z"/><text class="cls-15" transform="translate(137.17 108.79)">Aa</text><polygon class="cls-16" points="175.2 170.07 175.2 173.68 178.5 173.63 178.72 169.8 175.2 170.07"/><path class="cls-6" d="M175.77,173.35s-.83-1.09-1.48-1-5.6,4.09-7.31,4.44-1.37,1.61-1,2.25,13.57-.17,13.57-.17.42-4.21,0-5.42S177.12,173.62,175.77,173.35Z"/><path class="cls-7" d="M173,176.15a.25.25,0,0,0,.19,0,.24.24,0,0,0,.08-.33,3.64,3.64,0,0,0-1.26-1.29,1.67,1.67,0,0,0-1.7.1.24.24,0,0,0,0,.34.25.25,0,0,0,.34,0,1.2,1.2,0,0,1,1.19-.05,3.52,3.52,0,0,1,1.07,1.1A.19.19,0,0,0,173,176.15Z"/><path class="cls-7" d="M173.75,175.47a.23.23,0,0,0,.18,0,.24.24,0,0,0,.09-.33,3.7,3.7,0,0,0-1.27-1.29,1.63,1.63,0,0,0-1.69.1.23.23,0,0,0-.05.33.24.24,0,0,0,.34.05,1.15,1.15,0,0,1,1.19-.05,3.14,3.14,0,0,1,1.06,1.1A.33.33,0,0,0,173.75,175.47Z"/><path class="cls-7" d="M172.07,176.71a.25.25,0,0,0,.19,0,.24.24,0,0,0,.09-.33,3.81,3.81,0,0,0-1.27-1.29,1.67,1.67,0,0,0-1.7.1.25.25,0,0,0,0,.34.24.24,0,0,0,.33,0,1.23,1.23,0,0,1,1.2-.05,3.32,3.32,0,0,1,1.06,1.1A.24.24,0,0,0,172.07,176.71Z"/><path class="cls-11" d="M183,109.56c-.09,1.4-.18,3-.29,4.67,0,.31,0,.63-.05,1s0,.37,0,.56c-.67,10.86-1.61,25.59-2.1,30.3-1,9.57-1,24.08-1,24.08h-5.27c-.49-10.3-1.35-39.19-1.79-54.25,0-.47,0-.93,0-1.38,0-2-.1-3.63-.14-4.93Z"/><path class="cls-9" d="M183,109.56c-.09,1.4-.18,3-.29,4.67h-.11a65.12,65.12,0,0,1-10.22.25c0-2-.1-3.63-.14-4.93Z"/><path class="cls-9" d="M180.79,109.56c-.49,9.83-1.25,24.3-1.84,30.32-.6,6.22-1.18,23.38-1.4,30.24h.69c.21-6.87.8-24,1.4-30.18.58-6,1.35-20.54,1.84-30.38Z"/><polygon class="cls-14" points="173.67 168.22 173.91 170.63 180.23 170.63 180.42 168.22 173.67 168.22"/><polygon class="cls-16" points="186.59 169.85 186.72 173.46 190.02 173.28 190.09 169.45 186.59 169.85"/><path class="cls-6" d="M188.21,172.48a16.14,16.14,0,0,1,2.24-.35c.48,0,3.54,3.78,4.62,4,2,.47,1.81,3.54.61,3.64-3.48.29-9.34-1.44-9.34-1.44a28.25,28.25,0,0,1-.08-5.19C186.55,172,187.22,172.8,188.21,172.48Z"/><path class="cls-7" d="M190.93,176a.26.26,0,0,1-.19,0,.23.23,0,0,1-.05-.33,3.65,3.65,0,0,1,1.4-1.15,1.63,1.63,0,0,1,1.67.28.23.23,0,0,1,0,.34.24.24,0,0,1-.34,0,1.17,1.17,0,0,0-1.18-.18,3.32,3.32,0,0,0-1.17,1A.29.29,0,0,1,190.93,176Z"/><path class="cls-7" d="M190.29,175.22a.24.24,0,0,1-.23-.38,3.66,3.66,0,0,1,1.4-1.14,1.66,1.66,0,0,1,1.67.27.24.24,0,1,1-.33.35,1.18,1.18,0,0,0-1.18-.17,3.12,3.12,0,0,0-1.17,1A.26.26,0,0,1,190.29,175.22Z"/><path class="cls-7" d="M191.82,176.64a.25.25,0,0,1-.18,0,.23.23,0,0,1,0-.33,3.67,3.67,0,0,1,1.39-1.15,1.64,1.64,0,0,1,1.68.28.24.24,0,0,1-.33.35,1.17,1.17,0,0,0-1.18-.18,3.12,3.12,0,0,0-1.17,1A.27.27,0,0,1,191.82,176.64Z"/><path class="cls-11" d="M193.11,109.56c0,.78-.05,1.7-.08,2.74v.24c-.39,13.64-1.35,46.45-1.89,57.58h-5.27s-.05-14.51-1-24.08c-.49-4.72-1.43-19.45-2.1-30.31l0-.55-.06-.94c-.1-1.7-.2-3.28-.29-4.68Z"/><path class="cls-9" d="M193.11,109.56c0,.78-.05,1.7-.08,2.74a63.34,63.34,0,0,1-9.95,1.9H183l-.24,0h-.11c-.1-1.7-.2-3.28-.29-4.68Z"/><path class="cls-9" d="M184.6,109.56h-.69c.49,9.84,1.26,24.34,1.85,30.38.6,6.2,1.18,23.31,1.4,30.18h.68c-.21-6.86-.8-24-1.4-30.24C185.86,133.86,185.09,119.39,184.6,109.56Z"/><polygon class="cls-14" points="191.72 168.22 191.48 170.63 185.16 170.63 184.97 168.22 191.72 168.22"/><path class="cls-6" d="M194.77,110c-5,2-17.51,3.48-24.19,0,.64-4,2.32-14.33,2.14-19.62,0-.58-.05-1.16-.08-1.73s0-1-.08-1.48c-.58-8.8-2.08-16-1.34-16.93A6.68,6.68,0,0,1,172.74,69c.26-.18.54-.36.83-.54.69-.42,1.46-.85,2.24-1.27,1.83-1,3.7-1.89,4.63-2.51a5.79,5.79,0,0,0,2.46.62H183a5.79,5.79,0,0,0,2.46-.62c.87.58,2.5,1.38,4.16,2.26a37.88,37.88,0,0,1,3.44,2,6.89,6.89,0,0,1,1.46,1.26c.37.47.21,2.49-.1,5.48s-.77,6.84-1.05,11.12c-.08,1.18-.14,2.4-.19,3.64C193,95.68,194.14,106,194.77,110Z"/><path class="cls-5" d="M190.46,99.49h0a19.91,19.91,0,0,1-11.16-3.92,24.8,24.8,0,0,1-4.39-3.89.22.22,0,0,1,0-.31.22.22,0,0,1,.32,0,26.11,26.11,0,0,0,4.32,3.81A19.49,19.49,0,0,0,190.46,99a.22.22,0,0,1,.22.23A.22.22,0,0,1,190.46,99.49Z"/><path class="cls-5" d="M185.6,101.07a19,19,0,0,1-8.27-2.41.23.23,0,0,1-.08-.3.23.23,0,0,1,.31-.09c.05,0,4.79,2.74,9,2.31a.21.21,0,0,1,.25.2.22.22,0,0,1-.2.24A8.54,8.54,0,0,1,185.6,101.07Z"/><path class="cls-5" d="M182,76a.22.22,0,0,1-.22-.18.21.21,0,0,1,.17-.26c5.69-1.08,7.4-4.74,7.42-4.77a.22.22,0,0,1,.3-.12.23.23,0,0,1,.11.3c-.07.16-1.83,3.91-7.74,5Z"/><path class="cls-16" d="M189.66,66.9c-1.13,2.57-3.78,6.07-7.38,5.44s-5.28-3.27-6.47-5.19c1.83-1,3.7-1.88,4.63-2.51a5.79,5.79,0,0,0,2.46.62H183a5.79,5.79,0,0,0,2.46-.62C186.37,65.22,188,66,189.66,66.9Z"/><path class="cls-8" d="M183,65.35h0Z"/><path class="cls-16" d="M172.56,87.18c-3.87-7.49-3.3-13.87-1.34-16.93A5.86,5.86,0,0,1,172.74,69C173.41,72.12,175.12,81.65,172.56,87.18Z"/><path class="cls-16" d="M194.46,75.63c-.31,3-.77,6.84-1.05,11.12-2.27-5.52-1-14.65-.31-17.86a6.89,6.89,0,0,1,1.46,1.26C194.93,70.62,194.77,72.64,194.46,75.63Z"/><rect class="cls-11" x="177.44" y="57.98" width="8.29" height="66.5" transform="translate(-6.66 167.77) rotate(-48.8)"/><rect class="cls-9" x="179.7" y="59.81" width="0.55" height="66.5" transform="translate(-8.59 167.18) rotate(-48.8)"/><rect class="cls-9" x="181.3" y="57.98" width="0.55" height="66.5" transform="translate(-6.66 167.77) rotate(-48.8)"/><rect class="cls-9" x="182.91" y="56.14" width="0.55" height="66.5" transform="translate(-4.73 168.35) rotate(-48.8)"/><rect class="cls-8" x="201.15" y="110.24" width="8.29" height="3.48" transform="translate(-14.19 192.69) rotate(-48.8)"/><path class="cls-6" d="M203.87,116.25l.74.65a4.15,4.15,0,0,0,5.85-.39h0a4.14,4.14,0,0,0-.39-5.85l-.74-.65Z"/><polygon class="cls-16" points="159.29 66.21 153.83 72.44 151.27 66.93 150.73 65.78 149.22 62.54 152.66 63.79 154 64.28 159.29 66.21"/><path class="cls-6" d="M152.66,63.79a4.09,4.09,0,0,1-.73,1.12,3,3,0,0,1-1.2.87l-1.51-3.24Z"/><path class="cls-16" d="M184.53,101.06s-.27.61.64,1a.8.8,0,0,0,.47.87.9.9,0,0,0,.65.9c.67.15,2.28.6,5.58-1.36,0,0,9.8-7.86,8.58-15.34s-5.89-17-5.89-17c-1.33,4-1.79,11.25-1.79,11.25s3.17,4.89,2.24,8.83c-.62,2.62-3.11,6.7-4.42,8.83a1.72,1.72,0,0,1-1-.82,8.51,8.51,0,0,0-.51-.89,4.16,4.16,0,0,0-1.75-1.16c-.36,0-.25.66,0,.94a5.87,5.87,0,0,1,1,1c.24.4-1.67,1.37-2.46,1.62s-2.22-.09-2.31.59S184.53,101.06,184.53,101.06Z"/><path class="cls-16" d="M162.26,83.06s2.48,7.63,4.74,7.72S171.57,88,171.57,88L169,85.71l-.69-.6-3-2.63a19.37,19.37,0,0,0-1.55-1.35c.39-.32.93-.6,1-1,.1-.66-1.81.36-1.9.4.09,0,1.5-1.34,1.25-1.73s-1.2.12-2.15.85c.06-.07,2-2.08,1.56-2.37s-2.57,1.46-2.73,1.58c.18-.18,2.22-2.22,1.83-2.66s-2.19.93-3.31,2c-.23.2-.59.56-.61.87C158.5,81.49,161.13,82.43,162.26,83.06Z"/><path class="cls-17" d="M168.49,87.12a.24.24,0,0,0,.17.3h.06a.25.25,0,0,0,.24-.18,3.45,3.45,0,0,0,0-1.53l-.69-.6A3.32,3.32,0,0,1,168.49,87.12Z"/><path class="cls-8" d="M179.88,61.36h6.78A4.84,4.84,0,0,0,191.47,56v-.11c-.2-2-.49-4.8-.49-4.8-.7-6-6.87-6.73-6.87-6.73-7.44-1-9.55,5.26-9.52,8.69,0,.24,0,.47,0,.71v0a26.53,26.53,0,0,0,.67,3.81A4.69,4.69,0,0,0,179.88,61.36Z"/><circle class="cls-8" cx="185.93" cy="45.75" r="5.41"/><path class="cls-17" d="M177,54.24s-1.1-1.4-1.92-.24.34,4.57,2.35,3.73Z"/><path class="cls-7" d="M176.55,57.5a.37.37,0,1,1-.37-.37A.37.37,0,0,1,176.55,57.5Z"/><path class="cls-18" d="M177,56.68a.17.17,0,0,1-.17-.12,2.55,2.55,0,0,0-1.47-1.48.17.17,0,1,1,.12-.31,2.86,2.86,0,0,1,1.68,1.7.16.16,0,0,1-.12.2Z"/><path class="cls-18" d="M175.85,56.15a.14.14,0,0,1-.09,0,.15.15,0,0,1,0-.22,1.46,1.46,0,0,1,.63-.49.19.19,0,0,1,.23.08.17.17,0,0,1-.09.22,1.24,1.24,0,0,0-.49.36A.17.17,0,0,1,175.85,56.15Z"/><path class="cls-16" d="M185.52,61.38v3.76s-1.94,1.92-3.46,2.06-2-1.66-2-1.66v-3.9Z"/><path class="cls-17" d="M185.52,61.79v1.67c-1,1.13-2.82,1.53-5.5,1.13V62.05Z"/><path class="cls-16" d="M176.36,55.83c0,.41.1.82.18,1.23.48,2.72,2.2,5.66,4.37,6.15,4.7,1.07,6.65-2.62,7.4-5.34.08-.3-.07-.65,0-1a26.28,26.28,0,0,0,.58-2.76c.05-.65.09-1.3.12-1.89a3.88,3.88,0,0,0-2.38-3.77,9.62,9.62,0,0,0-8.54.28A3.87,3.87,0,0,0,176.19,52,28.13,28.13,0,0,0,176.36,55.83Z"/><path class="cls-17" d="M182.09,57.94a.2.2,0,0,0,.18-.15.18.18,0,0,0-.15-.21l-.63-.11.86-2.3a.17.17,0,0,0-.1-.23.18.18,0,0,0-.24.1l-1,2.72,1.07.18Z"/><path class="cls-8" d="M189.49,51.71c0,.6-.07,1.26-.12,1.93-.31.18-1.05.27-1.09.76-.08,1.29-.14,2.18-.41,2.1-.46-.13-.74-1.7-.22-2.71a4.3,4.3,0,0,0-2.13-1.34,33.54,33.54,0,0,1-4.3-2.1,3.92,3.92,0,0,1-1.15-1.05,3.94,3.94,0,0,1-1.9,2c-1.18.53-1.36,1.62-1.51,2.62,0,.11,0,.23,0,.34a3.52,3.52,0,0,1-.33,1.15c0,.07-.08.08-.12,0-.06-.45-.1-.9-.13-1.34,0-.12,0-.23,0-.35,0-.81-.05-1.57,0-2.21a3.91,3.91,0,0,1,2-3.34,10.46,10.46,0,0,1,9-.29A3.92,3.92,0,0,1,189.49,51.71Z"/><path class="cls-8" d="M179.79,54.9c0,.4-.21.72-.46.72s-.47-.32-.47-.72.21-.73.47-.73S179.79,54.5,179.79,54.9Z"/><ellipse class="cls-8" cx="184.49" cy="54.9" rx="0.46" ry="0.73"/><path class="cls-8" d="M178.24,53a9.1,9.1,0,0,1,1.93-.16c.21,0,.38.16.35.33h0a.31.31,0,0,1-.34.22,9.68,9.68,0,0,0-2.64.16.38.38,0,0,1,.14-.29A1.21,1.21,0,0,1,178.24,53Z"/><path class="cls-8" d="M185.68,53.08a8.54,8.54,0,0,0-1.92-.19c-.21,0-.39.16-.36.33h0a.31.31,0,0,0,.33.22,9.73,9.73,0,0,1,2.64.2.33.33,0,0,0-.14-.29A1.06,1.06,0,0,0,185.68,53.08Z"/><path class="cls-7" d="M180.07,59a2.06,2.06,0,0,0,2.09,1.82A2,2,0,0,0,184.25,59Z"/><path class="cls-17" d="M182.14,61.94a1.83,1.83,0,0,1-.84-.25.17.17,0,0,1-.05-.24.17.17,0,0,1,.24-.06h0a1.47,1.47,0,0,0,.65.19,1.57,1.57,0,0,0,.69-.19.17.17,0,0,1,.18.3A1.81,1.81,0,0,1,182.14,61.94Z"/><path class="cls-16" d="M188.33,54.23s1.28-1.56,2-.44-.32,4.44-2.17,3.63Z"/><path class="cls-7" d="M189.37,57.5a.37.37,0,1,1-.37-.37A.37.37,0,0,1,189.37,57.5Z"/><path class="cls-17" d="M188.61,56.4a.16.16,0,0,0,.15-.12,2.4,2.4,0,0,1,1.36-1.44.16.16,0,0,0,.09-.2.17.17,0,0,0-.21-.09,2.69,2.69,0,0,0-1.54,1.65.15.15,0,0,0,.1.19Z"/><path class="cls-17" d="M189.68,55.88l.08,0a.16.16,0,0,0,.05-.22,1.46,1.46,0,0,0-.59-.47.16.16,0,0,0-.21.08.15.15,0,0,0,.08.2,1.28,1.28,0,0,1,.46.36A.14.14,0,0,0,189.68,55.88Z"/><path class="cls-7" d="M182.7,54.56v.31a2.29,2.29,0,0,0,.69,1.65,2.26,2.26,0,0,0,1.63.68h.07a2.1,2.1,0,0,0,1.45-.64,2.28,2.28,0,0,0,.67-1.64v-.36a.88.88,0,0,0-.05-.29.83.83,0,0,0-.77-.53h-2.88a.81.81,0,0,0-.73.46.76.76,0,0,0-.08.33Zm.34,0a.47.47,0,0,1,.47-.48h2.88a.47.47,0,0,1,.48.48v.36a1.93,1.93,0,0,1-.57,1.4,1.77,1.77,0,0,1-1.21.54H185a2,2,0,0,1-2-2Z"/><path class="cls-7" d="M176.93,54.56v.31a2.33,2.33,0,0,0,.69,1.65,2.29,2.29,0,0,0,1.63.68h.08a2.13,2.13,0,0,0,1.45-.64,2.32,2.32,0,0,0,.67-1.64v-.38a.78.78,0,0,0-.07-.31.83.83,0,0,0-.75-.49h-2.88a.82.82,0,0,0-.63.29.83.83,0,0,0-.16.31A.78.78,0,0,0,176.93,54.56Zm.34,0a.48.48,0,0,1,.48-.48h2.88a.48.48,0,0,1,.48.48v.36a2,2,0,0,1-.57,1.4,1.77,1.77,0,0,1-1.22.54h-.07a1.93,1.93,0,0,1-1.39-.58,2,2,0,0,1-.59-1.41Z"/><path class="cls-7" d="M189.06,53.59a4.1,4.1,0,0,0-1.75.39c-.07,0-.28.17-.29.17l.16.29.32-.17a3.14,3.14,0,0,1,1.09-.31Z"/><path class="cls-7" d="M182.92,54.57l.12-.32a3.42,3.42,0,0,0-1-.17,2.28,2.28,0,0,0-.93.18l.15.3a2.06,2.06,0,0,1,.78-.14A3.2,3.2,0,0,1,182.92,54.57Z"/><path class="cls-7" d="M177.25,54.09l-.15.31a3.76,3.76,0,0,0-.48-.19,4.07,4.07,0,0,0-.58-.15c0-.12,0-.23,0-.35a4.26,4.26,0,0,1,.64.16A4.07,4.07,0,0,1,177.25,54.09Z"/><path class="cls-16" d="M81.92,118.32c-.07-.34-1.19-.76-2.28-1.1l0-.12c1.52.3,4.14.72,3.92,0-.15-.47-2.39-.9-3.74-1.12a1.5,1.5,0,0,0,0-.22c1.62.24,4.77.61,4.47-.18-.2-.53-3-.88-4.39-1,0-.06,0-.13,0-.19,1.38.15,4,.33,3.73-.46s-4.37-.78-4.37-.78h0l-1.53-.21s0-.53,1.1-.89,1.6-1.14.2-1c-1.58.09-2.94.66-4,.7a4.19,4.19,0,0,0-2.25,1.13l-.45,3s4,2.42,6.64,2.35h0C80.36,118.53,82,118.9,81.92,118.32Z"/><path class="cls-16" d="M74.23,131.14c0,1.6,0,2.91,0,4.9-1.23-1.2-3.47-3-3.47-3l1.66-1.62A2.47,2.47,0,0,1,74.23,131.14Z"/><path class="cls-9" d="M59.71,97.38c-.67,4.36.45,16.87,1.87,19.24,1.84,3.09,8.68,10.38,12.25,14.14.64.68-3.3,2.83-3.3,2.83S60,125.68,56.66,120.68c-.93-1.41-2.5-5.5-3.56-12.76-.32-2.2-1.31-6.74-.51-9.3C53.52,95.67,57.22,95.15,59.71,97.38Z"/><path class="cls-16" d="M56.25,168.94l-.09,4.64a4.76,4.76,0,0,0,3.52.38l.89-5Z"/><path class="cls-11" d="M59.17,173.36s.79-1.13,1.44-1.1,5.82,3.89,7.56,4.17,1.68,2.43,1,2.69-13.58.24-13.58.24-.56-4.55-.15-5.79S57.82,173.69,59.17,173.36Z"/><path class="cls-7" d="M62,176.07a.25.25,0,0,1-.19,0,.24.24,0,0,1-.1-.33A3.71,3.71,0,0,1,63,174.38a1.68,1.68,0,0,1,1.71,0,.24.24,0,0,1,.06.34.24.24,0,0,1-.33.06,1.18,1.18,0,0,0-1.21,0,3.4,3.4,0,0,0-1,1.15A.2.2,0,0,1,62,176.07Z"/><path class="cls-7" d="M61.3,175.41a.25.25,0,0,1-.19,0,.24.24,0,0,1-.1-.33,3.71,3.71,0,0,1,1.22-1.35,1.68,1.68,0,0,1,1.71,0,.24.24,0,0,1,.06.34.25.25,0,0,1-.34.06,1.16,1.16,0,0,0-1.2,0,3.4,3.4,0,0,0-1,1.15A.2.2,0,0,1,61.3,175.41Z"/><path class="cls-7" d="M63,176.6a.21.21,0,0,1-.19,0,.24.24,0,0,1-.1-.32A3.63,3.63,0,0,1,64,174.91a1.65,1.65,0,0,1,1.72,0,.24.24,0,0,1,.06.33.24.24,0,0,1-.34.06,1.2,1.2,0,0,0-1.21,0,3.22,3.22,0,0,0-1,1.15A.24.24,0,0,1,63,176.6Z"/><path class="cls-5" d="M61,170.12a6.16,6.16,0,0,1-3.72-.17,4.82,4.82,0,0,1-.57-.22,4.27,4.27,0,0,1-1.23-.78s-1.72-4.43-.39-17.36A56.91,56.91,0,0,1,56.77,139a33.67,33.67,0,0,1-21.49-1.44l8.26-8s20.87-2.36,24.13,4C69.87,137.92,61,170.12,61,170.12Z"/><path class="cls-19" d="M59.3,137.69c-.51,2.57-1.7,8.89-1.57,12.06a35.13,35.13,0,0,1-.39,5.17,48.11,48.11,0,0,0,0,15,4.82,4.82,0,0,1-.57-.22,49.42,49.42,0,0,1,.07-14.87,34.34,34.34,0,0,0,.39-5.09c-.13-3.11.94-9,1.58-12.18a.74.74,0,0,0-.21-.68.76.76,0,0,0-.69-.17c-6.72,1.86-15.78,1.38-15.87,1.38a.27.27,0,0,1-.25-.28.26.26,0,0,1,.28-.24c.09,0,9.06.48,15.7-1.36a1.27,1.27,0,0,1,1.18.29A1.23,1.23,0,0,1,59.3,137.69Z"/><polygon class="cls-19" points="54.94 167.54 54.92 170.03 61.35 170.72 61.81 168.29 54.94 167.54"/><path class="cls-16" d="M15.2,164.34l-4.16,2a4.72,4.72,0,0,0,1.28,3.3l4.86-1.5Z"/><path class="cls-11" d="M12.62,169s1.37.19,1.64.78-.78,6.95-.23,8.63S12.64,181,12.1,180.5s-6.46-12-6.46-12,3.79-2.58,5.07-2.79S11.71,167.92,12.62,169Z"/><path class="cls-7" d="M11.53,172.76a.23.23,0,0,1-.08-.18.25.25,0,0,1,.25-.24,3.74,3.74,0,0,1,1.76.47,1.69,1.69,0,0,1,.76,1.54.24.24,0,0,1-.27.2.23.23,0,0,1-.21-.27,1.19,1.19,0,0,0-.56-1.07,3.19,3.19,0,0,0-1.49-.38A.24.24,0,0,1,11.53,172.76Z"/><path class="cls-7" d="M11.77,171.8a.29.29,0,0,1-.07-.18.24.24,0,0,1,.24-.24,3.71,3.71,0,0,1,1.76.47,1.68,1.68,0,0,1,.77,1.53.24.24,0,0,1-.28.21.24.24,0,0,1-.2-.27,1.21,1.21,0,0,0-.56-1.07,3.21,3.21,0,0,0-1.49-.38A.24.24,0,0,1,11.77,171.8Z"/><path class="cls-7" d="M11.52,173.88a.21.21,0,0,1-.08-.17.24.24,0,0,1,.25-.24,3.81,3.81,0,0,1,1.76.46,1.65,1.65,0,0,1,.76,1.54.25.25,0,0,1-.27.21.24.24,0,0,1-.21-.27,1.21,1.21,0,0,0-.55-1.08,3.39,3.39,0,0,0-1.5-.38A.2.2,0,0,1,11.52,173.88Z"/><path class="cls-6" d="M51.81,158.25c-2.8,3.92-35.45,10.88-35.45,10.88a6.07,6.07,0,0,1-1.55-3.25c0-.2-.06-.39-.07-.57a4.51,4.51,0,0,1,.12-1.61s1.59-1.94,13.68-6.7c1.61-.63,5-3.39,10.2-5.29-4.52-8-8.21-15.72-8.43-22.53l2.35.65.54.14,10.24,2.8C47.72,140.86,54.08,155.07,51.81,158.25Z"/><path class="cls-5" d="M40.82,152a1.3,1.3,0,0,1-.64.76,96.84,96.84,0,0,0-9.55,5.37,52.62,52.62,0,0,1-7.22,3.52,68.83,68.83,0,0,0-8.6,4.2c0-.2-.06-.39-.07-.57a73.84,73.84,0,0,1,8.47-4.1,54.84,54.84,0,0,0,7.12-3.47A100.85,100.85,0,0,1,40,152.32a.71.71,0,0,0,.37-.44.74.74,0,0,0-.06-.58c-5.49-9.9-7.12-17.7-7.6-21.47l.54.14c.51,3.8,2.16,11.42,7.51,21.08A1.24,1.24,0,0,1,40.82,152Z"/><polygon class="cls-5" points="15.72 162.8 13.47 163.84 15.61 169.95 18.01 169.32 15.72 162.8"/><path class="cls-11" d="M48.25,86.7S43,86.61,39.74,88s-3.6,6.4-5,10.11S26.72,126,31.13,130.53c3.34,3.46,21.44,6.21,22.11.23a192.76,192.76,0,0,1,3.3-20.86c1.37-6.3,3.21-10.67,3.41-13.41s-6.68-8.35-6.68-8.35Z"/><path class="cls-9" d="M50.21,92.38c-2.45-.84-3.81-4.23-3.87-4.38a.18.18,0,1,1,.34-.13s1.44,3.58,3.86,4.23a.19.19,0,0,1-.09.36Z"/><path class="cls-9" d="M38,121a.18.18,0,0,1,.1-.35c6.59,1.46,13-8.6,13.06-8.7a.18.18,0,0,1,.25-.06.19.19,0,0,1,.06.25c-.27.43-6.61,10.38-13.45,8.87Z"/><path class="cls-9" d="M41.64,118.5a.16.16,0,0,1-.12-.13.19.19,0,0,1,.14-.22,8.68,8.68,0,0,0,5.66-3.83.17.17,0,0,1,.24-.07.17.17,0,0,1,.08.24,8.83,8.83,0,0,1-5.9,4A.11.11,0,0,1,41.64,118.5Z"/><path class="cls-8" d="M59.86,77.52a7.34,7.34,0,1,1-5.52-8.79A7.33,7.33,0,0,1,59.86,77.52Z"/><path class="cls-8" d="M48.14,83.23s-.39,1.08-2.3-.47.19-4.67-.82-6.7-1.4-3.3,0-4.73,0-2.83,2.46-3,1.77-2.4,3.86-2.58,2.13,1.59,4.1.87,3.7,1.2,5,1.91,2.69,1.28,2.61,2.71S62.2,75.39,58.5,75C55.5,74.74,49.15,78.22,48.14,83.23Z"/><path class="cls-17" d="M58.2,79.24s1.48-1.25,2,.19-1.47,4.86-3.33,3.49Z"/><path class="cls-18" d="M57.61,81.88a.17.17,0,0,0,.2-.09,2.81,2.81,0,0,1,1.88-1.26.18.18,0,0,0,.15-.2.18.18,0,0,0-.2-.15,3.08,3.08,0,0,0-2.15,1.44.2.2,0,0,0,.07.25Z"/><path class="cls-18" d="M58.93,81.58a.11.11,0,0,0,.1,0,.17.17,0,0,0,.11-.22,1.51,1.51,0,0,0-.53-.68.19.19,0,0,0-.25,0,.18.18,0,0,0,0,.25,1.16,1.16,0,0,1,.41.52A.2.2,0,0,0,58.93,81.58Z"/><path class="cls-16" d="M48.4,84.27l-.84,3.67a6.07,6.07,0,0,0,2.59,2.43c1.45.47,2.75-1.09,2.75-1.09l.81-3.52Z"/><path class="cls-17" d="M48.4,84.27,48,85.9c.74,1.33,2.44,2,5.14,2.22l.54-2.36Z"/><path class="cls-16" d="M59.9,76.77a28.62,28.62,0,0,1-1.08,3.84c-.13.36-.27.73-.43,1.1-1.11,2.59-2.82,5-5.41,5.3-5.3.63-6.51-3.48-6.81-6.4,0-.3-.05-.59-.06-.86s0-.67,0-1A37.58,37.58,0,0,1,46.69,74,3.88,3.88,0,0,1,50,70.78a10.43,10.43,0,0,1,8.71,2.28A3.94,3.94,0,0,1,59.9,76.77Z"/><path class="cls-8" d="M55.37,79.1c-.09.39,0,.76.29.81s.52-.21.61-.6,0-.76-.29-.82S55.46,78.71,55.37,79.1Z"/><path class="cls-8" d="M50.09,77.89c-.09.4,0,.76.29.82s.52-.22.61-.61,0-.76-.29-.81S50.18,77.5,50.09,77.89Z"/><path class="cls-8" d="M57.79,77.36a5.21,5.21,0,0,0-3.3-.88l0,.7a6.25,6.25,0,0,1,3,.93C57.67,77.82,57.84,77.71,57.79,77.36Z"/><path class="cls-8" d="M49.2,75.4a5.14,5.14,0,0,1,3.35.64l-.28.64a6.29,6.29,0,0,0-3.15-.48C49.1,75.87,49,75.69,49.2,75.4Z"/><path class="cls-17" d="M52.41,81.06a1.84,1.84,0,0,1-.6-.28.17.17,0,0,1-.05-.25.18.18,0,0,1,.25,0c.14.1.5.29.68.23a.22.22,0,0,0,.13-.15,26.28,26.28,0,0,0,.5-2.69.18.18,0,0,1,.2-.15.18.18,0,0,1,.16.2c0,.09-.31,2.13-.52,2.76a.58.58,0,0,1-.35.37A.78.78,0,0,1,52.41,81.06Z"/><path class="cls-7" d="M53.77,83a2,2,0,0,1-2.27,1.26,1.87,1.87,0,0,1-1.43-2.16Z"/><path class="cls-8" d="M58.11,80.45a7.22,7.22,0,0,0,.65-2.09c0-.88-.56-1.53-.14-2.29A1.76,1.76,0,0,0,57.78,74c-.6-.29-2.14-.31-3.44-1.34s-3.75-1-4.35-.25c-.72,1-.1,1.22-1.66,2.09-.63.34-.29,1.69-.38,2.49a5.54,5.54,0,0,1-.18.94l-.05.19-1.55-.35c.1-1.26.31-2.62.52-3.76A3.9,3.9,0,0,1,50,70.78a10.43,10.43,0,0,1,8.71,2.28,3.94,3.94,0,0,1,1.2,3.71,29,29,0,0,1-1.08,3.84Z"/><path class="cls-16" d="M46.7,78.55a6.51,6.51,0,0,0,.18-1.24,1.49,1.49,0,0,0-.52-1.46,1,1,0,0,0-1.35,0c-1.13,1.06-1.08,5.16,1.19,4.73Z"/><path class="cls-17" d="M46.06,79.39a.18.18,0,0,1-.1-.19,2.77,2.77,0,0,0-.74-2.14.18.18,0,0,1,.25-.25,3.07,3.07,0,0,1,.84,2.44.17.17,0,0,1-.2.15Z"/><path class="cls-17" d="M45.19,78.35a.16.16,0,0,1-.08-.06.19.19,0,0,1,0-.25,1.69,1.69,0,0,1,.84-.22.18.18,0,1,1,0,.36,1.32,1.32,0,0,0-.64.16A.17.17,0,0,1,45.19,78.35Z"/><path class="cls-9" d="M38.7,88.58c3.07,3.61,14.26,16.25,16.69,17.56,3.17,1.7,13.08,4.28,18.07,5.67.9.25-.55,4.81-.55,4.81s-14.25-1.88-19.65-4.47a53,53,0,0,1-11.92-9.47,24.88,24.88,0,0,1-4.61-7A5.8,5.8,0,0,1,38.7,88.58Z"/><path class="cls-5" d="M213.09,130.34v12.08a1.4,1.4,0,0,1-1.39,1.4H199.61a2.65,2.65,0,0,1-2.26-1.61.59.59,0,0,1-.06-.14c0-.07,0-.14-.07-.22v0h0v0l0-9.53v-2.79a1.39,1.39,0,0,1,1.24-1.39h.15l12.32.05.17,0h0A2.47,2.47,0,0,1,213.09,130.34Z"/><path class="cls-6" d="M212.06,129.47v12.08a1.4,1.4,0,0,1-1.4,1.39H198.58a1.39,1.39,0,0,1-1.23-.73.59.59,0,0,1-.06-.14c0-.07,0-.14-.07-.22v-.06a1,1,0,0,1,0-.24V129.47a1.39,1.39,0,0,1,1.24-1.39h12.23a1.14,1.14,0,0,1,.41.07h0A1.39,1.39,0,0,1,212.06,129.47Z"/><path class="cls-7" d="M204.91,130.65a4.65,4.65,0,1,0,4.65,4.65A4.65,4.65,0,0,0,204.91,130.65Zm.19,6.36v-1.62h2.1A6,6,0,0,1,207,137Zm1.32,1.86a5.15,5.15,0,0,0,.8-1.48h1.42a4.24,4.24,0,0,1-2.78,2.07A4.52,4.52,0,0,0,206.42,138.87Zm.4-1.48a4.49,4.49,0,0,1-.69,1.23,4,4,0,0,1-1,.95v-2.18ZM205.1,133v-2h.17a5.78,5.78,0,0,1,1.45,2Zm2,0a6.34,6.34,0,0,0-.63-1.14,5.89,5.89,0,0,0-.58-.72,4.28,4.28,0,0,1,2.6,1.86Zm-2,2v-1.63h1.77a5.14,5.14,0,0,1,.33,1.63Zm2.47,0a5.72,5.72,0,0,0-.3-1.63h1.46a4.22,4.22,0,0,1,.45,1.63Zm1.61.38a4.11,4.11,0,0,1-.36,1.62h-1.48a6.53,6.53,0,0,0,.23-1.62ZM202.53,137H201a4.11,4.11,0,0,1-.36-1.62h1.66A6.53,6.53,0,0,0,202.53,137Zm.62-4a4.93,4.93,0,0,1,.52-.92,5.39,5.39,0,0,1,.94-1.05h.12v2Zm1.58.37V135h-2.06a5.42,5.42,0,0,1,.32-1.63Zm-3.42-.37a4.28,4.28,0,0,1,2.65-1.88,8.79,8.79,0,0,0-.6.74,6.3,6.3,0,0,0-.62,1.14Zm3.42,2.38V137h-1.81a6,6,0,0,1-.25-1.62Zm-4.08-.38a4.39,4.39,0,0,1,.44-1.63h1.51a5.72,5.72,0,0,0-.3,1.63Zm2,2.38a5.15,5.15,0,0,0,.8,1.48,4.8,4.8,0,0,0,.58.61,4.36,4.36,0,0,1-2.84-2.09Zm2.08,0v2.15a4.33,4.33,0,0,1-1.68-2.15Z"/><path class="cls-9" d="M35.35,65.79V77.87a1.4,1.4,0,0,1-1.4,1.4H21.87a2.65,2.65,0,0,1-2.26-1.61.35.35,0,0,1-.06-.14c0-.07-.05-.14-.08-.22v0h0v0l0-9.53V64.92a1.39,1.39,0,0,1,1.25-1.39h.15l12.32,0,.17,0h0A2.48,2.48,0,0,1,35.35,65.79Z"/><path class="cls-11" d="M34.31,64.92V77a1.39,1.39,0,0,1-1.39,1.4H20.84a1.39,1.39,0,0,1-1.23-.73.35.35,0,0,1-.06-.14c0-.07-.05-.14-.08-.22v-.06a1,1,0,0,1,0-.25V64.92a1.39,1.39,0,0,1,1.25-1.39H32.92a1.14,1.14,0,0,1,.41.07h0A1.38,1.38,0,0,1,34.31,64.92Z"/><path class="cls-20" d="M30.33,71.53a66.82,66.82,0,0,1-3.23-6.2v3.32a.76.76,0,1,1-1,.72.74.74,0,0,1,.53-.72V65.33c-.95,2.29-1.77,3.2-3.22,6.2l2.3,2.33H28Z"/><rect class="cls-20" x="25.72" y="74.59" width="2.26" height="1.24"/><path class="cls-6" d="M18.29,47.41a2.24,2.24,0,1,1,2.23-2.24A2.24,2.24,0,0,1,18.29,47.41Zm0-3.77a1.54,1.54,0,1,0,1.53,1.53A1.53,1.53,0,0,0,18.29,43.64Z"/><path class="cls-11" d="M16.76,35.15A2.24,2.24,0,1,1,19,32.91,2.24,2.24,0,0,1,16.76,35.15Zm0-3.77a1.54,1.54,0,1,0,1.53,1.53A1.54,1.54,0,0,0,16.76,31.38Z"/><path class="cls-11" d="M27.21,35.62a.35.35,0,0,1-.35-.35V33.72a.35.35,0,0,1,.35-.35.35.35,0,0,1,.35.35v1.55A.35.35,0,0,1,27.21,35.62Z"/><path class="cls-11" d="M27.21,38.32a.34.34,0,0,1-.35-.35V36.43a.34.34,0,0,1,.35-.35.35.35,0,0,1,.35.35V38A.35.35,0,0,1,27.21,38.32Z"/><path class="cls-11" d="M29.37,36.2H28a.35.35,0,0,1-.35-.35A.34.34,0,0,1,28,35.5h1.38a.34.34,0,0,1,.35.35A.35.35,0,0,1,29.37,36.2Z"/><path class="cls-11" d="M26.42,36.2H25a.35.35,0,0,1-.35-.35A.34.34,0,0,1,25,35.5h1.38a.35.35,0,0,1,.36.35A.36.36,0,0,1,26.42,36.2Z"/><path class="cls-6" d="M25.73,23.5a.35.35,0,0,1-.35-.35V21.6a.35.35,0,1,1,.7,0v1.55A.35.35,0,0,1,25.73,23.5Z"/><path class="cls-6" d="M25.73,26.2a.35.35,0,0,1-.35-.35V24.3a.35.35,0,1,1,.7,0v1.55A.35.35,0,0,1,25.73,26.2Z"/><path class="cls-6" d="M27.9,24.08H26.51a.35.35,0,0,1-.35-.35.35.35,0,0,1,.35-.35H27.9a.35.35,0,0,1,.35.35A.35.35,0,0,1,27.9,24.08Z"/><path class="cls-6" d="M25,24.08H23.56a.35.35,0,0,1-.35-.35.35.35,0,0,1,.35-.35H25a.35.35,0,0,1,.35.35A.35.35,0,0,1,25,24.08Z"/><path class="cls-6" d="M215.27,68.7a2.24,2.24,0,1,1,2.24-2.23A2.23,2.23,0,0,1,215.27,68.7Zm0-3.77a1.54,1.54,0,1,0,1.54,1.54A1.54,1.54,0,0,0,215.27,64.93Z"/><path class="cls-11" d="M202.94,64.8a2.24,2.24,0,1,1,2.23-2.24A2.24,2.24,0,0,1,202.94,64.8Zm0-3.77a1.54,1.54,0,1,0,1.53,1.53A1.54,1.54,0,0,0,202.94,61Z"/><path class="cls-11" d="M209,73.25a.35.35,0,0,1-.35-.35V71.36a.35.35,0,1,1,.7,0V72.9A.35.35,0,0,1,209,73.25Z"/><path class="cls-11" d="M209,76a.35.35,0,0,1-.35-.35V74.06a.35.35,0,0,1,.7,0V75.6A.35.35,0,0,1,209,76Z"/><path class="cls-11" d="M211.13,73.83h-1.39a.35.35,0,0,1,0-.7h1.39a.35.35,0,1,1,0,.7Z"/><path class="cls-11" d="M208.18,73.83h-1.39a.35.35,0,1,1,0-.7h1.39a.35.35,0,1,1,0,.7Z"/><path class="cls-6" d="M210.16,55.58a.35.35,0,0,1-.35-.35V53.68a.35.35,0,0,1,.35-.35.35.35,0,0,1,.35.35v1.55A.35.35,0,0,1,210.16,55.58Z"/><path class="cls-6" d="M210.16,58.28a.35.35,0,0,1-.35-.35V56.39a.35.35,0,0,1,.35-.35.34.34,0,0,1,.35.35v1.54A.35.35,0,0,1,210.16,58.28Z"/><path class="cls-6" d="M212.33,56.16h-1.39a.35.35,0,0,1-.35-.35.35.35,0,0,1,.35-.35h1.39a.34.34,0,0,1,.35.35A.35.35,0,0,1,212.33,56.16Z"/><path class="cls-6" d="M209.38,56.16H208a.35.35,0,0,1-.35-.35.35.35,0,0,1,.35-.35h1.39a.34.34,0,0,1,.35.35A.35.35,0,0,1,209.38,56.16Z"/><g class="cls-21"><path class="cls-22" d="M108,125.3c2.29,0,3.76-3,7.09-3s5.36,2,5.36,5.4c0,2.31-2.54,10.05-6.64,10.05-4.34,0-11-9.25-15.06-9.55-2.69-.2-2,3.5-2.18,5.85-.7-1.1-1.4-5.35-1.4-6.12,0-2.84,1-5.67,5.12-5.67C102.57,122.27,105.71,125.3,108,125.3Z"/><path class="cls-22" d="M112.79,141.87c.77,0,2.42-1,4.21-3-1.52,2.44-4,10-6.75,11-1.36-.32,0-7.74-2.81-7.74a1.37,1.37,0,0,0-1.52,1c-.77,1.81-.26,6.71-1.28,6.71C101.07,148,98,138.24,98,134.9c0-1.29.13-1.74,1.27-1.81C103.07,132.88,108.19,141.87,112.79,141.87Z"/></g><circle class="cls-23" cx="107.82" cy="136.04" r="20.99"/></g></g></g></svg>