<svg xmlns="http://www.w3.org/2000/svg" xmlns:xlink="http://www.w3.org/1999/xlink" viewBox="0 0 191.67 163.78"><defs><style>.cls-1{isolation:isolate;}.cls-2{fill:#ebe2db;}.cls-15,.cls-3{fill:#f79702;}.cls-4{fill:#eb7c00;}.cls-5{fill:#da2c0f;}.cls-6{fill:#fa461a;}.cls-37,.cls-7{fill:#fff;}.cls-17,.cls-8{fill:#373543;}.cls-9{fill:url(#Безымянный_градиент_377);}.cls-10{fill:#1a100e;}.cls-11{fill:url(#Безымянный_градиент_377-2);}.cls-12{fill:#106dad;}.cls-13{fill:url(#radial-gradient);}.cls-14,.cls-15{mix-blend-mode:multiply;}.cls-15{opacity:0.5;}.cls-16{fill:#a056e5;}.cls-17{font-size:20.92px;font-family:Montserrat-Black, Montserrat;font-weight:800;}.cls-18{fill:#f9af8b;}.cls-19{fill:#8028d8;}.cls-20{fill:#6511bc;}.cls-21{fill:#fc8664;}.cls-22{fill:#fd664d;}.cls-23{fill:#b31111;}.cls-24{fill:url(#Безымянный_градиент_377-3);}.cls-25{fill:#fbf5ee;}.cls-26{fill:url(#Безымянный_градиент_377-4);}.cls-27{fill:url(#Безымянный_градиент_377-5);}.cls-28{fill:url(#Безымянный_градиент_377-6);}.cls-29{fill:url(#Безымянный_градиент_377-7);}.cls-30{fill:url(#Безымянный_градиент_377-8);}.cls-31{fill:url(#Безымянный_градиент_377-9);}.cls-32{fill:url(#Безымянный_градиент_377-10);}.cls-33{fill:url(#Безымянный_градиент_377-11);}.cls-34{fill:url(#Безымянный_градиент_377-12);}.cls-35{fill:url(#Безымянный_градиент_377-13);}.cls-36,.cls-38{opacity:0.75;}.cls-37{fill-rule:evenodd;}.cls-38{fill:none;stroke:#fff;stroke-miterlimit:10;stroke-width:0.75px;}</style><linearGradient id="Безымянный_градиент_377" x1="34.83" y1="44.97" x2="59.24" y2="44.97" gradientUnits="userSpaceOnUse"><stop offset="0.02" stop-color="#6b2289"/><stop offset="1" stop-color="#594a9c"/></linearGradient><linearGradient id="Безымянный_градиент_377-2" x1="31.33" y1="44.28" x2="55.74" y2="44.28" xlink:href="#Безымянный_градиент_377"/><radialGradient id="radial-gradient" cx="93.66" cy="120.36" fx="101.39062155704184" r="27.55" gradientUnits="userSpaceOnUse"><stop offset="0" stop-color="#00bddb"/><stop offset="0.99" stop-color="#26a9ff"/></radialGradient><linearGradient id="Безымянный_градиент_377-3" x1="17.13" y1="62.53" x2="30.24" y2="62.53" xlink:href="#Безымянный_градиент_377"/><linearGradient id="Безымянный_градиент_377-4" x1="12.8" y1="29" x2="16.73" y2="29" xlink:href="#Безымянный_градиент_377"/><linearGradient id="Безымянный_градиент_377-5" x1="23.67" y1="30.4" x2="24.28" y2="30.4" xlink:href="#Безымянный_градиент_377"/><linearGradient id="Безымянный_градиент_377-6" x1="23.67" y1="32.78" x2="24.28" y2="32.78" xlink:href="#Безымянный_градиент_377"/><linearGradient id="Безымянный_градиент_377-7" x1="24.35" y1="31.59" x2="26.19" y2="31.59" xlink:href="#Безымянный_градиент_377"/><linearGradient id="Безымянный_градиент_377-8" x1="21.75" y1="31.59" x2="23.59" y2="31.59" xlink:href="#Безымянный_градиент_377"/><linearGradient id="Безымянный_градиент_377-9" x1="176.86" y1="55.13" x2="180.8" y2="55.13" xlink:href="#Безымянный_градиент_377"/><linearGradient id="Безымянный_градиент_377-10" x1="183.83" y1="63.56" x2="184.44" y2="63.56" xlink:href="#Безымянный_градиент_377"/><linearGradient id="Безымянный_градиент_377-11" x1="183.83" y1="65.94" x2="184.44" y2="65.94" xlink:href="#Безымянный_градиент_377"/><linearGradient id="Безымянный_градиент_377-12" x1="184.51" y1="64.75" x2="186.35" y2="64.75" xlink:href="#Безымянный_градиент_377"/><linearGradient id="Безымянный_градиент_377-13" x1="181.92" y1="64.75" x2="183.76" y2="64.75" xlink:href="#Безымянный_градиент_377"/></defs><g class="cls-1"><g id="Layer_2" data-name="Layer 2"><g id="objects"><path class="cls-2" d="M41.63,157.19C8.42,137.65.44,64.44,26.15,36.5c.25-.28.51-.55.77-.82C44.85,16.86,76.13,25,83.08,50.15c4.32,15.68,14,32.72,35.71,28.22,38.4-8,60.89-4.05,65.45,28.13,2.1,14.82-9.82,43.06-44.38,50.69Z"/><path class="cls-2" d="M15.43,134a13.52,13.52,0,0,0-1.59-10.63c-1.91-3.11-4.81-6.35-8-4.66-5.63,3,.89,17.46,5.67,18.84C13.65,138.2,14.81,136.29,15.43,134Z"/><path class="cls-2" d="M129.47,59.17c-2.85-2.81-7-3.3-10.61-2.52s-7.9,3.11-7.62,7.65c.51,8,16.5,7,19.74,1.85C132.45,63.82,131,60.71,129.47,59.17Z"/><ellipse class="cls-2" cx="91.99" cy="158.89" rx="91.99" ry="4.89"/><path class="cls-3" d="M74.27,84.13A10.25,10.25,0,0,0,70,83.35c-1.66,0-3.22-3.3-1.33-7.77S69,65.2,66.46,65s-.33,3.7-3.59,3.1-3.77-9.3-8-8.82c-3.68.42-1.32,6.86.51,9.57s1.22,5.16-.72,4.59-3.88,2.13-1,6.3,6.79,8.34,4.91,8.82-5.79-3.63-7.46,1.24c-.75,2.17,4,9.69,14.5,10.28l4.47-4.84Z"/><path class="cls-4" d="M68.88,95.21c-4.44-11.78-11.89-29.81-12-30a.28.28,0,0,1,.15-.36.27.27,0,0,1,.35.15c.09.22,7.63,18.45,12.06,30.24Z"/><path class="cls-4" d="M62.27,78a.33.33,0,0,1-.13,0,.28.28,0,0,1-.07-.38,26.91,26.91,0,0,0,3-5.93.28.28,0,0,1,.53.15,27,27,0,0,1-3.11,6.09A.28.28,0,0,1,62.27,78Z"/><path class="cls-4" d="M63.27,80.86h0a24.66,24.66,0,0,1-6.77-2.1.25.25,0,0,1-.1-.36.26.26,0,0,1,.36-.11,24.53,24.53,0,0,0,6.59,2,.27.27,0,0,1-.06.54Z"/><path class="cls-4" d="M70.11,89.21a23.67,23.67,0,0,1-2.39,2.45.28.28,0,0,0,0,.38.3.3,0,0,0,.18.1.31.31,0,0,0,.21-.07,23,23,0,0,0,2-2Z"/><path class="cls-4" d="M64.49,94.47a15.79,15.79,0,0,1-4.65-1,.27.27,0,0,1-.14-.36.26.26,0,0,1,.35-.14C63.39,94.36,68.75,94,68.8,94a.27.27,0,0,1,0,.54A29.41,29.41,0,0,1,64.49,94.47Z"/><path class="cls-3" d="M149,116.69c1.51-6.07,4.06-11.55,6.46-9.1s-2.16,11.8-8.45,16.77l-1.74,2.2c4.53-3.7,11.58-5.66,13.33-3.33s-3.07,3.2-7.6,3.27a16.15,16.15,0,0,0-6.79,1.4L136,138.3c7.18-5.84,18.32-8.92,21.1-5.23s-4.88,5.07-12.07,5.18a25.57,25.57,0,0,0-10.74,2.22l-1.64,2.07-1.21-.69,9.77-12.37a17.68,17.68,0,0,0-.42-5.57c-1-4.42-1.24-9.31,1.42-8.15,2.3,1,2.42,6.59.77,11.48l3.38-4.28A25.74,25.74,0,0,0,149,116.69Z"/><path class="cls-3" d="M53.16,113.17c-1.51-6.08-4.06-11.56-6.46-9.1s2.15,11.8,8.45,16.76l1.74,2.2c-4.53-3.69-11.58-5.65-13.34-3.32s3.08,3.19,7.61,3.26A16.15,16.15,0,0,1,58,124.38l8.21,10.39c-7.18-5.83-18.32-8.91-21.1-5.22s4.88,5.07,12.07,5.17a25.9,25.9,0,0,1,10.74,2.22L69.51,139l1.21-.69L61,126a17.68,17.68,0,0,1,.42-5.57c1-4.43,1.24-9.31-1.42-8.15-2.3,1-2.42,6.58-.77,11.47l-3.38-4.28A25.81,25.81,0,0,1,53.16,113.17Z"/><circle class="cls-5" cx="154.96" cy="33.18" r="24.69" transform="translate(51.65 153.35) rotate(-61.4)"/><circle class="cls-6" cx="152.13" cy="33.18" r="24.69" transform="translate(45.72 146.86) rotate(-59.2)"/><circle class="cls-7" cx="152.13" cy="33.18" r="19.52" transform="translate(13.2 103.49) rotate(-39.15)"/><circle class="cls-6" cx="152.13" cy="33.18" r="14.34" transform="translate(0.29 67.67) rotate(-25.1)"/><circle class="cls-7" cx="152.13" cy="33.18" r="9.16" transform="translate(-2.85 48.16) rotate(-17.83)"/><path class="cls-6" d="M153.21,37A4,4,0,1,1,156,32.11,4,4,0,0,1,153.21,37Z"/><path class="cls-8" d="M179.77,18l-6-.9.91-6a.63.63,0,0,0-1.25-.2l-1,6.45L170.19,19l.79-5.19a.62.62,0,0,0-.53-.72.64.64,0,0,0-.72.53l-1,6.44-2.89,2.13.79-5.19a.63.63,0,0,0-1.25-.2l-1,6.45-12.19,9a1.89,1.89,0,0,0,0,1.56l13.07-9.61,6.22.94a.63.63,0,0,0,.72-.53.64.64,0,0,0-.53-.72l-5-.75L169.63,21l6.22.95a.64.64,0,0,0,.72-.53.63.63,0,0,0-.53-.72l-5-.76,2.29-1.68,6.22.94a.63.63,0,0,0,.72-.53A.64.64,0,0,0,179.77,18Z"/><path class="cls-4" d="M59.24,9.73v9.84a14.4,14.4,0,0,0-3.5.43A14.6,14.6,0,0,0,44.93,31.39a13.47,13.47,0,0,0-.2,1.42H34.87c0-.47.06-1,.11-1.42A24.43,24.43,0,0,1,55.74,10,23.84,23.84,0,0,1,59.24,9.73Z"/><path class="cls-5" d="M83.61,32.81H73.74a12.9,12.9,0,0,0-.19-1.39A14.59,14.59,0,0,0,59.24,19.57a14.4,14.4,0,0,0-3.5.43V8.33A28.65,28.65,0,0,1,76.5,16.88a24.24,24.24,0,0,1,7,14.54C83.55,31.88,83.58,32.35,83.61,32.81Z"/><path class="cls-9" d="M59.24,48.7v9.84a23.84,23.84,0,0,1-3.5-.25A24.4,24.4,0,0,1,34.85,34.85c0-.24,0-.47,0-.71,0-.45,0-.89,0-1.33s.06-1,.11-1.42h10a13.47,13.47,0,0,0-.2,1.42c0,.44-.06.88-.06,1.33,0,.24,0,.47,0,.71A14.6,14.6,0,0,0,55.74,48.28,14.4,14.4,0,0,0,59.24,48.7Z"/><path class="cls-10" d="M83.64,34.14c0,.45,0,.9,0,1.34A24.41,24.41,0,0,1,59.24,58.54a23.84,23.84,0,0,1-3.5-.25v-10a14.4,14.4,0,0,0,3.5.42,14.57,14.57,0,0,0,14.5-13.22c0-.44.06-.89.06-1.34s0-.89-.06-1.33a12.9,12.9,0,0,0-.19-1.39h10c0,.46.08.93.11,1.39S83.64,33.69,83.64,34.14Z"/><path class="cls-11" d="M41.17,32.74q0-.68.06-1.32H31.37c0,.44,0,.88,0,1.32A24.41,24.41,0,0,0,55.74,57.15V47.31A14.59,14.59,0,0,1,41.17,32.74Z"/><path class="cls-8" d="M80.11,31.42H70.25q.06.64.06,1.32A14.59,14.59,0,0,1,55.74,47.31v9.84a24.39,24.39,0,0,0,24.4-24.41Q80.14,32.08,80.11,31.42Z"/><path class="cls-3" d="M55.74,18.17V8.33A24.4,24.4,0,0,0,31.37,31.42h9.86A14.59,14.59,0,0,1,55.74,18.17Z"/><path class="cls-6" d="M70.25,31.42h9.86A24.4,24.4,0,0,0,55.74,8.33v9.84A14.59,14.59,0,0,1,70.25,31.42Z"/><rect class="cls-12" x="75.7" y="84.13" width="60.94" height="60.94"/><rect class="cls-13" x="65.41" y="84.13" width="60.94" height="60.94"/><path class="cls-3" d="M124.74,24.73a24.58,24.58,0,0,1-3.3,12.34c-3.73,6.46-7.29,13-10.53,19.73l-1.83,3.79H90.94l-2.67-5.51c-3-6.1-6.2-12-9.62-17.9A24.73,24.73,0,0,1,99.41,0h.71A24.74,24.74,0,0,1,124.74,24.73Z"/><g class="cls-14"><path class="cls-15" d="M108.38,36a.37.37,0,0,1-.33-.2l-.82-1.57-.81,1.57a.39.39,0,0,1-.68,0l-.81-1.57-.82,1.57a.38.38,0,0,1-.34.2h0a.4.4,0,0,1-.34-.2l-.81-1.57-.81,1.57a.4.4,0,0,1-.34.2h0a.4.4,0,0,1-.34-.2l-.81-1.57-.82,1.57a.38.38,0,0,1-.34.2.4.4,0,0,1-.34-.2L98,34.26l-.81,1.57a.4.4,0,0,1-.34.2h0a.4.4,0,0,1-.34-.2l-.81-1.57-.81,1.57a.4.4,0,0,1-.34.2.38.38,0,0,1-.34-.2l-.82-1.57-.81,1.57a.39.39,0,0,1-.34.2h0a.4.4,0,0,1-.34-.2l-1.15-2.22a.38.38,0,0,1,.16-.52.39.39,0,0,1,.52.17l.81,1.56.81-1.56a.39.39,0,0,1,.34-.21.37.37,0,0,1,.34.21l.82,1.56.81-1.56a.38.38,0,0,1,.34-.21.39.39,0,0,1,.34.21l.81,1.56.81-1.56a.39.39,0,0,1,.34-.21.37.37,0,0,1,.34.21l.81,1.56.82-1.56a.37.37,0,0,1,.34-.21.39.39,0,0,1,.34.21l.81,1.56.81-1.56a.39.39,0,0,1,.34-.21h0a.38.38,0,0,1,.34.21l.81,1.56.82-1.56a.37.37,0,0,1,.34-.21.39.39,0,0,1,.34.21l.81,1.56.81-1.56a.39.39,0,0,1,.34-.21.38.38,0,0,1,.34.21l.81,1.56.82-1.56a.38.38,0,1,1,.68.35l-1.16,2.22A.38.38,0,0,1,108.38,36Z"/></g><polygon class="cls-8" points="95.11 60.58 89.96 34.36 90.72 34.21 95.9 60.59 95.11 60.58"/><path class="cls-8" d="M92,34.29a1.67,1.67,0,1,1-1.67-1.68A1.67,1.67,0,0,1,92,34.29Z"/><polygon class="cls-8" points="105.72 60.58 110.87 34.36 110.12 34.21 104.94 60.58 105.72 60.58"/><path class="cls-8" d="M108.82,34.29a1.68,1.68,0,1,0,1.67-1.68A1.67,1.67,0,0,0,108.82,34.29Z"/><path class="cls-15" d="M124.74,24.73a24.58,24.58,0,0,1-3.3,12.34c-3.73,6.46-7.29,13-10.53,19.73l-1.83,3.79H92.73c10.53-1.05,22.38-20.21,20.69-38.44C111.68,3.42,100.21.18,99.41,0h.71A24.74,24.74,0,0,1,124.74,24.73Z"/><rect class="cls-8" x="89.73" y="60.59" width="20.22" height="5.16" rx="1.25"/><path class="cls-10" d="M110,62.93v1.58a1.25,1.25,0,0,1-1.24,1.25H91a1.25,1.25,0,0,1-1.25-1.25V62.93Z"/><path class="cls-8" d="M110,67v2.67a1.25,1.25,0,0,1-1,1.23l-.2,0H91l-.21,0a1.25,1.25,0,0,1-1-1.23V67A1.24,1.24,0,0,1,91,65.76h17.73A1.24,1.24,0,0,1,110,67Z"/><path class="cls-10" d="M110,68.08v1.59a1.25,1.25,0,0,1-1,1.23H90.77a1.25,1.25,0,0,1-1-1.23V68.08Z"/><path class="cls-8" d="M110,72.17v2.67a1.26,1.26,0,0,1-1,1.23H90.78a1.26,1.26,0,0,1-1-1.23V72.17A1.25,1.25,0,0,1,91,70.92h17.73A1.25,1.25,0,0,1,110,72.17Z"/><path class="cls-10" d="M110,73.24v1.6a1.26,1.26,0,0,1-1,1.23H90.78a1.26,1.26,0,0,1-1-1.23v-1.6Z"/><path class="cls-10" d="M95,76.08a5,5,0,0,0,9.93,0Z"/><rect class="cls-7" x="110.56" y="72.88" width="51.66" height="29.31"/><rect class="cls-8" x="110.56" y="72.88" width="51.66" height="2.52"/><path class="cls-3" d="M157.35,74.14a.52.52,0,1,1-.52-.52A.52.52,0,0,1,157.35,74.14Z"/><path class="cls-16" d="M159.05,74.14a.53.53,0,1,1-.53-.52A.52.52,0,0,1,159.05,74.14Z"/><path class="cls-6" d="M160.66,74.14a.53.53,0,1,1-.53-.52A.52.52,0,0,1,160.66,74.14Z"/><path class="cls-8" d="M116.37,100.37a.13.13,0,0,1-.13-.12V77.1a.12.12,0,0,1,.13-.12.12.12,0,0,1,.12.12v23.15A.12.12,0,0,1,116.37,100.37Z"/><path class="cls-8" d="M116.74,77.16a.38.38,0,1,1-.38-.38A.38.38,0,0,1,116.74,77.16Z"/><path class="cls-8" d="M116.74,100.25a.38.38,0,1,1-.38-.38A.38.38,0,0,1,116.74,100.25Z"/><path class="cls-8" d="M156.32,100.37a.13.13,0,0,1-.13-.12V77.1a.12.12,0,0,1,.13-.12.12.12,0,0,1,.12.12v23.15A.13.13,0,0,1,156.32,100.37Z"/><path class="cls-8" d="M156.68,77.16a.37.37,0,1,1-.37-.38A.37.37,0,0,1,156.68,77.16Z"/><path class="cls-8" d="M156.68,100.25a.37.37,0,1,1-.37-.38A.37.37,0,0,1,156.68,100.25Z"/><text class="cls-17" transform="translate(120.87 95.87)">Aa</text><polygon class="cls-18" points="154.38 149.87 154.38 153.05 157.29 153 157.49 149.63 154.38 149.87"/><path class="cls-6" d="M154.89,152.75s-.73-1-1.3-.91-4.94,3.61-6.45,3.91-1.2,1.42-.92,2,12-.15,12-.15.36-3.71,0-4.77S156.07,153,154.89,152.75Z"/><path class="cls-7" d="M152.48,155.23a.26.26,0,0,0,.17,0,.21.21,0,0,0,.07-.29,3.26,3.26,0,0,0-1.11-1.14,1.46,1.46,0,0,0-1.5.09.21.21,0,0,0,0,.29.2.2,0,0,0,.3,0,1,1,0,0,1,1,0,2.94,2.94,0,0,1,.94,1A.23.23,0,0,0,152.48,155.23Z"/><path class="cls-7" d="M153.11,154.62a.18.18,0,0,0,.16,0,.21.21,0,0,0,.08-.29,3.23,3.23,0,0,0-1.12-1.13,1.47,1.47,0,0,0-1.5.08.21.21,0,1,0,.26.34,1.06,1.06,0,0,1,1.06,0,2.77,2.77,0,0,1,.93,1A.18.18,0,0,0,153.11,154.62Z"/><path class="cls-7" d="M151.63,155.72a.21.21,0,0,0,.17,0,.21.21,0,0,0,.07-.29,3.34,3.34,0,0,0-1.11-1.14,1.49,1.49,0,0,0-1.5.09.21.21,0,1,0,.26.34,1,1,0,0,1,1,0,3,3,0,0,1,.94,1A.19.19,0,0,0,151.63,155.72Z"/><path class="cls-19" d="M161.29,96.54c-.07,1.24-.16,2.63-.25,4.12,0,.28,0,.55,0,.83l0,.5c-.59,9.57-1.42,22.55-1.85,26.7-.87,8.44-.92,21.22-.92,21.22h-4.64c-.44-9.08-1.19-34.53-1.58-47.8,0-.42,0-.83,0-1.22-.05-1.73-.09-3.2-.13-4.35Z"/><path class="cls-20" d="M161.29,96.54c-.07,1.24-.16,2.63-.25,4.12h-.1a57.12,57.12,0,0,1-9,.22c-.05-1.73-.09-3.2-.13-4.35Z"/><path class="cls-20" d="M159.31,96.54c-.43,8.67-1.1,21.41-1.62,26.72-.53,5.48-1,20.61-1.23,26.65h.6c.19-6,.71-21.13,1.23-26.59s1.2-18.1,1.63-26.78Z"/><polygon class="cls-16" points="153.04 148.24 153.25 150.36 158.82 150.36 158.98 148.24 153.04 148.24"/><polygon class="cls-18" points="164.42 149.67 164.54 152.85 167.45 152.7 167.51 149.32 164.42 149.67"/><path class="cls-6" d="M165.85,152a13.65,13.65,0,0,1,2-.31c.43,0,3.13,3.33,4.07,3.56,1.72.41,1.6,3.12.54,3.21-3.07.25-8.23-1.27-8.23-1.27a24.57,24.57,0,0,1-.07-4.58C164.39,151.52,165,152.28,165.85,152Z"/><path class="cls-7" d="M168.24,155.07a.2.2,0,0,1-.16,0,.21.21,0,0,1,0-.29,3.12,3.12,0,0,1,1.23-1,1.47,1.47,0,0,1,1.48.24.22.22,0,0,1,0,.3.21.21,0,0,1-.3,0,1,1,0,0,0-1-.16,2.86,2.86,0,0,0-1,.87A.25.25,0,0,1,168.24,155.07Z"/><path class="cls-7" d="M167.69,154.4a.21.21,0,0,1-.21-.33,3.3,3.3,0,0,1,1.23-1,1.44,1.44,0,0,1,1.48.25.21.21,0,1,1-.29.3,1,1,0,0,0-1-.15,2.94,2.94,0,0,0-1,.86A.16.16,0,0,1,167.69,154.4Z"/><path class="cls-7" d="M169,155.65a.21.21,0,0,1-.21-.33,3.3,3.3,0,0,1,1.23-1,1.47,1.47,0,0,1,1.48.24.22.22,0,0,1,0,.3.21.21,0,0,1-.3,0,1.06,1.06,0,0,0-1.05-.15,2.77,2.77,0,0,0-1,.86A.22.22,0,0,1,169,155.65Z"/><path class="cls-19" d="M170.17,96.54c0,.69,0,1.5-.07,2.42v.21c-.35,12-1.19,40.93-1.67,50.74h-4.64s0-12.78-.92-21.22c-.43-4.16-1.26-17.14-1.85-26.71l0-.49c0-.27,0-.55-.05-.82-.09-1.5-.17-2.89-.25-4.13Z"/><path class="cls-20" d="M170.17,96.54c0,.69,0,1.5-.07,2.42a55.4,55.4,0,0,1-8.77,1.67h-.08l-.21,0h-.1c-.09-1.5-.17-2.89-.25-4.13Z"/><path class="cls-20" d="M162.67,96.54h-.61c.43,8.68,1.11,21.46,1.63,26.78s1,20.54,1.23,26.59h.61c-.19-6-.71-21.17-1.24-26.65C163.78,118,163.1,105.21,162.67,96.54Z"/><polygon class="cls-16" points="168.94 148.24 168.74 150.36 163.17 150.36 163 148.24 168.94 148.24"/><path class="cls-6" d="M171.64,96.94c-4.37,1.74-15.44,3.07-21.33,0,.57-3.5,2.05-12.63,1.89-17.29,0-.51,0-1-.07-1.52s0-.88-.07-1.31c-.51-7.75-1.83-14.09-1.18-14.91a6,6,0,0,1,1.34-1.15l.73-.47c.61-.37,1.29-.75,2-1.11,1.62-.87,3.26-1.67,4.09-2.22a5.19,5.19,0,0,0,2.16.55h.12a5.26,5.26,0,0,0,2.17-.55c.77.51,2.2,1.22,3.67,2a32,32,0,0,1,3,1.76,6.26,6.26,0,0,1,1.29,1.11c.32.41.18,2.19-.09,4.83s-.68,6-.93,9.79c-.07,1-.12,2.12-.16,3.21A122.26,122.26,0,0,0,171.64,96.94Z"/><path class="cls-5" d="M167.83,87.67h0A17.62,17.62,0,0,1,158,84.22a22.45,22.45,0,0,1-3.87-3.43.2.2,0,0,1,0-.28.19.19,0,0,1,.28,0,22.57,22.57,0,0,0,3.8,3.36,17.24,17.24,0,0,0,9.6,3.38.19.19,0,0,1,.2.19A.2.2,0,0,1,167.83,87.67Z"/><path class="cls-5" d="M163.55,89.07a16.72,16.72,0,0,1-7.28-2.13.2.2,0,0,1-.08-.27.21.21,0,0,1,.28-.07s4.22,2.41,7.93,2a.2.2,0,1,1,0,.39A8.85,8.85,0,0,1,163.55,89.07Z"/><path class="cls-5" d="M160.39,67a.2.2,0,0,1,0-.4c5-1,6.51-4.17,6.53-4.2a.19.19,0,0,1,.26-.1.2.2,0,0,1,.1.26c-.06.14-1.61,3.44-6.82,4.43Z"/><path class="cls-18" d="M167.13,59c-1,2.27-3.33,5.35-6.51,4.8s-4.64-2.89-5.7-4.57c1.62-.87,3.26-1.67,4.09-2.22a5.19,5.19,0,0,0,2.16.55h.12a5.26,5.26,0,0,0,2.17-.55C164.23,57.47,165.66,58.18,167.13,59Z"/><path class="cls-8" d="M161.29,57.59Z"/><path class="cls-18" d="M152.06,76.82c-3.41-6.6-2.91-12.22-1.18-14.91a5,5,0,0,1,1.34-1.15C152.81,63.55,154.31,72,152.06,76.82Z"/><path class="cls-18" d="M171.36,66.65c-.27,2.59-.68,6-.93,9.79-2-4.86-.87-12.91-.27-15.73a6.26,6.26,0,0,1,1.29,1.11C171.77,62.23,171.63,64,171.36,66.65Z"/><rect class="cls-19" x="156.36" y="51.09" width="7.3" height="58.6" transform="translate(-5.87 147.84) rotate(-48.8)"/><rect class="cls-20" x="158.35" y="52.71" width="0.49" height="58.6" transform="translate(-7.57 147.32) rotate(-48.8)"/><rect class="cls-20" x="159.77" y="51.09" width="0.49" height="58.6" transform="translate(-5.87 147.84) rotate(-48.8)"/><rect class="cls-20" x="161.18" y="49.47" width="0.49" height="58.6" transform="translate(-4.17 148.35) rotate(-48.8)"/><rect class="cls-8" x="177.25" y="97.15" width="7.3" height="3.06" transform="translate(-12.5 169.8) rotate(-48.8)"/><path class="cls-6" d="M179.65,102.44l.66.57a3.64,3.64,0,0,0,5.15-.34h0a3.67,3.67,0,0,0-.34-5.16l-.66-.57Z"/><polygon class="cls-18" points="140.37 58.34 135.56 63.84 133.3 58.98 132.82 57.97 131.5 55.11 134.52 56.21 135.7 56.64 140.37 58.34"/><path class="cls-6" d="M134.52,56.21a3.58,3.58,0,0,1-.64,1,2.59,2.59,0,0,1-1,.76l-1.33-2.85Z"/><path class="cls-18" d="M162.6,89.05s-.23.55.57.93a.73.73,0,0,0,.41.77.81.81,0,0,0,.58.79c.59.13,2,.53,4.92-1.2,0,0,8.64-6.92,7.56-13.52s-5.19-15-5.19-15a52.13,52.13,0,0,0-1.58,9.91s2.8,4.31,2,7.78c-.54,2.31-2.74,5.91-3.89,7.79a1.61,1.61,0,0,1-.86-.73,7.5,7.5,0,0,0-.44-.78,3.61,3.61,0,0,0-1.55-1c-.32,0-.22.59,0,.83a4.84,4.84,0,0,1,.83.9c.22.35-1.47,1.21-2.16,1.43s-2-.08-2,.52S162.6,89.05,162.6,89.05Z"/><path class="cls-18" d="M143,73.19s2.19,6.72,4.18,6.8,4-2.47,4-2.47l-2.28-2-.6-.53-2.65-2.32s-.81-.78-1.36-1.19c.34-.28.82-.53.87-.88.09-.58-1.59.32-1.67.35.07,0,1.32-1.18,1.1-1.52s-1.06.11-1.9.75c.06-.06,1.77-1.83,1.38-2.09s-2.26,1.29-2.41,1.39c.16-.16,2-2,1.61-2.34s-1.92.82-2.92,1.72a1.5,1.5,0,0,0-.53.77C139.67,71.81,142,72.64,143,73.19Z"/><path class="cls-21" d="M148.47,76.77a.21.21,0,0,0,.16.26h.05a.23.23,0,0,0,.21-.16,2.94,2.94,0,0,0,0-1.35l-.6-.53A2.93,2.93,0,0,1,148.47,76.77Z"/><path class="cls-8" d="M158.51,54.07h6a4.26,4.26,0,0,0,4.24-4.7v-.1c-.17-1.77-.43-4.22-.43-4.22-.62-5.31-6.05-5.94-6.05-5.94-6.55-.87-8.42,4.65-8.39,7.67,0,.2,0,.41,0,.62v0a22.8,22.8,0,0,0,.58,3.35A4.15,4.15,0,0,0,158.51,54.07Z"/><circle class="cls-8" cx="163.85" cy="40.31" r="4.77"/><path class="cls-21" d="M156,47.8s-1-1.23-1.69-.22.3,4,2.07,3.29Z"/><path class="cls-7" d="M155.57,50.67a.32.32,0,1,1-.32-.33A.32.32,0,0,1,155.57,50.67Z"/><path class="cls-22" d="M156,50a.14.14,0,0,1-.14-.11,2.3,2.3,0,0,0-1.3-1.31.13.13,0,0,1-.09-.18.15.15,0,0,1,.19-.08,2.48,2.48,0,0,1,1.48,1.49.14.14,0,0,1-.1.18Z"/><path class="cls-22" d="M155,49.48a.11.11,0,0,1-.08,0,.14.14,0,0,1,0-.19,1.42,1.42,0,0,1,.56-.43.16.16,0,0,1,.2.07.14.14,0,0,1-.08.19,1.14,1.14,0,0,0-.43.32A.15.15,0,0,1,155,49.48Z"/><path class="cls-18" d="M163.48,54.09V57.4s-1.71,1.7-3,1.81-1.8-1.46-1.8-1.46V54.32Z"/><path class="cls-21" d="M163.48,54.45v1.47c-.9,1-2.49,1.35-4.85,1V54.68Z"/><path class="cls-18" d="M155.41,49.2c0,.35.09.72.15,1.08.43,2.4,1.95,5,3.86,5.42,4.14.94,5.86-2.31,6.52-4.7.07-.27-.07-.58,0-.89a24.2,24.2,0,0,0,.51-2.43c.05-.58.08-1.16.1-1.67a3.37,3.37,0,0,0-2.09-3.32,8.46,8.46,0,0,0-7.53.25,3.43,3.43,0,0,0-1.67,2.89A26.35,26.35,0,0,0,155.41,49.2Z"/><path class="cls-21" d="M160.46,51.05a.15.15,0,0,0,.15-.13.15.15,0,0,0-.13-.18l-.55-.1.76-2a.17.17,0,0,0-.09-.21.16.16,0,0,0-.21.1l-.9,2.39.94.15Z"/><path class="cls-8" d="M167,45.57c0,.53-.06,1.11-.11,1.7-.27.16-.93.23-1,.66-.08,1.15-.13,1.93-.37,1.86-.4-.12-.65-1.5-.19-2.39a3.91,3.91,0,0,0-1.88-1.19,28.94,28.94,0,0,1-3.79-1.84,3.51,3.51,0,0,1-1-.93A3.41,3.41,0,0,1,157,45.16a2.56,2.56,0,0,0-1.32,2.31c0,.1,0,.2-.05.3a2.78,2.78,0,0,1-.28,1c0,.06-.07.07-.11,0-.05-.4-.08-.8-.11-1.18,0-.1,0-.21,0-.31,0-.72,0-1.38,0-1.95a3.44,3.44,0,0,1,1.76-2.94,9.2,9.2,0,0,1,7.93-.26A3.46,3.46,0,0,1,167,45.57Z"/><path class="cls-8" d="M158.43,48.38c0,.35-.18.64-.41.64s-.41-.29-.41-.64.19-.65.41-.65S158.43,48,158.43,48.38Z"/><ellipse class="cls-8" cx="162.57" cy="48.38" rx="0.41" ry="0.64"/><path class="cls-8" d="M157.07,46.69a8.49,8.49,0,0,1,1.69-.14c.19,0,.34.15.31.29h0a.24.24,0,0,1-.29.18,9.46,9.46,0,0,0-2.33.15.31.31,0,0,1,.13-.25A1,1,0,0,1,157.07,46.69Z"/><path class="cls-8" d="M163.62,46.77a8.06,8.06,0,0,0-1.69-.17c-.19,0-.34.15-.32.29h0a.27.27,0,0,0,.3.19,8.56,8.56,0,0,1,2.32.18.3.3,0,0,0-.12-.26A1,1,0,0,0,163.62,46.77Z"/><path class="cls-7" d="M158.67,52a1.83,1.83,0,0,0,1.85,1.6,1.76,1.76,0,0,0,1.84-1.6Z"/><path class="cls-21" d="M160.5,54.58a1.6,1.6,0,0,1-.74-.22.16.16,0,0,1,0-.21.15.15,0,0,1,.22,0h0a1.32,1.32,0,0,0,.57.16,1.24,1.24,0,0,0,.61-.17.15.15,0,0,1,.21.06.14.14,0,0,1,0,.21A1.59,1.59,0,0,1,160.5,54.58Z"/><path class="cls-18" d="M166,47.79s1.13-1.37,1.79-.39-.27,3.91-1.91,3.2Z"/><path class="cls-7" d="M166.87,50.67a.32.32,0,0,1-.32.32.33.33,0,1,1,0-.65A.32.32,0,0,1,166.87,50.67Z"/><path class="cls-21" d="M166.2,49.7a.13.13,0,0,0,.13-.1,2.14,2.14,0,0,1,1.2-1.27.14.14,0,1,0-.1-.26,2.34,2.34,0,0,0-1.36,1.45.13.13,0,0,0,.09.17Z"/><path class="cls-21" d="M167.14,49.24a.11.11,0,0,0,.08,0,.14.14,0,0,0,0-.19,1.31,1.31,0,0,0-.52-.42.14.14,0,0,0-.18.07.15.15,0,0,0,.07.19.92.92,0,0,1,.4.31A.13.13,0,0,0,167.14,49.24Z"/><path class="cls-7" d="M161,48.07v.28a2,2,0,0,0,2,2h.07a1.85,1.85,0,0,0,1.27-.56A2,2,0,0,0,165,48.4v-.33a.7.7,0,0,0-.05-.25.71.71,0,0,0-.16-.26.72.72,0,0,0-.51-.21h-2.54a.72.72,0,0,0-.72.71Zm.3,0a.42.42,0,0,1,.42-.42h2.54a.42.42,0,0,1,.42.42v.33a1.71,1.71,0,0,1-.5,1.23,1.52,1.52,0,0,1-1.07.47H163a1.72,1.72,0,0,1-1.23-.5,1.79,1.79,0,0,1-.52-1.25Z"/><path class="cls-7" d="M155.91,48.07v.28a2,2,0,0,0,2.05,2H158a1.85,1.85,0,0,0,1.27-.56,2,2,0,0,0,.59-1.44v-.33h0a.67.67,0,0,0-.06-.28.72.72,0,0,0-.66-.43h-2.54a.71.71,0,0,0-.55.26.7.7,0,0,0-.14.27A.63.63,0,0,0,155.91,48.07Zm.3,0a.42.42,0,0,1,.42-.42h2.54a.42.42,0,0,1,.42.42v.33a1.71,1.71,0,0,1-.5,1.23,1.52,1.52,0,0,1-1.07.47H158a1.72,1.72,0,0,1-1.23-.5,1.79,1.79,0,0,1-.52-1.25Z"/><path class="cls-7" d="M166.6,47.23a3.58,3.58,0,0,0-1.54.33l-.26.16L165,48l.27-.16a3.06,3.06,0,0,1,1-.27Z"/><path class="cls-7" d="M161.19,48.09l.1-.29a3.37,3.37,0,0,0-.9-.15,1.91,1.91,0,0,0-.82.16l.13.27a1.72,1.72,0,0,1,.69-.13A2.37,2.37,0,0,1,161.19,48.09Z"/><path class="cls-7" d="M156.2,47.67l-.14.27a1.91,1.91,0,0,0-.43-.17,2.78,2.78,0,0,0-.5-.13c0-.1,0-.21,0-.31.21,0,.4.09.57.14A4,4,0,0,1,156.2,47.67Z"/><path class="cls-18" d="M72.19,104.26c-.06-.29-1-.67-2-1l0-.1c1.34.26,3.66.63,3.46,0-.13-.41-2.1-.8-3.3-1a1.23,1.23,0,0,0,0-.19c1.43.21,4.21.54,3.94-.16-.18-.47-2.61-.78-3.87-.91,0,0,0-.11,0-.17,1.21.13,3.55.3,3.29-.4s-3.85-.69-3.85-.69h0l-1.35-.18s0-.47,1-.79,1.41-1,.17-.93-2.58.59-3.56.62a3.69,3.69,0,0,0-2,1l-.4,2.62s3.53,2.13,5.84,2.08h0C70.81,104.45,72.29,104.77,72.19,104.26Z"/><path class="cls-18" d="M65.41,115.56c0,1.41,0,2.57,0,4.32-1.08-1.06-3.06-2.67-3.06-2.67l1.47-1.43A2.17,2.17,0,0,1,65.41,115.56Z"/><path class="cls-20" d="M52.62,85.81c-.6,3.85.39,14.87,1.64,17,1.63,2.72,7.65,9.15,10.8,12.47.57.59-2.91,2.49-2.91,2.49s-9.31-7-12.22-11.38c-.82-1.24-2.21-4.84-3.14-11.24-.28-1.94-1.15-5.94-.44-8.2C47.16,84.3,50.42,83.84,52.62,85.81Z"/><path class="cls-18" d="M49.57,148.87,49.49,153a4.18,4.18,0,0,0,3.1.33l.79-4.41Z"/><path class="cls-19" d="M52.14,152.76s.7-1,1.27-1,5.13,3.43,6.66,3.68,1.48,2.15.89,2.37-12,.21-12,.21-.49-4-.13-5.1S51,153.05,52.14,152.76Z"/><path class="cls-7" d="M54.67,155.16a.25.25,0,0,1-.17,0,.22.22,0,0,1-.09-.29,3.38,3.38,0,0,1,1.08-1.19,1.48,1.48,0,0,1,1.51,0,.21.21,0,0,1,0,.3.22.22,0,0,1-.3,0,1,1,0,0,0-1.06,0,2.92,2.92,0,0,0-.9,1A.21.21,0,0,1,54.67,155.16Z"/><path class="cls-7" d="M54,154.58a.23.23,0,0,1-.16,0,.2.2,0,0,1-.09-.29,3.42,3.42,0,0,1,1.07-1.19,1.49,1.49,0,0,1,1.52,0,.22.22,0,1,1-.25.35,1,1,0,0,0-1.06,0,2.81,2.81,0,0,0-.9,1A.28.28,0,0,1,54,154.58Z"/><path class="cls-7" d="M55.54,155.62a.22.22,0,0,1-.16,0,.21.21,0,0,1-.09-.29,3.26,3.26,0,0,1,1.07-1.19,1.48,1.48,0,0,1,1.52,0,.22.22,0,0,1,0,.3.21.21,0,0,1-.3.05,1.07,1.07,0,0,0-1.06,0,3,3,0,0,0-.91,1A.2.2,0,0,1,55.54,155.62Z"/><path class="cls-5" d="M53.79,149.91a5.43,5.43,0,0,1-3.28-.15l-.5-.19a3.72,3.72,0,0,1-1.08-.69s-1.52-3.91-.35-15.3A50.08,50.08,0,0,1,50,122.5a29.58,29.58,0,0,1-18.94-1.28l7.28-7s18.39-2.07,21.26,3.54C61.57,121.54,53.79,149.91,53.79,149.91Z"/><path class="cls-23" d="M52.26,121.33c-.46,2.27-1.5,7.83-1.39,10.63a31.58,31.58,0,0,1-.34,4.56,42.5,42.5,0,0,0,0,13.24l-.5-.19a43.74,43.74,0,0,1,.06-13.11,30.68,30.68,0,0,0,.34-4.48c-.11-2.74.83-7.91,1.4-10.74a.64.64,0,0,0-.19-.59.63.63,0,0,0-.61-.15c-5.92,1.63-13.9,1.21-14,1.21a.23.23,0,1,1,0-.46c.08,0,8,.42,13.84-1.19a1.09,1.09,0,0,1,1.37,1.27Z"/><polygon class="cls-23" points="48.42 147.64 48.4 149.83 54.06 150.44 54.47 148.3 48.42 147.64"/><path class="cls-18" d="M13.39,144.82l-3.66,1.81a4.11,4.11,0,0,0,1.13,2.9l4.27-1.32Z"/><path class="cls-19" d="M11.12,148.89s1.2.16,1.45.69-.69,6.12-.21,7.6-1.22,2.3-1.7,1.87S5,148.52,5,148.52s3.34-2.28,4.47-2.46S10.32,148,11.12,148.89Z"/><path class="cls-7" d="M10.16,152.24a.24.24,0,0,1-.07-.16.21.21,0,0,1,.22-.21,3.34,3.34,0,0,1,1.55.41,1.48,1.48,0,0,1,.67,1.35.22.22,0,0,1-.24.19.21.21,0,0,1-.18-.24,1.07,1.07,0,0,0-.49-1,2.89,2.89,0,0,0-1.32-.33A.22.22,0,0,1,10.16,152.24Z"/><path class="cls-7" d="M10.37,151.39a.23.23,0,0,1-.06-.16.22.22,0,0,1,.21-.21,3.37,3.37,0,0,1,1.56.41,1.49,1.49,0,0,1,.67,1.36.23.23,0,0,1-.24.18.22.22,0,0,1-.19-.24,1,1,0,0,0-.48-.95,2.91,2.91,0,0,0-1.32-.33A.2.2,0,0,1,10.37,151.39Z"/><path class="cls-7" d="M10.15,153.23a.24.24,0,0,1-.07-.16.22.22,0,0,1,.22-.21,3.34,3.34,0,0,1,1.55.41,1.45,1.45,0,0,1,.67,1.35.22.22,0,0,1-.24.19.22.22,0,0,1-.18-.24,1.07,1.07,0,0,0-.49-.95,2.89,2.89,0,0,0-1.32-.33A.25.25,0,0,1,10.15,153.23Z"/><path class="cls-6" d="M45.66,139.45C43.19,142.91,14.41,149,14.41,149a5.46,5.46,0,0,1-1.36-2.87,4.53,4.53,0,0,1-.06-.5,4,4,0,0,1,.1-1.42s1.41-1.71,12.06-5.9c1.41-.56,4.37-3,9-4.66-4-7-7.23-13.85-7.43-19.85l2.07.56.48.13,9,2.47C42.05,124.12,47.66,136.65,45.66,139.45Z"/><path class="cls-5" d="M36,134a1.13,1.13,0,0,1-.56.67A88,88,0,0,0,27,139.37a45.18,45.18,0,0,1-6.36,3.1,62.14,62.14,0,0,0-7.58,3.7,4.53,4.53,0,0,1-.06-.5,64.26,64.26,0,0,1,7.46-3.61A46.07,46.07,0,0,0,26.72,139a89.6,89.6,0,0,1,8.48-4.77.64.64,0,0,0,.33-.39.69.69,0,0,0-.05-.51c-4.84-8.73-6.27-15.6-6.7-18.93l.48.13c.44,3.34,1.9,10.06,6.62,18.58A1.12,1.12,0,0,1,36,134Z"/><polygon class="cls-5" points="13.85 143.46 11.87 144.38 13.76 149.76 15.87 149.2 13.85 143.46"/><path class="cls-19" d="M42.52,76.4s-4.61-.08-7.5,1.1-3.17,5.64-4.36,8.91S23.54,111,27.43,115c2.94,3,18.9,5.47,19.49.2a168.78,168.78,0,0,1,2.9-18.38c1.21-5.55,2.84-9.4,3-11.82s-5.89-7.35-5.89-7.35Z"/><path class="cls-20" d="M44.25,81.41c-2.16-.75-3.36-3.73-3.42-3.86a.16.16,0,0,1,.1-.21.16.16,0,0,1,.2.09s1.27,3.16,3.41,3.73a.15.15,0,0,1,.11.2.16.16,0,0,1-.19.11Z"/><path class="cls-20" d="M33.46,106.58a.15.15,0,0,1-.1-.18.16.16,0,0,1,.19-.13c5.8,1.29,11.45-7.57,11.5-7.66a.15.15,0,0,1,.22,0,.15.15,0,0,1,0,.22c-.23.37-5.82,9.14-11.84,7.81Z"/><path class="cls-20" d="M36.69,104.43a.16.16,0,0,1,0-.31,7.59,7.59,0,0,0,5-3.38.17.17,0,0,1,.22-.07.16.16,0,0,1,.07.22,7.81,7.81,0,0,1-5.2,3.54Z"/><path class="cls-8" d="M52.75,68.31a6.47,6.47,0,1,1-4.87-7.75A6.47,6.47,0,0,1,52.75,68.31Z"/><path class="cls-8" d="M42.42,73.34s-.34,1-2-.42.16-4.11-.73-5.89-1.23-2.91,0-4.18,0-2.48,2.18-2.59,1.56-2.12,3.4-2.28,1.87,1.4,3.61.77,3.26,1,4.36,1.69,2.37,1.12,2.3,2.38-.74,3.61-4,3.29C48.9,65.86,43.31,68.93,42.42,73.34Z"/><path class="cls-21" d="M51.28,69.83s1.31-1.1,1.8.17-1.3,4.28-2.94,3.07Z"/><path class="cls-22" d="M50.77,72.16a.17.17,0,0,0,.17-.08A2.41,2.41,0,0,1,52.6,71a.17.17,0,0,0,.13-.18.16.16,0,0,0-.18-.14,2.73,2.73,0,0,0-1.89,1.28.16.16,0,0,0,.07.21Z"/><path class="cls-22" d="M51.93,71.89a.14.14,0,0,0,.09,0,.17.17,0,0,0,.1-.2,1.55,1.55,0,0,0-.48-.59.15.15,0,0,0-.22,0,.16.16,0,0,0,0,.22,1.19,1.19,0,0,1,.36.45A.16.16,0,0,0,51.93,71.89Z"/><path class="cls-18" d="M42.65,74.26l-.74,3.23a5.36,5.36,0,0,0,2.28,2.14c1.28.41,2.43-.95,2.43-.95l.71-3.11Z"/><path class="cls-21" d="M42.65,74.26l-.33,1.44c.66,1.17,2.16,1.76,4.53,2l.48-2.08Z"/><path class="cls-18" d="M52.78,67.65a22.88,22.88,0,0,1-1,3.38c-.11.33-.24.65-.38,1-1,2.28-2.49,4.41-4.76,4.68-4.67.55-5.74-3.07-6-5.65,0-.26,0-.52-.06-.75s0-.6,0-.92a32.25,32.25,0,0,1,.52-4.18,3.44,3.44,0,0,1,2.91-2.81,9.23,9.23,0,0,1,7.68,2A3.48,3.48,0,0,1,52.78,67.65Z"/><path class="cls-8" d="M48.79,69.7c-.08.35,0,.67.26.72s.46-.19.54-.54,0-.66-.26-.71S48.87,69.36,48.79,69.7Z"/><path class="cls-8" d="M44.14,68.64c-.08.35,0,.67.25.72s.47-.19.54-.54,0-.66-.25-.71S44.22,68.29,44.14,68.64Z"/><path class="cls-8" d="M50.92,68.17A4.55,4.55,0,0,0,48,67.4L48,68a5.51,5.51,0,0,1,2.68.82C50.82,68.58,51,68.47,50.92,68.17Z"/><path class="cls-8" d="M43.35,66.44A4.51,4.51,0,0,1,46.3,67l-.24.56a5.55,5.55,0,0,0-2.77-.43C43.27,66.85,43.18,66.7,43.35,66.44Z"/><path class="cls-21" d="M46.18,71.43a1.93,1.93,0,0,1-.53-.24.16.16,0,0,1,.18-.26c.13.09.44.25.6.2s.08,0,.11-.13A22.61,22.61,0,0,0,47,68.63a.16.16,0,0,1,.18-.14.17.17,0,0,1,.13.18,22.3,22.3,0,0,1-.46,2.43.51.51,0,0,1-.31.33A.69.69,0,0,1,46.18,71.43Z"/><path class="cls-7" d="M47.38,73.17a1.7,1.7,0,0,1-2,1.1,1.64,1.64,0,0,1-1.26-1.9Z"/><path class="cls-8" d="M51.21,70.89a6.54,6.54,0,0,0,.57-1.84c0-.77-.49-1.35-.12-2a1.56,1.56,0,0,0-.74-1.87,9,9,0,0,1-3-1.17c-1.08-.86-3.3-.93-3.83-.23-.64.86-.09,1.08-1.46,1.84-.55.31-.26,1.49-.34,2.2a3.4,3.4,0,0,1-.16.82l0,.18-1.37-.32c.1-1.1.28-2.3.46-3.3a3.44,3.44,0,0,1,2.91-2.81,9.22,9.22,0,0,1,7.68,2,3.48,3.48,0,0,1,1.05,3.27A24.38,24.38,0,0,1,51.84,71Z"/><path class="cls-18" d="M41.15,69.21a4.94,4.94,0,0,0,.16-1.08,1.32,1.32,0,0,0-.46-1.29.87.87,0,0,0-1.19,0c-1,.93-.95,4.54,1.05,4.17Z"/><path class="cls-21" d="M40.59,70a.17.17,0,0,1-.09-.17,2.45,2.45,0,0,0-.65-1.88.17.17,0,0,1,0-.23.16.16,0,0,1,.22,0,2.73,2.73,0,0,1,.74,2.16.16.16,0,0,1-.18.13Z"/><path class="cls-21" d="M39.82,69a.18.18,0,0,1-.07-.05.17.17,0,0,1,0-.22,1.41,1.41,0,0,1,.73-.19.16.16,0,0,1,.16.15.16.16,0,0,1-.16.16A1.17,1.17,0,0,0,40,69,.14.14,0,0,1,39.82,69Z"/><path class="cls-20" d="M34.1,78.05c2.71,3.19,12.57,14.33,14.71,15.48,2.79,1.5,11.52,3.78,15.93,5,.79.22-.49,4.24-.49,4.24s-12.56-1.66-17.32-4a46.3,46.3,0,0,1-10.5-8.34,21.65,21.65,0,0,1-4.06-6.14A5.11,5.11,0,0,1,34.1,78.05Z"/><path class="cls-5" d="M187.78,114.86V125.5a1.23,1.23,0,0,1-1.23,1.23H175.9a2.33,2.33,0,0,1-2-1.41l-.06-.13-.06-.19v0h0v0l0-8.4v-2.46a1.24,1.24,0,0,1,1.1-1.23H175l10.86,0H186A2.2,2.2,0,0,1,187.78,114.86Z"/><path class="cls-6" d="M186.86,114.09v10.64a1.23,1.23,0,0,1-1.22,1.23H175a1.23,1.23,0,0,1-1.08-.64l-.06-.13-.06-.19v0s0,0,0,0a1.5,1.5,0,0,1,0-.22V114.09a1.24,1.24,0,0,1,1.1-1.23h10.78a1.49,1.49,0,0,1,.36,0h0A1.23,1.23,0,0,1,186.86,114.09Z"/><path class="cls-7" d="M180.57,115.13a4.1,4.1,0,1,0,4.09,4.09A4.09,4.09,0,0,0,180.57,115.13Zm.16,5.61V119.3h1.85a5.56,5.56,0,0,1-.21,1.44Zm1.16,1.63a4.83,4.83,0,0,0,.72-1.3h1.24a3.77,3.77,0,0,1-2.45,1.83A4.1,4.1,0,0,0,181.89,122.37Zm.36-1.3a4.3,4.3,0,0,1-.61,1.09,3.46,3.46,0,0,1-.91.83v-1.92Zm-1.52-3.86v-1.75h.15a5,5,0,0,1,1.28,1.74Zm1.79,0a5.15,5.15,0,0,0-1.07-1.64,3.77,3.77,0,0,1,2.3,1.64ZM180.73,119v-1.43h1.57a4.66,4.66,0,0,1,.28,1.43Zm2.18,0a5,5,0,0,0-.26-1.43h1.28a3.78,3.78,0,0,1,.4,1.43Zm1.42.33a3.76,3.76,0,0,1-.31,1.44h-1.31a6,6,0,0,0,.2-1.44Zm-5.86,1.44h-1.35a3.76,3.76,0,0,1-.31-1.44h1.45A5.56,5.56,0,0,0,178.47,120.74Zm.54-3.53a5,5,0,0,1,.46-.81,4.7,4.7,0,0,1,.83-.93h.11v1.75Zm1.4.33V119h-1.82a4.67,4.67,0,0,1,.29-1.43Zm-3-.33a3.81,3.81,0,0,1,2.34-1.66,5.49,5.49,0,0,0-.52.65,5.88,5.88,0,0,0-.56,1Zm3,2.09v1.44h-1.6a5.56,5.56,0,0,1-.22-1.44Zm-3.6-.33a4,4,0,0,1,.39-1.43h1.33a4.69,4.69,0,0,0-.26,1.43Zm1.76,2.1a4.54,4.54,0,0,0,.71,1.3,4.38,4.38,0,0,0,.51.54,3.81,3.81,0,0,1-2.5-1.84Zm1.84,0V123a3.84,3.84,0,0,1-1.49-1.89Z"/><path class="cls-20" d="M31.15,58V68.62a1.23,1.23,0,0,1-1.23,1.23H19.27a2.33,2.33,0,0,1-2-1.41l-.06-.13-.06-.19v0h0v0l0-8.4V57.21A1.24,1.24,0,0,1,18.23,56h.13l10.86,0h.15A2.19,2.19,0,0,1,31.15,58Z"/><path class="cls-24" d="M30.24,57.21V67.85A1.24,1.24,0,0,1,29,69.08H18.36a1.23,1.23,0,0,1-1.08-.64l-.06-.13-.06-.19v0s0,0,0,0a1.64,1.64,0,0,1,0-.22V57.21A1.24,1.24,0,0,1,18.23,56H29a1.08,1.08,0,0,1,.36.05h0A1.24,1.24,0,0,1,30.24,57.21Z"/><path class="cls-25" d="M26.72,63a60.73,60.73,0,0,1-2.84-5.46v2.92a.68.68,0,1,1-.39,0V57.57c-.84,2-1.57,2.82-2.85,5.46l2,2h2Z"/><rect class="cls-25" x="22.67" y="65.73" width="1.99" height="1.09"/><path class="cls-6" d="M16.12,41.77a2,2,0,1,1,2-2A2,2,0,0,1,16.12,41.77Zm0-3.31a1.35,1.35,0,1,0,1.35,1.35A1.34,1.34,0,0,0,16.12,38.46Z"/><path class="cls-26" d="M14.77,31a2,2,0,1,1,2-2A2,2,0,0,1,14.77,31Zm0-3.32A1.35,1.35,0,1,0,16.12,29,1.35,1.35,0,0,0,14.77,27.65Z"/><path class="cls-27" d="M24,31.39a.3.3,0,0,1-.3-.31V29.72a.3.3,0,0,1,.3-.31.31.31,0,0,1,.31.31v1.36A.31.31,0,0,1,24,31.39Z"/><path class="cls-28" d="M24,33.77a.3.3,0,0,1-.3-.31V32.1a.3.3,0,0,1,.3-.31.31.31,0,0,1,.31.31v1.36A.31.31,0,0,1,24,33.77Z"/><path class="cls-29" d="M25.88,31.9H24.66a.31.31,0,0,1,0-.62h1.22a.31.31,0,0,1,0,.62Z"/><path class="cls-30" d="M23.29,31.9H22.06a.31.31,0,0,1,0-.62h1.23a.31.31,0,0,1,0,.62Z"/><path class="cls-6" d="M22.67,20.71a.3.3,0,0,1-.3-.31V19a.3.3,0,0,1,.3-.31A.31.31,0,0,1,23,19V20.4A.31.31,0,0,1,22.67,20.71Z"/><path class="cls-6" d="M22.67,23.09a.3.3,0,0,1-.3-.31V21.42a.3.3,0,0,1,.3-.31.31.31,0,0,1,.31.31v1.36A.31.31,0,0,1,22.67,23.09Z"/><path class="cls-6" d="M24.59,21.22H23.36a.31.31,0,1,1,0-.62h1.23a.31.31,0,0,1,0,.62Z"/><path class="cls-6" d="M22,21.22H20.76a.31.31,0,1,1,0-.62H22a.31.31,0,0,1,0,.62Z"/><path class="cls-6" d="M189.7,60.54a2,2,0,1,1,2-2A2,2,0,0,1,189.7,60.54Zm0-3.32a1.35,1.35,0,1,0,1.35,1.35A1.35,1.35,0,0,0,189.7,57.22Z"/><path class="cls-31" d="M178.83,57.1a2,2,0,1,1,2-2A2,2,0,0,1,178.83,57.1Zm0-3.32a1.35,1.35,0,1,0,1.35,1.35A1.35,1.35,0,0,0,178.83,53.78Z"/><path class="cls-32" d="M184.13,64.55a.3.3,0,0,1-.3-.31V62.88a.31.31,0,1,1,.61,0v1.36A.31.31,0,0,1,184.13,64.55Z"/><path class="cls-33" d="M184.13,66.93a.3.3,0,0,1-.3-.31V65.26a.31.31,0,1,1,.61,0v1.36A.31.31,0,0,1,184.13,66.93Z"/><path class="cls-34" d="M186.05,65.06h-1.23a.31.31,0,0,1,0-.62h1.23a.31.31,0,0,1,0,.62Z"/><path class="cls-35" d="M183.45,65.06h-1.23a.31.31,0,0,1,0-.62h1.23a.31.31,0,0,1,0,.62Z"/><path class="cls-6" d="M185.2,49a.31.31,0,0,1-.31-.31V47.31a.31.31,0,0,1,.31-.31.3.3,0,0,1,.3.31v1.36A.3.3,0,0,1,185.2,49Z"/><path class="cls-6" d="M185.2,51.36a.31.31,0,0,1-.31-.31V49.69a.31.31,0,0,1,.31-.31.3.3,0,0,1,.3.31v1.36A.3.3,0,0,1,185.2,51.36Z"/><path class="cls-6" d="M187.11,49.49h-1.23a.31.31,0,0,1,0-.62h1.23a.31.31,0,0,1,0,.62Z"/><path class="cls-6" d="M184.51,49.49h-1.22a.31.31,0,0,1,0-.62h1.22a.31.31,0,0,1,0,.62Z"/><g class="cls-36"><path class="cls-37" d="M95.17,110.42c2,0,3.32-2.69,6.25-2.69a4.39,4.39,0,0,1,4.73,4.76c0,2-2.24,8.86-5.85,8.86-3.83,0-9.68-8.15-13.27-8.41-2.38-.18-1.74,3.07-1.92,5.15a19,19,0,0,1-1.24-5.39c0-2.51.9-5,4.51-5C90.39,107.75,93.16,110.42,95.17,110.42Z"/><path class="cls-37" d="M99.39,125c.68,0,2.14-.92,3.71-2.68-1.34,2.15-3.49,8.81-5.95,9.71-1.19-.28,0-6.83-2.48-6.83a1.22,1.22,0,0,0-1.34.92c-.67,1.59-.22,5.91-1.12,5.91-3.15-1.59-5.85-10.23-5.85-13.18,0-1.13.12-1.53,1.12-1.59C90.83,117.09,95.34,125,99.39,125Z"/></g><circle class="cls-38" cx="95.01" cy="119.88" r="18.49"/></g></g></g></svg>