<svg xmlns="http://www.w3.org/2000/svg" xmlns:xlink="http://www.w3.org/1999/xlink" viewBox="0 0 92 22.93"><defs><style>.cls-1{fill:url(#linear-gradient);}.cls-2{fill:url(#linear-gradient-2);}.cls-3{fill:url(#linear-gradient-3);}.cls-4{fill:url(#linear-gradient-4);}.cls-5{fill:url(#linear-gradient-6);}.cls-6{fill:url(#linear-gradient-7);}.cls-7{fill:url(#linear-gradient-8);}.cls-8{fill:url(#linear-gradient-9);}</style><linearGradient id="linear-gradient" x1="-4.5" y1="17.03" x2="97.08" y2="17.03" gradientUnits="userSpaceOnUse"><stop offset="0" stop-color="#264a9e"/><stop offset="0.13" stop-color="#2a499d"/><stop offset="0.27" stop-color="#38469c"/><stop offset="0.42" stop-color="#4d4198"/><stop offset="0.57" stop-color="#6c3a94"/><stop offset="0.73" stop-color="#93328f"/><stop offset="0.88" stop-color="#c22788"/><stop offset="1" stop-color="#ec1e82"/></linearGradient><linearGradient id="linear-gradient-2" x1="-4.5" y1="17.19" x2="97.08" y2="17.19" xlink:href="#linear-gradient"/><linearGradient id="linear-gradient-3" x1="-4.5" y1="15.31" x2="97.08" y2="15.31" xlink:href="#linear-gradient"/><linearGradient id="linear-gradient-4" x1="-4.5" y1="14.96" x2="97.08" y2="14.96" xlink:href="#linear-gradient"/><linearGradient id="linear-gradient-6" x1="-4.5" y1="10.54" x2="97.08" y2="10.54" xlink:href="#linear-gradient"/><linearGradient id="linear-gradient-7" x1="-4.5" y1="15.93" x2="97.08" y2="15.93" xlink:href="#linear-gradient"/><linearGradient id="linear-gradient-8" x1="-4.5" y1="9.43" x2="97.08" y2="9.43" xlink:href="#linear-gradient"/><linearGradient id="linear-gradient-9" x1="-4.5" y1="2.83" x2="97.08" y2="2.83" xlink:href="#linear-gradient"/></defs><g id="Layer_2" data-name="Layer 2"><g id="Layer_1-2" data-name="Layer 1"><path class="cls-1" d="M22.3,22.62V11.76h4v1.61a4.5,4.5,0,0,1,1.35-1.28,3.87,3.87,0,0,1,2.1-.64,3.49,3.49,0,0,1,3.55,2,4.43,4.43,0,0,1,3.76-2,3.93,3.93,0,0,1,3.28,1.26,5.54,5.54,0,0,1,.89,3.48v6.43H36.86V17.09a3.51,3.51,0,0,0-.31-1.74,1.22,1.22,0,0,0-1.13-.5q-1.5,0-1.5,2.4v5.37H29.58V17.09a3.51,3.51,0,0,0-.31-1.74,1.22,1.22,0,0,0-1.13-.5q-1.5,0-1.5,2.4v5.37Z"/><path class="cls-2" d="M55.3,18.16H47.08a2.06,2.06,0,0,0,.62,1.54,2.11,2.11,0,0,0,1.51.6,1.65,1.65,0,0,0,1.62-.95h4.11a4.36,4.36,0,0,1-2.34,2.8,8,8,0,0,1-3.67.78,6.49,6.49,0,0,1-4.4-1.45,5.23,5.23,0,0,1-1.78-4.19A5.53,5.53,0,0,1,44.53,13a6.24,6.24,0,0,1,4.38-1.57,6.11,6.11,0,0,1,4.71,1.86A6.8,6.8,0,0,1,55.3,18.16ZM47.08,16H51a1.95,1.95,0,0,0-1.9-1.89C47.75,14.08,47.08,14.71,47.08,16Z"/><path class="cls-3" d="M68.82,22.62H64.94V21.17a4.06,4.06,0,0,1-3.35,1.76,4.55,4.55,0,0,1-3.7-1.61,6,6,0,0,1-1.25-3.92A6.83,6.83,0,0,1,58,13.06a4.27,4.27,0,0,1,6.51-.2V7.69h4.34Zm-6.15-2.8c1.3,0,2-.84,2-2.53s-.62-2.51-1.84-2.51S61,15.64,61,17.36,61.54,19.82,62.67,19.82Z"/><path class="cls-4" d="M71.05,10.37V7.3h4.34v3.07Zm4.34,12.25H71.05V11.76h4.34Z"/><path class="cls-2" d="M89.84,22.62H85.38l-.2-1.16a5.76,5.76,0,0,1-4.09,1.47,4.47,4.47,0,0,1-2.72-.78,3,3,0,0,1-1.16-2.49,3,3,0,0,1,2-3A17.8,17.8,0,0,1,82.94,16c1.34-.18,2-.53,2-1S84.48,14,83.54,14s-1.43.35-1.52,1.05H77.88q0-3.64,5.94-3.64c2.34,0,3.9.42,4.67,1.28A4.86,4.86,0,0,1,89.28,16V21a2.42,2.42,0,0,0,.08.74,1.39,1.39,0,0,0,.48.64ZM83,20.49c1.4,0,2-.9,1.91-2.68a7.11,7.11,0,0,1-1.45.44,5.3,5.3,0,0,0-1.29.39,1,1,0,0,0-.54.93C81.67,20.18,82.13,20.49,83,20.49Z"/><rect class="cls-5" x="89.7" y="9.39" width="2.3" height="2.3"/><path class="cls-6" d="M12.88,15.07a12.34,12.34,0,0,1-1.6,3.29c-1,1.19-1.29.33-1.34,0A15.71,15.71,0,0,0,10,16.11a12.12,12.12,0,0,1-2.63.22c-.17.88-.14,1.76-.19,1.93-.09.36-.47,1.2-1.33,0A8,8,0,0,1,5,16.09,25.4,25.4,0,0,1,0,14.63v8.3H5.19c4,0,6.76-.41,8.3-1.23a9.14,9.14,0,0,0,5.27-8.57,10,10,0,0,0-.87-4.21A11.89,11.89,0,0,1,12.88,15.07Z"/><path class="cls-7" d="M0,14.42c2.56,1,13,4.09,16.77-7.27a10.5,10.5,0,0,0-3.29-2.61C12,3.73,9.4,3.32,5.86,3.31H2.24A2.23,2.23,0,0,0,0,5.44s0,.07,0,.1V9H0Zm4.51-4.18a2.1,2.1,0,0,1,3.23-1,3,3,0,0,0,1.38.55,3.13,3.13,0,0,0,1.39-.53c1-.56,2.53-.72,3.11,1.14a1.61,1.61,0,0,1,.06.33,11.54,11.54,0,0,1-1.14,1.41,9.7,9.7,0,0,1-7.86,3.12h0C4.28,13.31,4.11,11.2,4.52,10.24Z"/><path class="cls-8" d="M18.39,5.65h2.18a.69.69,0,0,0,.49-.13A.65.65,0,0,0,21.2,5V3.22a.67.67,0,0,0-.14-.48.69.69,0,0,0-.49-.13H19.46L20.86,0H19.71L17.76,2.88V5a.65.65,0,0,0,.14.48A.69.69,0,0,0,18.39,5.65Z"/></g></g></svg>