<svg xmlns="http://www.w3.org/2000/svg" xmlns:xlink="http://www.w3.org/1999/xlink" viewBox="0 0 132.61 65"><defs><style>.cls-1{fill:url(#linear-gradient);}.cls-2{fill:url(#linear-gradient-2);}.cls-3{fill:url(#linear-gradient-3);}.cls-4{fill:url(#linear-gradient-4);}.cls-5{fill:url(#linear-gradient-5);}.cls-6{fill:url(#linear-gradient-6);}.cls-7{fill:#fff;}</style><linearGradient id="linear-gradient" x1="1696.98" y1="-727.74" x2="1697.55" y2="-727.74" gradientTransform="translate(57359.77 133642.16) rotate(-90) scale(78.73)" gradientUnits="userSpaceOnUse"><stop offset="0" stop-color="#ed3226"/><stop offset="1" stop-color="#ab1f24"/></linearGradient><linearGradient id="linear-gradient-2" x1="1696.08" y1="-727.8" x2="1696.64" y2="-727.8" gradientTransform="translate(59120.75 137569.21) rotate(-90) scale(81.08)" gradientUnits="userSpaceOnUse"><stop offset="0" stop-color="#4fa0c9"/><stop offset="1" stop-color="#336ea0"/></linearGradient><linearGradient id="linear-gradient-3" x1="1696.64" y1="-727.26" x2="1697.21" y2="-727.26" gradientTransform="translate(57933.99 135156.8) rotate(-90) scale(79.63)" gradientUnits="userSpaceOnUse"><stop offset="0" stop-color="#2e5aa5"/><stop offset="0.49" stop-color="#2e5aa5"/><stop offset="1" stop-color="#2b3073"/></linearGradient><linearGradient id="linear-gradient-4" x1="1696.62" y1="-727.15" x2="1697.19" y2="-727.15" gradientTransform="translate(57922.89 135142.1) rotate(-90) scale(79.63)" xlink:href="#linear-gradient-3"/><linearGradient id="linear-gradient-5" x1="5.38" y1="58.9" x2="150" y2="58.9" gradientTransform="matrix(1, 0, 0, 1, 0, 0)" xlink:href="#linear-gradient"/><linearGradient id="linear-gradient-6" x1="106.19" y1="58.9" x2="141.46" y2="58.9" gradientTransform="matrix(1, 0, 0, 1, 0, 0)" xlink:href="#linear-gradient"/></defs><g id="Layer_2" data-name="Layer 2"><g id="Layer_1-2" data-name="Layer 1"><path class="cls-1" d="M52.65,0s-5.37.09-5.37,5.36v10h9.41V47H68.22s5.36-.09,5.36-5.37V15.39l.06,0h4S83,15.26,83,10V0Z"/><path class="cls-2" d="M121,0s-4.74.08-5.3,4.48a5.79,5.79,0,0,0-.06.83v8.25h.06v2H105.36V0H93.83s-5.36.09-5.36,5.36v41.7h11.59s4.74-.09,5.3-4.49a5.69,5.69,0,0,0,.06-.83V33.42h-.06v-3h10.35V47h11.53s5.37-.09,5.37-5.37V0Z"/><path class="cls-3" d="M42.89,13.45c-1.84,4.71-5.4,11-12,14.73-1.21,3.44-2.71,6.59-3.84,7.88-2.44,2.87-3.08.83-3.2-.06A42.8,42.8,0,0,0,24,30.69a30.57,30.57,0,0,1-6.33.52c-.39,2.1-.33,4.22-.44,4.63-.23.84-1.14,2.86-3.19-.08a18.79,18.79,0,0,1-2.12-5.14A59.79,59.79,0,0,1,0,27.13V47H12.48q14.34,0,19.87-3Q45,37.35,45,23.55A23.44,23.44,0,0,0,42.89,13.45Z"/><path class="cls-4" d="M40.24,9.18a25,25,0,0,0-7.89-6.26Q26.82,0,14.05,0H5.39S.22.1,0,5.11V13.6H0v13C6.19,29,31.11,36.43,40.24,9.18Zm-29,19.41H11.2c-.92-4.63-1.33-9.67-.34-12,1.88-4.22,5.52-3.8,7.75-2.51a8.12,8.12,0,0,0,3.28,1.33s1,.06,3.34-1.27,6.06-1.72,7.43,2.74a3.93,3.93,0,0,1,.16.83,27.25,27.25,0,0,1-2.73,3.34A23.27,23.27,0,0,1,11.27,28.59Z"/><path class="cls-5" d="M102.28,65H0v-.21a12,12,0,0,1,12-12H113.41C113,54.46,110.93,61.11,102.28,65Z"/><path class="cls-6" d="M132.54,52.79A12.22,12.22,0,0,1,120.33,65H104.87a22.65,22.65,0,0,0,12-12.21Z"/><path class="cls-7" d="M44.65,58.78h1.63L45.64,62a4.25,4.25,0,0,1-1.36.69,5.28,5.28,0,0,1-1.59.24,4.58,4.58,0,0,1-2-.42,3.07,3.07,0,0,1-1.32-1.17,3.21,3.21,0,0,1-.47-1.75,4.69,4.69,0,0,1,.6-2.37,4.33,4.33,0,0,1,1.71-1.66,5.2,5.2,0,0,1,2.53-.6,5,5,0,0,1,1.91.34,3.13,3.13,0,0,1,1.31,1l-1.28,1a2.46,2.46,0,0,0-.87-.66,3,3,0,0,0-1.14-.2,3.06,3.06,0,0,0-1.56.39,2.77,2.77,0,0,0-1,1.08,3.21,3.21,0,0,0-.37,1.53,1.83,1.83,0,0,0,.58,1.41,2.39,2.39,0,0,0,1.66.52,3.09,3.09,0,0,0,1.28-.27Z"/><path class="cls-7" d="M56.44,59.28a3.07,3.07,0,0,1-1.62,1.09l1.34,2.38H54.28l-1.21-2.16H51.55l-.43,2.16H49.33L50.87,55H54a3.49,3.49,0,0,1,2.22.63A2.12,2.12,0,0,1,57,57.43,3,3,0,0,1,56.44,59.28Zm-1.71-.51a1.48,1.48,0,0,0,.49-1.17,1,1,0,0,0-.38-.83,1.8,1.8,0,0,0-1.07-.27h-1.4l-.54,2.67h1.52A2.12,2.12,0,0,0,54.73,58.77Z"/><path class="cls-7" d="M61.61,62.46a3.08,3.08,0,0,1-1.3-1.17,3.38,3.38,0,0,1-.45-1.75,4.72,4.72,0,0,1,.6-2.37,4.26,4.26,0,0,1,1.69-1.65,4.93,4.93,0,0,1,2.48-.61,4.44,4.44,0,0,1,2,.42,3,3,0,0,1,1.3,1.18,3.36,3.36,0,0,1,.46,1.75,4.69,4.69,0,0,1-.61,2.36,4.39,4.39,0,0,1-1.68,1.66,5,5,0,0,1-2.48.6A4.51,4.51,0,0,1,61.61,62.46ZM65.26,61a2.86,2.86,0,0,0,1-1.09,3.32,3.32,0,0,0,.34-1.51A1.85,1.85,0,0,0,66,57a2.22,2.22,0,0,0-1.55-.52,2.73,2.73,0,0,0-1.49.41,2.65,2.65,0,0,0-1,1.09,3.29,3.29,0,0,0-.34,1.51,1.84,1.84,0,0,0,.55,1.4,2.15,2.15,0,0,0,1.55.52A2.72,2.72,0,0,0,65.26,61Z"/><path class="cls-7" d="M72.47,62.16a2.49,2.49,0,0,1-.83-2,4.36,4.36,0,0,1,.09-.83L72.59,55h1.8l-.86,4.29a3.21,3.21,0,0,0-.07.65,1.35,1.35,0,0,0,.38,1,1.59,1.59,0,0,0,1.11.34,1.78,1.78,0,0,0,1.3-.48,3.07,3.07,0,0,0,.7-1.55L77.81,55h1.75l-.87,4.4q-.7,3.44-3.94,3.44A3.35,3.35,0,0,1,72.47,62.16Z"/><path class="cls-7" d="M88.88,55.68a2.15,2.15,0,0,1,.79,1.76,3.12,3.12,0,0,1-.46,1.69,3,3,0,0,1-1.3,1.11,4.68,4.68,0,0,1-2,.39H84.21l-.42,2.12H82L83.53,55h3.12A3.48,3.48,0,0,1,88.88,55.68Zm-1.5,3.09a1.47,1.47,0,0,0,.48-1.17,1,1,0,0,0-.37-.83,1.76,1.76,0,0,0-1.06-.27H85l-.54,2.67H86A2.1,2.1,0,0,0,87.38,58.77Z"/></g></g></svg>