<svg xmlns="http://www.w3.org/2000/svg" xmlns:xlink="http://www.w3.org/1999/xlink" viewBox="0 0 114.7 56.22"><defs><style>.cls-1{fill:none;}.cls-2{clip-path:url(#clip-path);}.cls-3{fill:url(#linear-gradient);}.cls-4{fill:url(#linear-gradient-2);}.cls-5{fill:url(#linear-gradient-3);}.cls-6{fill:url(#linear-gradient-4);}.cls-7{fill:url(#linear-gradient-5);}.cls-8{fill:url(#linear-gradient-6);}.cls-9{fill:#fff;}</style><clipPath id="clip-path" transform="translate(-9.15 -38.39)"><rect class="cls-1" width="133" height="133"/></clipPath><linearGradient id="linear-gradient" x1="-53.41" y1="-803.13" x2="-52.92" y2="-803.13" gradientTransform="translate(63295.9 -4133.05) rotate(-90) scale(78.73)" gradientUnits="userSpaceOnUse"><stop offset="0" stop-color="#ed3226"/><stop offset="1" stop-color="#ab1f24"/></linearGradient><linearGradient id="linear-gradient-2" x1="-54.25" y1="-803.92" x2="-53.75" y2="-803.92" gradientTransform="translate(65286.27 -4315.51) rotate(-90) scale(81.08)" gradientUnits="userSpaceOnUse"><stop offset="0" stop-color="#4fa0c9"/><stop offset="1" stop-color="#336ea0"/></linearGradient><linearGradient id="linear-gradient-3" x1="-53.71" y1="-802.83" x2="-53.22" y2="-802.83" gradientTransform="translate(63957.97 -4192.26) rotate(-90) scale(79.63)" gradientUnits="userSpaceOnUse"><stop offset="0" stop-color="#2e5aa5"/><stop offset="0.49" stop-color="#2e5aa5"/><stop offset="1" stop-color="#2b3073"/></linearGradient><linearGradient id="linear-gradient-4" x1="-53.75" y1="-802.72" x2="-53.26" y2="-802.72" gradientTransform="translate(63946.87 -4206.97) rotate(-90) scale(79.63)" xlink:href="#linear-gradient-3"/><linearGradient id="linear-gradient-5" x1="13.81" y1="89.33" x2="138.89" y2="89.33" gradientTransform="matrix(1, 0, 0, 1, 0, 0)" xlink:href="#linear-gradient"/><linearGradient id="linear-gradient-6" x1="101" y1="89.33" x2="131.51" y2="89.33" gradientTransform="matrix(1, 0, 0, 1, 0, 0)" xlink:href="#linear-gradient"/></defs><g id="Layer_2" data-name="Layer 2"><g id="Layer_1-2" data-name="Layer 1"><g class="cls-2"><path class="cls-3" d="M54.69,38.39s-4.64.08-4.64,4.63v8.66h8.14V79.07h10S72.8,79,72.8,74.43V51.7l0,0H76.3s4.64-.07,4.64-4.63V38.39Z" transform="translate(-9.15 -38.39)"/><path class="cls-4" d="M113.82,38.39s-4.11.07-4.59,3.87a5.84,5.84,0,0,0,0,.73v7.13h0v1.77h-8.94V38.39h-10s-4.64.08-4.64,4.63V79.09h10s4.09-.07,4.59-3.88c0-.24,0-.48,0-.72V67.3h0V64.73h8.94V79.07h10s4.64-.08,4.64-4.64v-36Z" transform="translate(-9.15 -38.39)"/><path class="cls-5" d="M46.25,50c-1.59,4.08-4.67,9.52-10.38,12.74a25.1,25.1,0,0,1-3.32,6.82c-2.11,2.48-2.66.72-2.77,0a37.19,37.19,0,0,0,.11-4.6,25.75,25.75,0,0,1-5.47.46c-.34,1.81-.28,3.65-.39,4-.19.72-1,2.48-2.75-.07a15.89,15.89,0,0,1-1.83-4.45,52.08,52.08,0,0,1-10.26-3V79.07H19.94q12.42,0,17.2-2.56,10.92-5.82,10.92-17.75A20.4,20.4,0,0,0,46.25,50Z" transform="translate(-9.15 -38.39)"/><path class="cls-6" d="M44,46.33a21.72,21.72,0,0,0-6.81-5.42q-4.8-2.52-15.83-2.52h-7.5s-4.47.09-4.62,4.42v7.35h0V61.43C14.5,63.43,36.06,69.9,44,46.33ZM18.9,63.12h-.06c-.79-4-1.15-8.37-.3-10.36,1.63-3.65,4.78-3.28,6.71-2.16a6.94,6.94,0,0,0,2.84,1.14A6.32,6.32,0,0,0,31,50.65c2-1.15,5.25-1.49,6.43,2.36a3.62,3.62,0,0,1,.14.73,24.1,24.1,0,0,1-2.36,2.88A20.15,20.15,0,0,1,18.9,63.12Z" transform="translate(-9.15 -38.39)"/><path class="cls-7" d="M97.61,94.61H9.15v-.18A10.37,10.37,0,0,1,19.52,84.05h87.72C106.9,85.5,105.1,91.25,97.61,94.61Z" transform="translate(-9.15 -38.39)"/><path class="cls-8" d="M123.79,84.05a10.55,10.55,0,0,1-10.56,10.56H99.86a19.59,19.59,0,0,0,10.35-10.56Z" transform="translate(-9.15 -38.39)"/><path class="cls-9" d="M47.77,89.23h1.41L48.63,92a3.75,3.75,0,0,1-1.18.6,4.52,4.52,0,0,1-1.38.21,4,4,0,0,1-1.74-.36,2.72,2.72,0,0,1-1.15-1,2.83,2.83,0,0,1-.4-1.52,4,4,0,0,1,.52-2,3.73,3.73,0,0,1,1.48-1.44A4.54,4.54,0,0,1,47,85.88a4.19,4.19,0,0,1,1.65.3,2.73,2.73,0,0,1,1.13.87l-1.1.89a2,2,0,0,0-.76-.56,2.5,2.5,0,0,0-1-.18,2.57,2.57,0,0,0-1.34.34,2.24,2.24,0,0,0-.9.93,2.74,2.74,0,0,0-.32,1.32,1.58,1.58,0,0,0,.5,1.22,2.06,2.06,0,0,0,1.43.46,2.57,2.57,0,0,0,1.11-.24Z" transform="translate(-9.15 -38.39)"/><path class="cls-9" d="M58,89.67a2.79,2.79,0,0,1-1.4.94l1.16,2.06H56.1L55.05,90.8H53.74l-.37,1.87H51.82L53.15,86h2.71a3.06,3.06,0,0,1,1.93.54,1.85,1.85,0,0,1,.68,1.53A2.63,2.63,0,0,1,58,89.67Zm-1.48-.45a1.25,1.25,0,0,0,.42-1,.85.85,0,0,0-.32-.72,1.64,1.64,0,0,0-.93-.23H54.44L54,89.57h1.31A1.86,1.86,0,0,0,56.49,89.22Z" transform="translate(-9.15 -38.39)"/><path class="cls-9" d="M62.44,92.42a2.58,2.58,0,0,1-1.12-1,2.91,2.91,0,0,1-.39-1.52,4,4,0,0,1,.52-2,3.72,3.72,0,0,1,1.46-1.43,4.3,4.3,0,0,1,2.14-.53,3.92,3.92,0,0,1,1.74.37,2.64,2.64,0,0,1,1.12,1,2.88,2.88,0,0,1,.39,1.51,4,4,0,0,1-.52,2,3.68,3.68,0,0,1-1.46,1.44,4.4,4.4,0,0,1-2.14.52A3.92,3.92,0,0,1,62.44,92.42Zm3.16-1.31a2.31,2.31,0,0,0,.84-.94,2.83,2.83,0,0,0,.3-1.3,1.6,1.6,0,0,0-.48-1.22,1.87,1.87,0,0,0-1.34-.45,2.28,2.28,0,0,0-2.13,1.29,2.87,2.87,0,0,0-.3,1.31A1.57,1.57,0,0,0,63,91a1.86,1.86,0,0,0,1.34.46A2.32,2.32,0,0,0,65.6,91.11Z" transform="translate(-9.15 -38.39)"/><path class="cls-9" d="M71.83,92.16a2.18,2.18,0,0,1-.71-1.71,3.29,3.29,0,0,1,.08-.72L71.94,86h1.55l-.74,3.7a3.07,3.07,0,0,0-.06.57,1.16,1.16,0,0,0,.33.9,1.38,1.38,0,0,0,1,.3,1.51,1.51,0,0,0,1.12-.42,2.66,2.66,0,0,0,.61-1.35l.74-3.7H78l-.76,3.8q-.6,3-3.41,3A2.94,2.94,0,0,1,71.83,92.16Z" transform="translate(-9.15 -38.39)"/><path class="cls-9" d="M86,86.55a1.85,1.85,0,0,1,.68,1.53,2.65,2.65,0,0,1-.4,1.46,2.56,2.56,0,0,1-1.12.95,4,4,0,0,1-1.72.34H82l-.36,1.84H80.07L81.4,86h2.7A3,3,0,0,1,86,86.55Zm-1.3,2.67a1.25,1.25,0,0,0,.42-1,.85.85,0,0,0-.32-.72,1.6,1.6,0,0,0-.92-.23H82.7l-.47,2.31h1.31A1.83,1.83,0,0,0,84.73,89.22Z" transform="translate(-9.15 -38.39)"/></g></g></g></svg>