<?xml version="1.0" encoding="utf-8"?>
<!-- Generator: Adobe Illustrator 23.1.0, SVG Export Plug-In . SVG Version: 6.00 Build 0)  -->
<svg version="1.1" id="Layer_1" xmlns="http://www.w3.org/2000/svg" xmlns:xlink="http://www.w3.org/1999/xlink" x="0px" y="0px"
	 viewBox="0 0 1247.2 1020.5" style="enable-background:new 0 0 1247.2 1020.5;" xml:space="preserve">
<style type="text/css">
	.st0{opacity:0.43;fill:url(#ombre_1_);enable-background:new    ;}
	.st1{fill:#DADADA;}
	.st2{opacity:0.6;fill:#DADADA;enable-background:new    ;}
	.st3{fill:#DFDFDF;}
	.st4{fill:url(#SVGID_1_);}
	.st5{fill:url(#SVGID_2_);}
	.st6{fill:#FFFFFF;}
	.st7{opacity:0.7;fill:url(#SVGID_3_);enable-background:new    ;}
	.st8{fill:url(#SVGID_4_);}
	.st9{fill:url(#SVGID_5_);}
	.st10{fill:url(#SVGID_6_);}
	.st11{fill:url(#SVGID_7_);}
	.st12{fill:url(#SVGID_8_);}
	.st13{fill:url(#SVGID_9_);}
	.st14{fill:url(#SVGID_10_);}
	.st15{fill:url(#SVGID_11_);}
	.st16{fill:url(#SVGID_12_);}
	.st17{fill:url(#SVGID_13_);}
	.st18{fill:url(#SVGID_14_);}
	.st19{fill:url(#SVGID_15_);}
	.st20{fill:#2470B0;}
	.st21{fill:#B6B8BA;}
	.st22{fill:#D8D8DA;}
	.st23{fill:#2B3A49;}
	.st24{fill:url(#SVGID_16_);}
	.st25{font-family:'Colaborate-Bold';}
	.st26{font-size:20px;}
	.st27{fill:url(#SVGID_17_);}
	.st28{fill:url(#SVGID_18_);}
	.st29{fill:url(#SVGID_19_);}
	.st30{fill:url(#SVGID_20_);}
	.st31{fill:url(#SVGID_21_);}
	.st32{fill:url(#SVGID_22_);}
	.st33{fill:url(#SVGID_23_);}
	.st34{fill:url(#SVGID_24_);}
	.st35{fill:url(#SVGID_25_);}
	.st36{fill:url(#SVGID_26_);}
	.st37{fill:url(#SVGID_27_);}
	.st38{fill:url(#SVGID_28_);}
	.st39{fill:url(#SVGID_29_);}
	.st40{fill:url(#SVGID_30_);}
	.st41{fill-rule:evenodd;clip-rule:evenodd;fill:#005400;}
	.st42{fill-rule:evenodd;clip-rule:evenodd;fill:#B3D16F;}
</style>
<g>
	
		<radialGradient id="ombre_1_" cx="1319.3549" cy="413.488" r="41.2896" gradientTransform="matrix(16.513 0 0 -1.6794 -21134.4063 1586.5117)" gradientUnits="userSpaceOnUse">
		<stop  offset="0" style="stop-color:#1D1D1B"/>
		<stop  offset="0.9325" style="stop-color:#FFFFFF;stop-opacity:0"/>
	</radialGradient>
	<path id="ombre" class="st0" d="M652.1,820.8c365.6,0,662,31.9,662,71.3c0,39.4-296.4,71.3-662,71.3s-662-31.9-662-71.3
		C-9.9,852.7,286.5,820.8,652.1,820.8z"/>
	<g>
		<g>
			<path class="st1" d="M1142.5,736c3.8,59.1-59.1,112.5-114.2,133.5c-150.6,57.6-475.4-81.2-725.5-310
				C121.8,393.9,29.5,226.6,49.4,125c-31,102.5,62.6,280,254.2,455.2C558.7,813.6,891,954.7,1045.8,895.5
				c62.6-23.9,125.4-85.8,114.9-156C1151.8,680,1138.8,679.3,1142.5,736z"/>
			<path class="st1" d="M270.4,56.8c-80.4,12.6-111.8,61.8-95.9,129.1c-23.3-72.4,5.8-126.2,89.5-139.3
				C387.9,27.2,589.7,103.4,743.2,222C587.5,108.7,392.2,37.8,270.4,56.8z"/>
			<path class="st2" d="M807.3,231.9c140.4,114.9,244.5,228.2,292.9,311.6c-8.8-61.8-107.8-181.8-258.1-304.8
				c-116.6-95.5-237.4-170.9-327.9-209C605.8,81,708,150.6,807.3,231.9z"/>
		</g>
		<path class="st3" d="M968,972.4c-198.2,14.5-425.2-71.7-511.2-191.3c2.2,4,4.5,8.1,7.1,12.2c77.8,123.8,306.1,212.1,509.9,197.1
			c197.5-14.5,255-123.9,217.1-244.9C1209.4,866.5,1153,958.8,968,972.4z"/>
	</g>
	
		<linearGradient id="SVGID_1_" gradientUnits="userSpaceOnUse" x1="695.3" y1="213" x2="952.4" y2="213" gradientTransform="matrix(1 0 0 1 0 176)">
		<stop  offset="0" style="stop-color:#FA933D"/>
		<stop  offset="1" style="stop-color:#E25933"/>
	</linearGradient>
	<path class="st4" d="M823.8,260.5c-71,0-128.5,57.5-128.5,128.5s57.5,128.5,128.5,128.5S952.4,460,952.4,389
		S894.8,260.5,823.8,260.5z M823.8,455.3c-9.2,0-16.6-7.4-16.6-16.6s7.4-16.6,16.6-16.6s16.6,7.4,16.6,16.6
		C840.4,447.9,833,455.3,823.8,455.3z M823.8,389c-27.5,0-49.7,22.3-49.7,49.7c0,27.5,22.3,49.7,49.7,49.7
		c-55,0-99.5-44.5-99.5-99.5s44.5-99.5,99.5-99.5c27.5,0,49.7,22.3,49.7,49.7C873.6,366.7,851.3,389,823.8,389z M823.8,322.7
		c-9.2,0-16.6,7.4-16.6,16.6s7.4,16.6,16.6,16.6s16.6-7.4,16.6-16.6S833,322.7,823.8,322.7z"/>
	<g>
		
			<linearGradient id="SVGID_2_" gradientUnits="userSpaceOnUse" x1="230.3544" y1="68.3847" x2="426.5811" y2="68.3847" gradientTransform="matrix(1 0 0 1 0 176)">
			<stop  offset="0" style="stop-color:#9FCB56"/>
			<stop  offset="1" style="stop-color:#50A454"/>
		</linearGradient>
		<path class="st5" d="M424.2,223c11.8,52.9-21.4,105.3-74.3,117.1c-52.9,11.8-105.3-21.4-117.2-74.3
			C221,213,254.2,160.5,307.1,148.7C359.9,136.8,412.4,170.1,424.2,223z"/>
	</g>
	<g>
		<g>
			<g>
				<rect x="254.5" y="200.4" class="st6" width="148.2" height="93.7"/>
			</g>
		</g>
	</g>
	
		<radialGradient id="SVGID_3_" cx="484.1087" cy="-16382.0068" r="56.627" gradientTransform="matrix(0.6804 -0.1374 1.410000e-02 8.790000e-02 126.8076 1809.282)" gradientUnits="userSpaceOnUse">
		<stop  offset="7.980000e-02" style="stop-color:#A1A1A1"/>
		<stop  offset="0.7239" style="stop-color:#FFFFFF;stop-opacity:0"/>
	</radialGradient>
	<path class="st7" d="M233.8,307.8c0,0,3.4-0.1-3.7,1.1c-7.1,1.2-13.4-5.4-13.4-5.4s-1.6-11.1,3.3-3.8
		C224.9,306.9,233.8,307.8,233.8,307.8z"/>
	<g>
		
			<linearGradient id="SVGID_4_" gradientUnits="userSpaceOnUse" x1="39.9483" y1="-536.8985" x2="274.0821" y2="-536.8985" gradientTransform="matrix(0.9819 -0.1893 0.1893 0.9819 591.3116 853.0535)">
			<stop  offset="0" style="stop-color:#FFD949"/>
			<stop  offset="1" style="stop-color:#F99F40"/>
		</linearGradient>
		<path class="st8" d="M758.8,274c12.2,63.5-29.3,124.9-92.8,137.1s-124.9-29.3-137.1-92.8c-12.2-63.5,29.3-124.9,92.8-137.1
			C685.2,168.9,746.6,210.4,758.8,274z"/>
		<path class="st6" d="M628.8,289.8c1.3-4.5,2.5-12.1,4.8-12.1c3,0.6,3.5,8.4,6.7,13.2c1.7-8.5,1.9-30.7,5.1-31.3
			c3.2-0.3,7.1,24,7.9,28c3.6,1.5,17.7,2.4,17.7,2.4c0.7,2.6-8.7,2.7-14.4,2.8c-1.7,5.3-1.9,10-4.1,10.1c-1.7,0.1-3-10.4-6.3-17.9
			l-3.4,23.6c-1.6,4.7-5.6-8.1-7.9-14.2c-1.2,0-22.5-0.6-17.2-2.8L628.8,289.8L628.8,289.8z M668.4,365.4c7.7,0,7.7-11.6,0-11.6
			h-49.1c-7.7,0-7.7,11.6,0,11.6H668.4z M659.7,388.5c7.7,0,7.7-11.6,0-11.6H628c-7.7,0-7.7,11.6,0,11.6H659.7z M672.1,337.5
			c1.2-6.8,1.9-13.1,4.3-17.6c2.9-5.3,5.8-10.1,8.7-14.8c8.9-14.6,16.6-27.1,16.6-45.3c0-30.9-25.9-56-57.8-56
			c-31.8,0-57.8,25.1-57.8,56c0,18.1,7.7,30.7,16.6,45.3c2.9,4.7,5.8,9.5,8.7,14.8c2.4,4.5,3.1,10.8,4.3,17.7
			c1.3,7.6,13,5.7,11.8-1.8c-1.3-7.8-2-14.7-5.5-21.2c-11.9-21.9-24-34.6-24-54.9c0-24.5,20.6-44.5,45.8-44.5
			c25.3,0,45.8,20,45.8,44.5c0,20.3-12.1,33-23.9,54.7c-3.5,6.5-4.2,13.5-5.5,21.2C659.1,343,670.8,345.1,672.1,337.5L672.1,337.5z"
			/>
		
			<linearGradient id="SVGID_5_" gradientUnits="userSpaceOnUse" x1="425.2604" y1="108.3916" x2="495.1765" y2="108.3916" gradientTransform="matrix(0.7578 0.6525 -0.6525 0.7578 257.5719 -213.4317)">
			<stop  offset="0" style="stop-color:#FFD949"/>
			<stop  offset="1" style="stop-color:#F99F40"/>
		</linearGradient>
		<path class="st9" d="M552.4,192.5l-42.6-36.6c-2.9-2.5-3.2-6.8-0.7-9.7l0,0c2.5-2.9,6.8-3.2,9.7-0.7l42.6,36.6
			c2.9,2.5,3.2,6.8,0.7,9.7l0,0C559.6,194.6,555.3,194.9,552.4,192.5z"/>
		
			<linearGradient id="SVGID_6_" gradientUnits="userSpaceOnUse" x1="505.6485" y1="213.0793" x2="575.5535" y2="213.0793" gradientTransform="matrix(0.2307 0.973 -0.973 0.2307 671.9094 -433.9622)">
			<stop  offset="0" style="stop-color:#FFD949"/>
			<stop  offset="1" style="stop-color:#F99F40"/>
		</linearGradient>
		<path class="st10" d="M589.1,170.1l-13-54.6c-0.9-3.7,1.4-7.4,5.1-8.3l0,0c3.7-0.9,7.4,1.4,8.3,5.1l13,54.6
			c0.9,3.7-1.4,7.4-5.1,8.3l0,0C593.7,176.1,590,173.8,589.1,170.1z"/>
		
			<linearGradient id="SVGID_7_" gradientUnits="userSpaceOnUse" x1="606.9066" y1="-213.9865" x2="676.8115" y2="-213.9865" gradientTransform="matrix(-0.2307 0.973 0.973 0.2307 1052.6858 -433.9622)">
			<stop  offset="0" style="stop-color:#FFD949"/>
			<stop  offset="1" style="stop-color:#F99F40"/>
		</linearGradient>
		<path class="st11" d="M696.6,170.1l13-54.6c0.9-3.7-1.4-7.4-5.1-8.3l0,0c-3.7-0.9-7.4,1.4-8.3,5.1l-13,54.6
			c-0.9,3.7,1.4,7.4,5.1,8.3l0,0C692,176.1,695.7,173.8,696.6,170.1z"/>
		
			<linearGradient id="SVGID_8_" gradientUnits="userSpaceOnUse" x1="663.5504" y1="-96.7869" x2="733.4666" y2="-96.7869" gradientTransform="matrix(-0.7578 0.6525 0.6525 0.7578 1346.1831 -213.4317)">
			<stop  offset="0" style="stop-color:#FFD949"/>
			<stop  offset="1" style="stop-color:#F99F40"/>
		</linearGradient>
		<path class="st12" d="M736.9,192.5l42.6-36.6c2.9-2.5,3.2-6.8,0.7-9.7l0,0c-2.5-2.9-6.8-3.2-9.7-0.7l-42.6,36.6
			c-2.9,2.5-3.2,6.8-0.7,9.7l0,0C729.6,194.6,734,194.9,736.9,192.5z"/>
		
			<linearGradient id="SVGID_9_" gradientUnits="userSpaceOnUse" x1="526.0669" y1="301.7558" x2="595.9575" y2="301.7558" gradientTransform="matrix(-1.071075e-10 1 -1 -1.071075e-10 944.6559 -432.465)">
			<stop  offset="0" style="stop-color:#FFD949"/>
			<stop  offset="1" style="stop-color:#F99F40"/>
		</linearGradient>
		<path class="st13" d="M636,156.6v-56.2c0-3.8,3.1-6.9,6.9-6.9l0,0c3.8,0,6.9,3.1,6.9,6.9v56.2c0,3.8-3.1,6.9-6.9,6.9l0,0
			C639,163.5,636,160.4,636,156.6z"/>
	</g>
	<g>
		
			<linearGradient id="SVGID_10_" gradientUnits="userSpaceOnUse" x1="471.6989" y1="1061.6012" x2="939.299" y2="1061.6012" gradientTransform="matrix(1 0 0 -1 -102.8989 1693.4512)">
			<stop  offset="0" style="stop-color:#B51F6A"/>
			<stop  offset="1" style="stop-color:#5E2E80"/>
		</linearGradient>
		<path class="st14" d="M836.4,631.8c0,127.8-104.7,231.5-233.8,231.5c-129.2,0-233.8-103.7-233.8-231.5s104.6-231.4,233.8-231.4
			C731.7,400.4,836.4,504,836.4,631.8z"/>
	</g>
	<g>
		
			<linearGradient id="SVGID_11_" gradientUnits="userSpaceOnUse" x1="398.5813" y1="135.7" x2="556.2186" y2="135.7" gradientTransform="matrix(1 0 0 1 0 176)">
			<stop  offset="0.1472" style="stop-color:#359C53"/>
			<stop  offset="1" style="stop-color:#35834C"/>
		</linearGradient>
		<path class="st15" d="M554.3,294.5c9.5,42.5-17.2,84.6-59.7,94.1s-84.6-17.2-94.1-59.7s17.2-84.6,59.7-94.1
			C502.6,225.3,544.8,252,554.3,294.5z"/>
	</g>
	<path class="st6" d="M450.2,306.8l27.2-27.2l-8.9-8.9L456,283.2c-0.6,0.6-1.6,0.6-2.3,0l0,0l-2.3-2.3c-0.6-0.6-0.6-1.6,0-2.3
		l12.5-12.5l-6.8-6.8c-2.5-2.5-6.6-2.5-9.1,0l-18.1,18.1c-2.5,2.5-2.5,6.6,0,9.1L450.2,306.8L450.2,306.8z M528.7,283.2
		c3.8-3.8,3.8-9.9,0-13.7l-9.2-9.2c-3.8-3.8-9.9-3.8-13.7,0l-9.3,9.3l22.9,22.9L528.7,283.2L528.7,283.2z M492,274.2l-60.1,60.1
		l-3.8,21.7c-0.5,2.9,2,5.5,5,5l21.7-3.8l60.1-60.1L492,274.2z M529.7,332l-6.8-6.8l-12.5,12.5c-0.6,0.6-1.6,0.6-2.3,0l-2.3-2.3
		c-0.6-0.6-0.6-1.6,0-2.3l12.5-12.5l-8.9-8.9l-27.2,27.2l20.3,20.3c2.5,2.5,6.6,2.5,9.1,0l18.1-18.1
		C532.2,338.5,532.2,334.5,529.7,332L529.7,332z"/>
	
		<linearGradient id="SVGID_12_" gradientUnits="userSpaceOnUse" x1="745.1835" y1="359.5461" x2="788.3929" y2="359.5461" gradientTransform="matrix(1 0 0 -1 0 1202.2461)">
		<stop  offset="0" style="stop-color:#DB61A0"/>
		<stop  offset="1" style="stop-color:#C41A7D"/>
	</linearGradient>
	<path class="st16" d="M767,823.9c2.7,3.8,4.8,8.2,7.6,12c4.8,0.6,9.2,1.6,13.9,2.3c0.2,1.6-2.8,3.2-4.4,4.8c-1.8,1.8-3.4,3.7-5,5.1
		c0.2,4.8,1.3,8.7,1.6,13.4c-4.8-1.5-8.8-3.8-13.6-5.4c-4.7,1.6-8.7,3.9-13.6,5.4c0.7-4.2,1-8.8,1.9-12.8
		c-2.9-3.9-7.2-6.6-10.1-10.5c4.9-0.6,9.3-1.7,14.2-2.3C762.2,832.2,764.3,827.8,767,823.9z"/>
	
		<linearGradient id="SVGID_13_" gradientUnits="userSpaceOnUse" x1="794.56" y1="359.5461" x2="822.3997" y2="359.5461" gradientTransform="matrix(1 0 0 -1 0 1202.2461)">
		<stop  offset="0" style="stop-color:#DB61A0"/>
		<stop  offset="1" style="stop-color:#C41A7D"/>
	</linearGradient>
	<path class="st17" d="M808.6,830.6c1.8,2.5,3.1,5.3,4.9,7.7c3.1,0.4,5.9,1,8.9,1.5c0.1,1-1.8,2.1-2.8,3.1c-1.2,1.1-2.2,2.4-3.3,3.3
		c0.1,3.1,0.8,5.6,1,8.6c-3.1-1-5.7-2.5-8.7-3.5c-3,1.1-5.6,2.5-8.7,3.5c0.5-2.7,0.6-5.7,1.2-8.3c-1.9-2.5-4.6-4.2-6.5-6.8
		c3.1-0.4,6-1.1,9.1-1.5C805.5,836,806.9,833.2,808.6,830.6z"/>
	
		<linearGradient id="SVGID_14_" gradientUnits="userSpaceOnUse" x1="403.6717" y1="348.9961" x2="463.5096" y2="348.9961" gradientTransform="matrix(1 0 0 -1 0 1202.2461)">
		<stop  offset="0" style="stop-color:#DB61A0"/>
		<stop  offset="1" style="stop-color:#C41A7D"/>
	</linearGradient>
	<path class="st18" d="M433.8,827.2c3.8,5.3,6.7,11.3,10.5,16.6c6.7,0.8,12.7,2.2,19.2,3.2c0.3,2.2-3.8,4.5-6.1,6.7
		c-2.5,2.4-4.7,5.2-7,7.1c0.3,6.6,1.8,12,2.2,18.5c-6.7-2.1-12.2-5.3-18.8-7.5c-6.5,2.3-12,5.4-18.8,7.5c1-5.8,1.4-12.2,2.6-17.8
		c-4-5.5-10-9.1-14-14.6c6.8-0.9,12.8-2.4,19.6-3.2C427.3,838.7,430.2,832.6,433.8,827.2z"/>
	<g>
		
			<linearGradient id="SVGID_15_" gradientUnits="userSpaceOnUse" x1="162.4167" y1="279.25" x2="454.8527" y2="279.25" gradientTransform="matrix(1 0 0 1 0 176)">
			<stop  offset="0.1472" style="stop-color:#BBCE53"/>
			<stop  offset="1" style="stop-color:#6F9F4F"/>
		</linearGradient>
		<path class="st19" d="M451.3,423.3c17.6,78.8-31.9,157-110.7,174.6c-78.8,17.7-157-31.9-174.6-110.7
			c-17.7-78.8,31.9-157,110.7-174.6C355.5,294.9,433.7,344.5,451.3,423.3z"/>
	</g>
	<g>
		<circle class="st20" cx="1043.2" cy="349.3" r="95.1"/>
		<path class="st6" d="M1081.7,330.3L1081.7,330.3l-19.4-19.5c-2.7-2.7-7-2.7-9.7,0l0,0l0,0l-16.3,16.3v58.5l45.4-45.5
			C1084.4,337.3,1084.4,333,1081.7,330.3z M1091.4,363.1h-23l-40.2,40.2c-0.4,0.4-1,0.8-1.4,1.2h64.7c3.8,0,6.9-3.1,6.9-6.9V370
			C1098.3,366.2,1095.3,363.1,1091.4,363.1z M1029.4,301c0-3.8-3.1-6.9-6.9-6.9h-27.6c-3.8,0-6.9,3.1-6.9,6.9v82.8
			c0,11.4,9.3,20.7,20.7,20.7s20.7-9.3,20.7-20.7V301z M1008.7,389c-2.9,0-5.2-2.3-5.2-5.2s2.3-5.2,5.2-5.2s5.2,2.3,5.2,5.2
			S1011.5,389,1008.7,389z M1015.6,349.3h-13.8v-13.8h13.8V349.3z M1015.6,321.7h-13.8v-13.8h13.8V321.7z"/>
	</g>
	<g>
		<polyline class="st21" points="737.9,451.5 520,451.5 470.9,499.7 470.9,790.9 737.9,790.9 		"/>
		<polyline class="st6" points="733.6,448.1 515.7,448.1 466.6,496.2 466.6,787.5 733.6,787.5 		"/>
		<g>
			<g>
				<g>
					<polygon class="st22" points="515.7,496.2 515.7,447.8 467.2,496.2 					"/>
				</g>
			</g>
		</g>
		<g>
			<g>
				<g>
					<g>
						<rect x="515.7" y="587.1" class="st23" width="169.7" height="6.1"/>
					</g>
				</g>
			</g>
			<g>
				<g>
					<g>
						<rect x="515.7" y="635.6" class="st23" width="169.7" height="6.1"/>
					</g>
				</g>
			</g>
			<g>
				<g>
					<g>
						<rect x="515.7" y="611.4" class="st23" width="169.7" height="6.1"/>
					</g>
				</g>
			</g>
			<g>
				<g>
					<g>
						<rect x="515.7" y="659.8" class="st23" width="169.7" height="6.1"/>
					</g>
				</g>
			</g>
			<g>
				<g>
					<g>
						<rect x="515.7" y="599.2" class="st23" width="169.7" height="6.1"/>
					</g>
				</g>
			</g>
			<g>
				<g>
					<g>
						<rect x="515.7" y="647.7" class="st23" width="169.7" height="6.1"/>
					</g>
				</g>
			</g>
			<g>
				<g>
					<g>
						<rect x="515.7" y="623.5" class="st23" width="169.7" height="6.1"/>
					</g>
				</g>
			</g>
			<g>
				<g>
					<g>
						<rect x="515.7" y="684.1" class="st23" width="97" height="6.1"/>
					</g>
				</g>
			</g>
		</g>
		<g>
			<g>
				<g>
					<rect x="612.6" y="541.7" class="st23" width="72.7" height="6.1"/>
				</g>
			</g>
		</g>
	</g>
	<g>
		<g>
			<g>
				<g>
					<g>
						<rect x="217" y="384.8" class="st6" width="149" height="145.2"/>
					</g>
				</g>
			</g>
			<g>
				<g>
					<g>
						<rect x="365.9" y="384.8" class="st22" width="18.1" height="145.1"/>
					</g>
				</g>
			</g>
			<g>
				<g>
					<g>
						<path class="st23" d="M255.4,397.3c-6.9,0-12.5-5.6-12.5-12.5s5.6-12.5,12.5-12.5s12.5,5.6,12.5,12.5h-6.6
							c0-3.3-2.6-5.9-5.9-5.9c-3.3,0-5.9,2.6-5.9,5.9s2.6,5.9,5.9,5.9V397.3z"/>
					</g>
				</g>
			</g>
			<g>
				<g>
					<g>
						<path class="st23" d="M292,397.3c-6.9,0-12.5-5.6-12.5-12.5s5.6-12.5,12.5-12.5s12.5,5.6,12.5,12.5h-6.6
							c0-3.3-2.6-5.9-5.9-5.9s-5.9,2.6-5.9,5.9s2.6,5.9,5.9,5.9V397.3z"/>
					</g>
				</g>
			</g>
			<g>
				<g>
					<g>
						<path class="st23" d="M329.1,397.3c-6.9,0-12.5-5.6-12.5-12.5s5.6-12.5,12.5-12.5s12.5,5.6,12.5,12.5H335
							c0-3.3-2.6-5.9-5.9-5.9s-5.9,2.6-5.9,5.9s2.7,5.9,5.9,5.9V397.3z"/>
					</g>
				</g>
			</g>
			<g>
				<g>
					<g>
						<g>
							<rect x="240.1" y="429.4" class="st23" width="102.4" height="7"/>
						</g>
					</g>
				</g>
				<g>
					<g>
						<g>
							<rect x="240.1" y="485.8" class="st23" width="69.4" height="7"/>
						</g>
					</g>
				</g>
				<g>
					<g>
						<g>
							<rect x="240.1" y="457.6" class="st23" width="102.4" height="7"/>
						</g>
					</g>
				</g>
				<g>
					<g>
						<g>
							<rect x="240.1" y="443.5" class="st23" width="102.4" height="7"/>
						</g>
					</g>
				</g>
				<g>
					<g>
						<g>
							<rect x="240.1" y="471.7" class="st23" width="102.4" height="7"/>
						</g>
					</g>
				</g>
			</g>
		</g>
	</g>
	
		<linearGradient id="SVGID_16_" gradientUnits="userSpaceOnUse" x1="777.9" y1="455.8" x2="1084.7001" y2="455.8" gradientTransform="matrix(1 0 0 1 0 176)">
		<stop  offset="0.1472" style="stop-color:#3EBBD2"/>
		<stop  offset="1" style="stop-color:#117BA7"/>
	</linearGradient>
	<path class="st24" d="M1069.3,509.1H854.5c-8.5,0-15.3,6.9-15.3,15.3v46h76.7v-30.7h92.1v153.4h61.4c8.5,0,15.3-6.9,15.3-15.3
		V524.4C1084.7,516,1077.8,509.1,1069.3,509.1z M889,558.5c0,2.4-1.9,4.3-4.3,4.3l0,0h-14.4c-2.4,0-4.3-1.9-4.3-4.3l0,0v-14.4
		c0-2.4,1.9-4.3,4.3-4.3h14.4c2.4,0,4.3,1.9,4.3,4.3V558.5z M1057.8,658.2c0,2.4-1.9,4.3-4.3,4.3h-14.4c-2.4,0-4.3-1.9-4.3-4.3
		v-14.4c0-2.4,1.9-4.3,4.3-4.3h14.4c2.4,0,4.3,1.9,4.3,4.3V658.2z M1057.8,608.3c0,2.4-1.9,4.3-4.3,4.3h-14.4
		c-2.4,0-4.3-1.9-4.3-4.3V594c0-2.4,1.9-4.3,4.3-4.3h14.4c2.4,0,4.3,1.9,4.3,4.3V608.3z M1057.8,558.5c0,2.4-1.9,4.3-4.3,4.3l0,0
		h-14.4c-2.4,0-4.3-1.9-4.3-4.3l0,0v-14.4c0-2.4,1.9-4.3,4.3-4.3h14.4c2.4,0,4.3,1.9,4.3,4.3V558.5z M977.3,585.8H793.2
		c-8.5,0-15.3,6.9-15.3,15.3v138.1c0,8.5,6.9,15.3,15.3,15.3h184.1c8.5,0,15.3-6.9,15.3-15.3V601.1
		C992.6,592.7,985.7,585.8,977.3,585.8z M823.8,616.5c8.5,0,15.3,6.9,15.3,15.3s-6.9,15.3-15.3,15.3s-15.3-6.9-15.3-15.3
		S815.4,616.5,823.8,616.5z M961.9,723.9H808.5v-15.3l30.7-30.7l15.3,15.3l61.4-61.4l46,46V723.9z"/>
	<text transform="matrix(1 0 0 1 265.8994 275.732)" class="st21 st25 st26">YOUR NAME</text>
	
		<linearGradient id="SVGID_17_" gradientUnits="userSpaceOnUse" x1="877.4999" y1="253.45" x2="1002.7" y2="253.45" gradientTransform="matrix(1 0 0 1 0 176)">
		<stop  offset="0" style="stop-color:#96D6F7"/>
		<stop  offset="1" style="stop-color:#00B0E8"/>
	</linearGradient>
	<path class="st27" d="M913.3,408.7c0-8.9,7-16.1,15.6-16.1h38v-20.7c0-3.8-3-6.9-6.7-6.9h-22.5c-3.1-5.5-8.9-9.2-15.5-9.2
		s-12.4,3.7-15.5,9.2h-22.5c-3.7,0-6.7,3.1-6.7,6.9v96.8c0,3.8,3,6.9,6.7,6.9h29v-66.9H913.3z M922.2,367.2c3.7,0,6.7,3.1,6.7,6.9
		s-3,6.9-6.7,6.9s-6.7-3.1-6.7-6.9S918.5,367.2,922.2,367.2z M973.6,438.6h29v57.6c0,3.8-3,6.9-6.7,6.9h-67c-3.7,0-6.7-3.1-6.7-6.9
		v-87.6c0-3.8,3-6.9,6.7-6.9h38v30C966.9,435.5,969.9,438.6,973.6,438.6z M1002.7,427.7v1.7h-26.8v-27.7h1.7c1.8,0,3.5,0.7,4.7,2
		l18.4,19C1002,424.1,1002.7,425.8,1002.7,427.7z"/>
	
		<linearGradient id="SVGID_18_" gradientUnits="userSpaceOnUse" x1="788.3585" y1="405.1328" x2="841.9585" y2="405.1328" gradientTransform="matrix(1 0 0 -1 0 1202.2461)">
		<stop  offset="0" style="stop-color:#D50951"/>
		<stop  offset="1" style="stop-color:#A4135F"/>
	</linearGradient>
	<path class="st28" d="M838.5,811.9c-3.4-4.2-13.6-6.2-14.3-9c-0.2-0.7-0.8-1.7-0.6-2.9c0.1-0.6,0.2-1.1,0.3-1.7
		c7,0.6,10.9,1.9,10.9,1.9s-5.5-2.3-6.3-15.2c0.1-1.7,0.2-3.9,0.2-6.6c0-5.4-4-8.1-6.2-8.8c-1.6-0.7-3.3-0.9-5.1-0.7
		c-1.6,0-3.3,0.3-5.1,1c-4,1.6-4.1,5.3-4.4,7.7c-0.2,1-0.3,2.6-0.4,4.1c-2,11.3-8.6,16.4-8.6,16.4s4.2,0,10.9,0
		c0.1,1,0.1,1.9-0.1,2.4c-0.9,2.3-7.8,4.4-12.8,7.8c-6.4,2.8-8.4,13.2-8.4,13.2l53.6,3.9C842,825.4,841.8,816.2,838.5,811.9z"/>
	
		<linearGradient id="SVGID_19_" gradientUnits="userSpaceOnUse" x1="-290.2213" y1="76.5009" x2="-193.6801" y2="76.5009" gradientTransform="matrix(0.9656 -0.2601 0.2601 0.9656 574.9205 666.0919)">
		<stop  offset="0" style="stop-color:#B51F6A"/>
		<stop  offset="1" style="stop-color:#5E2E80"/>
	</linearGradient>
	<path class="st29" d="M413.4,811c0,0-2.5-7-6.1-9.2c-3.5-2.3-11.4-1.2-12.6-3c-0.3-0.5-1-1.1-1.2-2c-0.6-2.6-0.1-6-0.1-6
		s0.7-0.7,1-1.8s-0.3-2.5-0.3-2.5s-0.5-0.2-0.5-0.7c-0.1-1.2-0.1-3.7-1.1-6.5c-1.4-4-5.8-4.8-7.6-4.8c-1.8,0.1-4.7,0.6-7.2,2.8
		s-2.3,5.1-2,7s2.4,6,2.4,6s-0.7,0.4-0.2,1.9c0.6,1.5,2.2,2,2.2,2s3.6,4.4,3.6,6.4c0,1.9-4.1,5-6.9,8.5c-3.6-0.5-7.2-0.7-8.1-2.1
		c-0.4-0.6-1.2-1.4-1.4-2.5c-0.8-3.3-0.4-7.5-0.4-7.5s0.8-0.8,1.1-2.2c0.3-1.4-0.5-3.1-0.5-3.1s-0.5-0.2-0.6-0.9
		c-0.2-1.5-0.2-4.6-1.4-8.2c-1.7-5.1-6.8-6.2-8.8-6.2s-5.4,0.6-8.1,3.3c-2.8,2.7-2.5,6.4-2.1,8.7c0.5,2.3,2.9,7.6,2.9,7.6
		s-0.8,0.5-0.1,2.4c0.7,1.9,2.6,2.6,2.6,2.6s4.2,5.7,4.3,8.1c0,1.5-1.9,3.7-4.1,6.2c-3.9-1.1-9.5-0.6-10.5-2.2c-0.3-0.5-1-1.1-1.2-2
		c-0.6-2.6-0.1-6-0.1-6s0.7-0.7,1-1.8s-0.3-2.5-0.3-2.5s-0.5-0.2-0.5-0.7c-0.2-1.2-0.1-3.7-1.1-6.5c-1.4-4-5.8-4.8-7.6-4.7
		c-1.8,0-4.7,0.6-7.2,2.8s-2.3,5.1-2,7s2.4,6,2.4,6s-0.8,0.4-0.2,1.9s2.2,2,2.2,2s3.6,4.4,3.6,6.4c0,1.9-4.5,5.2-7.2,9
		c-3.9,3.7-2.6,12.1-2.6,12.1l24.7-6.7c-0.1,3.2,0.3,5.7,0.3,5.7l45.1-12.1c0,0-0.9-2.5-2.3-5.2L413.4,811L413.4,811L413.4,811z"/>
	<g>
		
			<linearGradient id="SVGID_20_" gradientUnits="userSpaceOnUse" x1="-203.3198" y1="-562.1205" x2="-159.8496" y2="-562.1205" gradientTransform="matrix(1 0 0 1 652.8198 743.8705)">
			<stop  offset="1.840000e-02" style="stop-color:#D3D800"/>
			<stop  offset="1" style="stop-color:#81AD20"/>
		</linearGradient>
		<path class="st30" d="M476.2,172.1v-17h-25.8c-0.5,0-0.9,0.4-0.9,0.9v51.5c0,0.5,0.4,0.9,0.9,0.9H492c0.5,0,0.9-0.4,0.9-0.9v-35.4
			H476.2L476.2,172.1z"/>
		
			<linearGradient id="SVGID_21_" gradientUnits="userSpaceOnUse" x1="-173.578" y1="-582.1705" x2="-159.9459" y2="-582.1705" gradientTransform="matrix(1 0 0 1 652.8198 743.8705)">
			<stop  offset="1.840000e-02" style="stop-color:#D3D800"/>
			<stop  offset="1" style="stop-color:#81AD20"/>
		</linearGradient>
		<polygon class="st31" points="492.9,168.6 479.2,168.6 479.2,154.8 		"/>
	</g>
	
		<linearGradient id="SVGID_22_" gradientUnits="userSpaceOnUse" x1="1021.5001" y1="468.4461" x2="1064.7302" y2="468.4461" gradientTransform="matrix(1 0 0 -1 0 1202.2461)">
		<stop  offset="0.1472" style="stop-color:#3EBBD2"/>
		<stop  offset="1" style="stop-color:#117BA7"/>
	</linearGradient>
	<path class="st32" d="M1043.3,715c2.7,3.8,4.8,8.2,7.6,12c4.8,0.6,9.2,1.6,13.9,2.3c0.2,1.6-2.8,3.2-4.4,4.8
		c-1.8,1.8-3.4,3.7-5.1,5.1c0.2,4.8,1.3,8.7,1.6,13.4c-4.8-1.5-8.8-3.8-13.6-5.4c-4.7,1.6-8.7,3.9-13.6,5.4c0.7-4.2,1-8.8,1.9-12.8
		c-2.9-3.9-7.2-6.6-10.1-10.5c4.9-0.6,9.3-1.7,14.2-2.3C1038.6,723.3,1040.7,718.9,1043.3,715z"/>
	
		<linearGradient id="SVGID_23_" gradientUnits="userSpaceOnUse" x1="1046.0461" y1="421.3461" x2="1073.8859" y2="421.3461" gradientTransform="matrix(1 0 0 -1 0 1202.2461)">
		<stop  offset="0.1472" style="stop-color:#3EBBD2"/>
		<stop  offset="1" style="stop-color:#117BA7"/>
	</linearGradient>
	<path class="st33" d="M1060.1,768.8c1.8,2.5,3.1,5.3,4.9,7.7c3.1,0.4,5.9,1,8.9,1.5c0.1,1-1.8,2.1-2.8,3.1
		c-1.2,1.1-2.2,2.4-3.3,3.3c0.1,3.1,0.8,5.6,1,8.6c-3.1-1-5.7-2.5-8.7-3.5c-3,1.1-5.6,2.5-8.7,3.5c0.5-2.7,0.6-5.7,1.2-8.3
		c-1.9-2.5-4.6-4.2-6.5-6.8c3.1-0.4,6-1.1,9.1-1.5C1057,774.2,1058.4,771.4,1060.1,768.8z"/>
	
		<linearGradient id="SVGID_24_" gradientUnits="userSpaceOnUse" x1="973.5629" y1="421.2961" x2="1033.4008" y2="421.2961" gradientTransform="matrix(1 0 0 -1 0 1202.2461)">
		<stop  offset="0.1472" style="stop-color:#3EBBD2"/>
		<stop  offset="1" style="stop-color:#117BA7"/>
	</linearGradient>
	<path class="st34" d="M1003.7,754.9c3.8,5.3,6.7,11.3,10.5,16.6c6.7,0.8,12.7,2.2,19.2,3.2c0.3,2.2-3.8,4.5-6.1,6.7
		c-2.5,2.4-4.7,5.2-7,7.1c0.3,6.6,1.8,12,2.2,18.5c-6.7-2.1-12.2-5.3-18.8-7.5c-6.5,2.3-12,5.4-18.8,7.5c1-5.8,1.4-12.2,2.6-17.8
		c-4-5.5-10-9.1-14-14.6c6.8-0.9,12.8-2.4,19.6-3.2C997.2,766.4,1000.1,760.3,1003.7,754.9z"/>
	
		<linearGradient id="SVGID_25_" gradientUnits="userSpaceOnUse" x1="505.6876" y1="1099.0961" x2="565.5255" y2="1099.0961" gradientTransform="matrix(1 0 0 -1 0 1202.2461)">
		<stop  offset="0" style="stop-color:#FFD949"/>
		<stop  offset="1" style="stop-color:#F99F40"/>
	</linearGradient>
	<path class="st35" d="M535.8,77.1c3.8,5.3,6.7,11.3,10.5,16.6c6.7,0.8,12.7,2.2,19.2,3.2c0.3,2.2-3.8,4.5-6.1,6.7
		c-2.5,2.4-4.7,5.2-7,7.1c0.3,6.6,1.8,12,2.2,18.5c-6.7-2.1-12.2-5.3-18.8-7.5c-6.5,2.3-12,5.4-18.8,7.5c1-5.8,1.4-12.2,2.6-17.8
		c-4-5.5-10-9.1-14-14.6c6.8-0.9,12.8-2.4,19.6-3.2C529.3,88.5,532.2,82.5,535.8,77.1z"/>
	
		<linearGradient id="SVGID_26_" gradientUnits="userSpaceOnUse" x1="448.5" y1="1135.546" x2="476.3397" y2="1135.546" gradientTransform="matrix(1 0 0 -1 0 1202.2461)">
		<stop  offset="0" style="stop-color:#FFD949"/>
		<stop  offset="1" style="stop-color:#F99F40"/>
	</linearGradient>
	<path class="st36" d="M462.5,54.6c1.8,2.5,3.1,5.3,4.9,7.7c3.1,0.4,5.9,1,8.9,1.5c0.1,1-1.8,2.1-2.8,3.1c-1.2,1.1-2.2,2.4-3.3,3.3
		c0.1,3.1,0.8,5.6,1,8.6c-3.1-1-5.7-2.5-8.7-3.5c-3,1.1-5.6,2.5-8.7,3.5c0.5-2.7,0.6-5.7,1.2-8.3c-1.9-2.5-4.6-4.2-6.5-6.8
		c3.1-0.4,6-1.1,9.1-1.5C459.5,60,460.9,57.2,462.5,54.6z"/>
	
		<linearGradient id="SVGID_27_" gradientUnits="userSpaceOnUse" x1="760.9624" y1="993.7961" x2="820.8004" y2="993.7961" gradientTransform="matrix(1 0 0 -1 0 1202.2461)">
		<stop  offset="0" style="stop-color:#FFD949"/>
		<stop  offset="1" style="stop-color:#F99F40"/>
	</linearGradient>
	<path class="st37" d="M791.1,182.4c3.8,5.3,6.7,11.3,10.5,16.6c6.7,0.8,12.7,2.2,19.2,3.2c0.3,2.2-3.8,4.5-6.1,6.7
		c-2.5,2.4-4.7,5.2-7,7.1c0.3,6.6,1.8,12,2.2,18.5c-6.7-2.1-12.2-5.3-18.8-7.5c-6.5,2.3-12,5.4-18.8,7.5c1-5.8,1.4-12.2,2.6-17.8
		c-4-5.5-10-9.1-14-14.6c6.8-0.9,12.8-2.4,19.6-3.2C784.6,193.8,787.5,187.8,791.1,182.4z"/>
	
		<linearGradient id="SVGID_28_" gradientUnits="userSpaceOnUse" x1="747.0425" y1="1093.7461" x2="774.8823" y2="1093.7461" gradientTransform="matrix(1 0 0 -1 0 1202.2461)">
		<stop  offset="0" style="stop-color:#FFD949"/>
		<stop  offset="1" style="stop-color:#F99F40"/>
	</linearGradient>
	<path class="st38" d="M761.1,96.4c1.8,2.5,3.1,5.3,4.9,7.7c3.1,0.4,5.9,1,8.9,1.5c0.1,1-1.8,2.1-2.8,3.1c-1.2,1.1-2.2,2.4-3.3,3.3
		c0.1,3.1,0.8,5.6,1,8.6c-3.1-1-5.7-2.5-8.7-3.5c-3,1.1-5.6,2.5-8.7,3.5c0.5-2.7,0.6-5.7,1.2-8.3c-1.9-2.5-4.6-4.2-6.5-6.8
		c3.1-0.4,6-1.1,9.1-1.5C758,101.8,759.4,98.9,761.1,96.4z"/>
	
		<linearGradient id="SVGID_29_" gradientUnits="userSpaceOnUse" x1="815.3287" y1="1058.046" x2="843.1685" y2="1058.046" gradientTransform="matrix(1 0 0 -1 0 1202.2461)">
		<stop  offset="0" style="stop-color:#FFD949"/>
		<stop  offset="1" style="stop-color:#F99F40"/>
	</linearGradient>
	<path class="st39" d="M829.3,132.1c1.8,2.5,3.1,5.3,4.9,7.7c3.1,0.4,5.9,1,8.9,1.5c0.1,1-1.8,2.1-2.8,3.1c-1.2,1.1-2.2,2.4-3.3,3.3
		c0.1,3.1,0.8,5.6,1,8.6c-3.1-1-5.7-2.5-8.7-3.5c-3,1.1-5.6,2.5-8.7,3.5c0.5-2.7,0.6-5.7,1.2-8.3c-1.9-2.5-4.6-4.2-6.5-6.8
		c3.1-0.4,6-1.1,9.1-1.5C826.3,137.4,827.7,134.6,829.3,132.1z"/>
	
		<linearGradient id="SVGID_30_" gradientUnits="userSpaceOnUse" x1="454.9" y1="1085.296" x2="491.3113" y2="1085.296" gradientTransform="matrix(1 0 0 -1 0 1202.2461)">
		<stop  offset="0" style="stop-color:#FFD949"/>
		<stop  offset="1" style="stop-color:#F99F40"/>
	</linearGradient>
	<path class="st40" d="M473.2,101.1c2.3,3.2,4.1,6.9,6.4,10.1c4.1,0.5,7.7,1.3,11.7,1.9c0.2,1.4-2.3,2.7-3.7,4.1
		c-1.5,1.5-2.9,3.2-4.3,4.3c0.2,4,1.1,7.3,1.3,11.3c-4.1-1.3-7.4-3.2-11.4-4.6c-4,1.4-7.3,3.3-11.4,4.6c0.6-3.5,0.8-7.4,1.6-10.8
		c-2.4-3.3-6.1-5.5-8.5-8.9c4.1-0.5,7.8-1.4,12-1.9C469.3,108,471,104.4,473.2,101.1z"/>
</g>
<g>
	<path class="st41" d="M648.7,470.4c6.1,0,9.9-8,18.6-8s14.1,5.4,14.1,14.2c0,6.1-6.8,26.4-17.5,26.4c-11.5,0-29-24.3-39.6-25
		c-7.1-0.5-5.2,9.2-5.7,15.5c-1.9-3-3.6-14.1-3.6-16.1c0-7.5,2.6-14.9,13.4-14.9C634.4,462.4,642.6,470.4,648.7,470.4z"/>
	<path class="st42" d="M661.2,514c2.1,0,6.4-2.8,11.1-8c-4,6.4-10.4,26.2-17.7,29c-3.5-0.9,0-20.3-7.5-20.3c-2.1,0-3.3,0.7-4,2.8
		c-2.1,4.7-0.7,17.7-3.3,17.7c-9.4-4.7-17.5-30.6-17.5-39.2c0-3.5,0.3-4.5,3.3-4.7C635.6,490.4,649.2,514,661.2,514z"/>
</g>
<g>
	<path class="st41" d="M336.2,494c2.9,0,4.8-3.6,9.2-3.6c4.3,0,6.9,2.4,6.9,6.5c0,2.8-3.4,12-8.7,12c-5.6,0-14.2-11-19.5-11.3
		c-3.5-0.3-2.6,4.2-2.8,7c-0.9-1.3-1.8-6.3-1.8-7.3c0-3.4,1.3-6.7,6.6-6.7C329.1,490.4,333.1,494,336.2,494z"/>
	<path class="st42" d="M342.3,513.8c1,0,3.1-1.2,5.4-3.6c-2.1,3-5.1,11.8-8.8,13.2c-1.8-0.4,0-9.1-3.7-9.1c-1,0-1.6,0.3-2.1,1.2
		c-1,2.2-0.3,7.9-1.6,7.9c-4.7-2.2-8.7-13.9-8.7-17.8c0-1.5,0.1-2,1.6-2.2C329.7,503,336.3,513.8,342.3,513.8z"/>
</g>
<g>
	<path class="st41" d="M329.9,216.6c3.5,0,5.7-4.6,10.7-4.6s8.1,3.1,8.1,8.2c0,3.5-3.9,15.2-10.1,15.2c-6.6,0-16.7-14-22.8-14.4
		c-4.1-0.3-3,5.3-3.3,8.9c-1.1-1.7-2.1-8.1-2.1-9.3c0-4.3,1.5-8.6,7.7-8.6C321.7,212,326.5,216.6,329.9,216.6z"/>
	<path class="st42" d="M337.2,241.7c1.2,0,3.7-1.6,6.4-4.6c-2.3,3.7-6,15.1-10.2,16.7c-2-0.5,0-11.7-4.3-11.7
		c-1.2,0-1.9,0.4-2.3,1.6c-1.2,2.7-0.4,10.2-1.9,10.2c-5.4-2.7-10.1-17.6-10.1-22.6c0-2,0.2-2.6,1.9-2.7
		C322.5,228.1,330.2,241.7,337.2,241.7z"/>
</g>
<g>
	<path class="st41" d="M276.8,633.6c13.7,0,22.5-18.2,42.4-18.2s32.1,12.3,32.1,32.3c0,13.8-15.2,60.1-39.7,60.1
		c-26,0-65.7-55.3-90.1-57.1c-16.1-1.2-11.8,20.9-13,35c-4.2-6.6-8.4-32-8.4-36.6c0-17,6.1-33.9,30.6-33.9
		C244.3,615.5,263.1,633.6,276.8,633.6z"/>
	<path class="st42" d="M305.4,732.7c4.6,0,14.5-6.2,25.2-18.2c-9.1,14.6-23.7,59.8-40.4,65.9c-8.1-1.9,0-46.3-16.8-46.3
		c-4.6,0-7.6,1.5-9.1,6.2c-4.6,10.8-1.5,40.1-7.6,40.1c-21.4-10.8-39.7-69.4-39.7-89.4c0-7.7,0.8-10.4,7.6-10.8
		C247.3,678.9,277.9,732.7,305.4,732.7z"/>
</g>
</svg>
