<?xml version="1.0" encoding="utf-8"?>
<!-- Generator: Adobe Illustrator 23.0.6, SVG Export Plug-In . SVG Version: 6.00 Build 0)  -->
<svg version="1.1" xmlns="http://www.w3.org/2000/svg" xmlns:xlink="http://www.w3.org/1999/xlink" x="0px" y="0px"
	 viewBox="0 0 1247.2 1020.5" style="enable-background:new 0 0 1247.2 1020.5;" xml:space="preserve">
<style type="text/css">
	.st0{opacity:0.43;fill:url(#ombre_1_);enable-background:new    ;}
	.st1{fill:#DADADA;}
	.st2{opacity:0.6;fill:#DADADA;enable-background:new    ;}
	.st3{fill:#DFDFDF;}
	.st4{fill:#2470B0;}
	.st5{fill:url(#SVGID_1_);}
	.st6{opacity:0.7;fill:url(#SVGID_2_);enable-background:new    ;}
	.st7{fill:url(#SVGID_3_);}
	.st8{fill:url(#SVGID_4_);}
	.st9{fill:url(#SVGID_5_);}
	.st10{fill:url(#SVGID_6_);}
	.st11{fill:#FFFFFF;}
	.st12{fill:url(#SVGID_7_);}
	.st13{fill:url(#SVGID_8_);}
	.st14{fill:url(#SVGID_9_);}
	.st15{fill:url(#SVGID_10_);}
	.st16{fill:url(#SVGID_11_);}
	.st17{fill:#F1F2F2;}
	.st18{fill:url(#SVGID_12_);}
	.st19{fill:url(#SVGID_13_);}
	.st20{opacity:0.3;fill:#7C7C7C;enable-background:new    ;}
	.st21{fill:#939598;}
	.st22{fill:url(#ring4_1_);}
	.st23{fill:url(#ring2_1_);}
	.st24{fill:#333333;}
	.st25{fill:url(#arrowMain_1_);}
	.st26{fill:url(#SVGID_14_);}
	.st27{fill:url(#SVGID_15_);}
	.st28{fill:url(#SVGID_16_);}
	.st29{fill:url(#SVGID_17_);}
	.st30{fill:url(#SVGID_18_);}
	.st31{fill:#E58553;}
	.st32{fill:#E6E7E8;}
	.st33{fill:url(#SVGID_19_);}
	.st34{fill:#AC643E;}
	.st35{fill:url(#SVGID_20_);}
	.st36{fill:url(#SVGID_21_);}
	.st37{fill:url(#SVGID_22_);}
</style>
<g id="Layer_1">
	
		<radialGradient id="ombre_1_" cx="1266.7465" cy="308.6864" r="41.2922" gradientTransform="matrix(16.513 0 0 -1.6794 -20265.6797 1410.5117)" gradientUnits="userSpaceOnUse">
		<stop  offset="0" style="stop-color:#1D1D1B"/>
		<stop  offset="0.9325" style="stop-color:#FFFFFF;stop-opacity:0"/>
	</radialGradient>
	<path id="ombre" class="st0" d="M652.1,820.8c365.6,0,662,31.9,662,71.3c0,39.4-296.4,71.3-662,71.3s-662-31.9-662-71.3
		C-9.9,852.7,286.5,820.8,652.1,820.8z"/>
	<g>
		<g>
			<path class="st1" d="M1142.5,736c3.8,59.1-59.1,112.5-114.2,133.5c-150.6,57.6-475.4-81.2-725.5-310
				C121.8,393.9,29.5,226.6,49.4,125c-31,102.5,62.6,280,254.2,455.2C558.7,813.6,891,954.7,1045.8,895.5
				c62.6-23.9,125.4-85.8,114.9-156C1151.8,680,1138.8,679.3,1142.5,736z"/>
			<path class="st1" d="M270.4,56.8c-80.4,12.6-111.8,61.8-95.9,129.1c-23.3-72.4,5.8-126.2,89.5-139.3
				C387.9,27.2,589.7,103.4,743.2,222C587.5,108.7,392.2,37.8,270.4,56.8z"/>
			<path class="st2" d="M807.3,231.9c140.4,114.9,244.5,228.2,292.9,311.6c-8.8-61.8-107.8-181.8-258.1-304.8
				c-116.6-95.5-237.4-170.9-327.9-209C605.8,81,708,150.6,807.3,231.9z"/>
		</g>
		<path class="st3" d="M968,972.4c-198.2,14.5-425.2-71.7-511.2-191.3c2.2,4,4.5,8.1,7.1,12.2c77.8,123.8,306.1,212.1,509.9,197.1
			c197.5-14.5,255-123.9,217.1-244.9C1209.4,866.5,1153,958.8,968,972.4z"/>
	</g>
	<circle class="st4" cx="962.6" cy="494" r="95.1"/>
	<g>
		<linearGradient id="SVGID_1_" gradientUnits="userSpaceOnUse" x1="250.1739" y1="186.9974" x2="446.3666" y2="186.9974">
			<stop  offset="0" style="stop-color:#9FCB56"/>
			<stop  offset="1" style="stop-color:#50A454"/>
		</linearGradient>
		<path class="st5" d="M444,165.6c11.8,52.9-21.4,105.3-74.3,117.1c-52.9,11.8-105.3-21.4-117.2-74.3
			c-11.8-52.9,21.4-105.3,74.3-117.2C379.7,79.4,432.1,112.7,444,165.6z"/>
	</g>
	
		<radialGradient id="SVGID_2_" cx="467.6393" cy="-14317.9756" r="56.6023" gradientTransform="matrix(0.6804 -0.1374 1.410000e-02 8.790000e-02 108.91 1625.5876)" gradientUnits="userSpaceOnUse">
		<stop  offset="7.980000e-02" style="stop-color:#A1A1A1"/>
		<stop  offset="0.7239" style="stop-color:#FFFFFF;stop-opacity:0"/>
	</radialGradient>
	<path class="st6" d="M233.8,307.8c0,0,3.4-0.1-3.7,1.1c-7.1,1.2-13.4-5.4-13.4-5.4s-1.6-11.1,3.3-3.8
		C224.9,306.9,233.8,307.8,233.8,307.8z"/>
	
		<linearGradient id="SVGID_3_" gradientUnits="userSpaceOnUse" x1="834.4123" y1="292.5914" x2="964.2289" y2="292.5914" gradientTransform="matrix(1.6707 -0.1244 -0.1112 -1.4934 -546.245 1266.709)">
		<stop  offset="0.1472" style="stop-color:#3EBBD2"/>
		<stop  offset="1" style="stop-color:#117BA7"/>
	</linearGradient>
	<path class="st7" d="M999.7,710.9c1.3-3.4,2.2-7.1,2.5-10.9c2.5-25.4-18.2-47.4-46.2-49.3c-22.8-1.5-43.3,10.8-51.5,29.1
		c-6-4.1-13.4-6.5-21.5-6.6c-20-0.2-36.7,14.2-37.2,32.2c-0.1,2.8,0.2,5.5,0.9,8.1c-16.5,2.1-29.5,15.2-29.9,31.1
		c-0.5,17.4,14.4,31.7,33.2,31.9c2.3,0,4.4-0.2,6.5-0.5l133.1,1.1c2.2,0.4,4.5,0.6,6.8,0.6c20.6,0.2,37.6-14.6,38.2-33
		C1035,726.6,1019.6,711.8,999.7,710.9z"/>
	<g>
		
			<radialGradient id="SVGID_4_" cx="1107.9858" cy="422.762" r="31.1352" gradientTransform="matrix(1 0 0 -1 0 1026.2461)" gradientUnits="userSpaceOnUse">
			<stop  offset="0" style="stop-color:#00A3E1"/>
			<stop  offset="0.2151" style="stop-color:#0098D5"/>
			<stop  offset="0.6025" style="stop-color:#007AB6"/>
			<stop  offset="1" style="stop-color:#00558F"/>
		</radialGradient>
		<polygon class="st8" points="1071.3,627.9 1144.6,627.9 1144.6,579.1 1108,603.7 1071.3,579.1 		"/>
		
			<radialGradient id="SVGID_5_" cx="1107.9858" cy="441.5835" r="27.2408" gradientTransform="matrix(1 0 0 -1 0 1026.2461)" gradientUnits="userSpaceOnUse">
			<stop  offset="0" style="stop-color:#00A3E1"/>
			<stop  offset="0.2151" style="stop-color:#0098D5"/>
			<stop  offset="0.6025" style="stop-color:#007AB6"/>
			<stop  offset="1" style="stop-color:#00558F"/>
		</radialGradient>
		<polygon class="st9" points="1071.3,572.8 1144.6,572.8 1144.6,573 1108,596.6 		"/>
	</g>
	<g>
		
			<linearGradient id="SVGID_6_" gradientUnits="userSpaceOnUse" x1="302.082" y1="768.989" x2="532.8157" y2="768.989" gradientTransform="matrix(1 0 0 -1 -102.8989 1517.4512)">
			<stop  offset="0" style="stop-color:#DB61A0"/>
			<stop  offset="1" style="stop-color:#C41A7D"/>
		</linearGradient>
		<path class="st10" d="M429.9,748.5c0,63.1-51.7,114.2-115.4,114.2c-63.7,0-115.4-51.2-115.4-114.2c0-63.1,51.6-114.2,115.4-114.2
			C378.3,634.3,429.9,685.4,429.9,748.5z"/>
		<path class="st11" d="M322.9,682.5c9.7-2,21.1-6.4,30.7-4.8c5.8,1,10,4,12.1,10.1c2.9,8.7,1,20.1-0.9,28.7
			c-4.3,20.2-9.5,24.1-6.9,47.3c1.2,11.4,3.5,22.8,2,34.4c-1.2,9.2-4.9,17.8-13.4,25.1l0,0l0,0l0,0l0,0l0,0l0,0
			c-0.1,0.1-0.2,0.2-0.3,0.3c-0.1,0.1-0.2,0.1-0.3,0.2l0,0c-0.8,0.6-1.8,1-2.7,1.2c-10.4,2.3-8.1-9-9.9-15.9
			c-1.9-7.6-6.7-43.5-19.1-43.3c-12.4-0.2-17.2,35.7-19.1,43.3c-1.8,6.9,0.5,18.2-9.9,15.9c-1-0.2-1.9-0.6-2.7-1.2l0,0
			c-0.1-0.1-0.3-0.1-0.3-0.2c-0.1-0.1-0.2-0.2-0.3-0.3l0,0l0,0l0,0l0,0l0,0l0,0c-8.6-7.3-12.2-16-13.4-25.1
			c-1.5-11.6,0.8-22.9,2-34.4c2.6-23.2-2.6-27.1-6.9-47.3c-1.9-8.6-3.8-20-0.9-28.7c2.1-6.2,6.4-9.1,12.1-10.1
			c9.5-1.6,21,2.8,30.7,4.8c4.1,0.8,6.5,1.3,8.8,1.3C316.4,683.8,318.7,683.4,322.9,682.5L322.9,682.5z"/>
	</g>
	<g>
		<linearGradient id="SVGID_7_" gradientUnits="userSpaceOnUse" x1="376.0971" y1="288.7151" x2="516.8886" y2="288.7151">
			<stop  offset="0.1472" style="stop-color:#359C53"/>
			<stop  offset="1" style="stop-color:#35834C"/>
		</linearGradient>
		<path class="st12" d="M515.2,273.3c8.5,37.9-15.4,75.6-53.3,84.1c-37.9,8.5-75.6-15.4-84.1-53.3c-8.5-37.9,15.4-75.6,53.3-84.1
			C469,211.5,506.7,235.4,515.2,273.3z"/>
	</g>
	
		<linearGradient id="SVGID_8_" gradientUnits="userSpaceOnUse" x1="389.0049" y1="-373.9433" x2="513.4577" y2="-373.9433" gradientTransform="matrix(0.9819 -0.1893 0.1893 0.9819 590.2981 666.4528)">
		<stop  offset="0" style="stop-color:#FFD949"/>
		<stop  offset="1" style="stop-color:#F99F40"/>
	</linearGradient>
	<path class="st13" d="M1023.7,202.1c6.5,33.7-15.6,66.4-49.3,72.9c-33.7,6.5-66.4-15.6-72.9-49.3c-6.5-33.7,15.6-66.4,49.3-72.9
		C984.5,146.3,1017.2,168.3,1023.7,202.1z"/>
	<g>
		<g>
			<path class="st11" d="M960.6,232.4v16.5c-4.7-1.5-8.7-6.6-11.4-13.8C952.7,233.6,956.5,232.6,960.6,232.4z"/>
			<path class="st11" d="M945.9,215.8h14.7v12.6c-4.4,0.3-8.7,1.3-12.6,2.9C946.7,226.8,945.9,221.5,945.9,215.8z"/>
			<path class="st11" d="M960.6,200.2v12.4h-14.7c0.2-5.5,1.1-10.7,2.5-15.2C952.2,199,956.3,199.9,960.6,200.2z"/>
			<path class="st11" d="M963.9,249.1v-16.8c4.3,0.1,8.4,1,12.2,2.6C973.3,242.6,968.9,247.9,963.9,249.1z"/>
			<path class="st11" d="M979.3,212.6h-15.4v-12.4c4.6-0.1,9-1,13-2.6C978.3,202.1,979.1,207.2,979.3,212.6z"/>
			<path class="st11" d="M960.6,181.3v15c-3.8-0.3-7.5-1.1-10.9-2.5C952.4,187.3,956.2,182.8,960.6,181.3z"/>
			<path class="st11" d="M963.9,196.3v-15.2c4.7,1.1,8.9,5.9,11.7,12.9C972,195.4,968,196.2,963.9,196.3z"/>
			<path class="st11" d="M977.3,231.2c-4.2-1.7-8.7-2.7-13.4-2.8v-12.6h15.5C979.3,221.4,978.6,226.6,977.3,231.2z"/>
			<path class="st11" d="M980.9,232.9c1.4-5.1,2.2-10.9,2.3-17h15.5c-0.2,8.8-3.7,16.9-9.2,23.1C986.9,236.5,984,234.5,980.9,232.9z
				"/>
			<path class="st11" d="M954.7,179.4c-3.5,2.6-6.5,7-8.7,12.6c-2.6-1.4-4.9-3.2-7-5.2C943.5,183.2,948.9,180.6,954.7,179.4z"/>
			<path class="st11" d="M942,215.8c0.1,6.2,0.9,12.1,2.3,17.2c-3.3,1.8-6.2,4-8.8,6.6c-6-6.3-9.7-14.6-9.9-23.9H942L942,215.8z"/>
			<path class="st11" d="M979.3,192.3c-2.1-5.5-5-9.9-8.3-12.5c5.7,1.4,10.8,4.1,15.1,7.8C984,189.4,981.7,190.9,979.3,192.3z"/>
			<path class="st11" d="M944.8,195.7c-1.5,5-2.5,10.7-2.7,16.8h-16.4c0.6-9,4.5-17.1,10.5-23.1C938.7,191.9,941.6,194,944.8,195.7z
				"/>
			<path class="st11" d="M983.1,212.6c-0.2-6-1.1-11.6-2.6-16.6c3-1.6,5.8-3.5,8.3-5.8c5.6,5.9,9.2,13.8,9.7,22.4H983.1L983.1,212.6
				z"/>
			<path class="st11" d="M945.6,236.9c2.1,5.8,5,10.5,8.5,13.3c-5.9-1.3-11.3-4-15.7-7.8C940.5,240.3,942.9,238.4,945.6,236.9z"/>
			<path class="st11" d="M979.7,236.6c2.5,1.4,4.9,3.1,6.9,5.1c-4.2,3.8-9.4,6.7-15.1,8.2C974.9,247,977.7,242.4,979.7,236.6z"/>
		</g>
	</g>
	
		<linearGradient id="SVGID_9_" gradientUnits="userSpaceOnUse" x1="167.23" y1="456.1208" x2="210.4601" y2="456.1208" gradientTransform="matrix(1 0 0 -1 0 1026.2461)">
		<stop  offset="0" style="stop-color:#B51F6A"/>
		<stop  offset="1" style="stop-color:#5E2E80"/>
	</linearGradient>
	<path class="st14" d="M189,551.3c2.7,3.8,4.8,8.2,7.6,12c4.8,0.6,9.2,1.6,13.9,2.3c0.2,1.6-2.8,3.2-4.4,4.8c-1.8,1.8-3.4,3.7-5,5.1
		c0.2,4.8,1.3,8.7,1.6,13.4c-4.8-1.5-8.8-3.8-13.6-5.4c-4.7,1.6-8.7,3.9-13.6,5.4c0.7-4.2,1-8.8,1.9-12.8
		c-2.9-3.9-7.2-6.6-10.1-10.5c4.9-0.6,9.3-1.7,14.2-2.3C184.3,559.6,186.4,555.2,189,551.3z"/>
	
		<linearGradient id="SVGID_10_" gradientUnits="userSpaceOnUse" x1="148.199" y1="396.8747" x2="176.0387" y2="396.8747" gradientTransform="matrix(1 0 0 -1 0 1026.2461)">
		<stop  offset="0" style="stop-color:#B51F6A"/>
		<stop  offset="1" style="stop-color:#5E2E80"/>
	</linearGradient>
	<path class="st15" d="M162.2,617.3c1.8,2.5,3.1,5.3,4.9,7.7c3.1,0.4,5.9,1,8.9,1.5c0.1,1-1.8,2.1-2.8,3.1c-1.2,1.1-2.2,2.4-3.3,3.3
		c0.1,3.1,0.8,5.6,1,8.6c-3.1-1-5.7-2.5-8.7-3.5c-3,1.1-5.6,2.5-8.7,3.5c0.5-2.7,0.6-5.7,1.2-8.3c-1.9-2.5-4.6-4.2-6.5-6.8
		c3.1-0.4,6-1.1,9.1-1.5C159.2,622.6,160.5,619.8,162.2,617.3z"/>
	
		<linearGradient id="SVGID_11_" gradientUnits="userSpaceOnUse" x1="191.0344" y1="412.4691" x2="250.8723" y2="412.4691" gradientTransform="matrix(1 0 0 -1 0 1026.2461)">
		<stop  offset="0" style="stop-color:#B51F6A"/>
		<stop  offset="1" style="stop-color:#5E2E80"/>
	</linearGradient>
	<path class="st16" d="M221.2,587.7c3.8,5.3,6.7,11.3,10.5,16.6c6.7,0.8,12.7,2.2,19.2,3.2c0.3,2.2-3.8,4.5-6.1,6.7
		c-2.5,2.4-4.7,5.2-7,7.1c0.3,6.6,1.8,12,2.2,18.5c-6.7-2.1-12.2-5.3-18.8-7.5c-6.5,2.3-12,5.4-18.8,7.5c1-5.8,1.4-12.2,2.6-17.8
		c-4-5.5-10-9.1-14-14.6c6.8-0.9,12.8-2.4,19.6-3.2C214.6,599.2,217.5,593.1,221.2,587.7z"/>
	<g>
		<g>
			<g>
				<path class="st17" d="M822.2,187.8c-0.4,0.4-0.9,0.4-1.3,0l-10-10c-0.3-0.4-0.3-0.9,0-1.3c0.4-0.4,0.9-0.4,1.3,0l10,10
					C822.5,186.9,822.5,187.5,822.2,187.8z"/>
			</g>
			<g>
				<path class="st17" d="M838.7,204.3c-0.4,0.4-0.9,0.4-1.3,0l-10-10c-0.4-0.4-0.4-0.9,0-1.3c0.3-0.4,0.9-0.4,1.3,0l10,10
					C839,203.4,839,204,838.7,204.3z"/>
			</g>
			<g>
				<path class="st17" d="M822.2,194.3l-10,10c-0.3,0.4-0.9,0.4-1.3,0c-0.3-0.3-0.3-0.9,0-1.3l10-10c0.4-0.4,0.9-0.4,1.3,0
					C822.5,193.4,822.5,193.9,822.2,194.3z"/>
			</g>
			<g>
				<path class="st17" d="M838.7,177.8l-10,10c-0.4,0.4-1,0.4-1.3,0c-0.4-0.3-0.4-0.9,0-1.3l10-10c0.4-0.3,0.9-0.3,1.3,0
					C839,176.9,839,177.5,838.7,177.8z"/>
			</g>
		</g>
		<g>
			<g>
				<path class="st17" d="M558.6,202.6c-0.3,0.3-0.7,0.3-1,0l-7.7-7.6c-0.3-0.3-0.3-0.7,0-1c0.3-0.3,0.7-0.3,1,0l7.7,7.6
					C558.9,201.9,558.9,202.3,558.6,202.6z"/>
			</g>
			<g>
				<path class="st17" d="M571.2,215.2c-0.3,0.3-0.7,0.3-1,0l-7.6-7.6c-0.3-0.3-0.3-0.7,0-1c0.3-0.3,0.7-0.3,1,0l7.6,7.6
					C571.4,214.5,571.4,214.9,571.2,215.2z"/>
			</g>
			<g>
				<path class="st17" d="M558.6,207.5l-7.7,7.6c-0.3,0.3-0.7,0.3-1,0c-0.3-0.3-0.3-0.7,0-1l7.7-7.7c0.3-0.3,0.7-0.3,1,0
					C558.9,206.8,558.9,207.3,558.6,207.5z"/>
			</g>
			<g>
				<path class="st17" d="M571.2,195l-7.6,7.6c-0.3,0.3-0.7,0.3-1,0c-0.3-0.3-0.3-0.7,0-1l7.6-7.6c0.3-0.3,0.7-0.3,1,0
					C571.4,194.2,571.4,194.7,571.2,195z"/>
			</g>
		</g>
		<g>
			<g>
				<path class="st17" d="M521,145.4c-0.4,0.4-1,0.4-1.4,0l-11.1-11.1c-0.4-0.4-0.4-1,0-1.4c0.4-0.4,1-0.4,1.4,0l11.1,11.1
					C521.4,144.3,521.4,145,521,145.4z"/>
			</g>
			<g>
				<path class="st17" d="M539.2,163.6c-0.4,0.4-1,0.4-1.4,0l-11.1-11.1c-0.4-0.4-0.4-1,0-1.4c0.4-0.4,1-0.4,1.4,0l11.1,11.1
					C539.6,162.6,539.6,163.2,539.2,163.6z"/>
			</g>
			<g>
				<path class="st17" d="M521,152.5l-11.1,11.1c-0.4,0.4-1,0.4-1.4,0c-0.4-0.4-0.4-1,0-1.4l11.1-11.1c0.4-0.4,1-0.4,1.4,0
					C521.4,151.5,521.4,152.1,521,152.5z"/>
			</g>
			<g>
				<path class="st17" d="M539.2,134.3l-11.1,11.1c-0.4,0.4-1.1,0.4-1.4,0c-0.4-0.4-0.4-1,0-1.4l11.1-11.1c0.4-0.4,1-0.4,1.4,0
					C539.6,133.3,539.6,133.9,539.2,134.3z"/>
			</g>
		</g>
		<g>
			<g>
				<path class="st17" d="M600.7,93c-0.5,0.5-1.3,0.5-1.8,0l-14-14c-0.5-0.5-0.5-1.3,0-1.8c0.5-0.5,1.3-0.5,1.8,0l14,14
					C601.2,91.7,601.2,92.5,600.7,93z"/>
			</g>
			<g>
				<path class="st17" d="M623.8,116.1c-0.5,0.5-1.3,0.5-1.8,0l-14-14c-0.5-0.5-0.5-1.3,0-1.8c0.5-0.5,1.3-0.5,1.8,0l14,14
					C624.3,114.8,624.3,115.6,623.8,116.1z"/>
			</g>
			<g>
				<path class="st17" d="M600.7,102.1l-14,14c-0.5,0.5-1.2,0.5-1.8,0c-0.5-0.5-0.5-1.3,0-1.8l14-14.1c0.5-0.5,1.3-0.5,1.8,0
					C601.2,100.8,601.2,101.6,600.7,102.1z"/>
			</g>
			<g>
				<path class="st17" d="M623.8,79l-14,14c-0.5,0.5-1.3,0.5-1.8,0c-0.5-0.5-0.5-1.3,0-1.8l14-14c0.5-0.5,1.3-0.5,1.8,0
					C624.3,77.7,624.3,78.5,623.8,79z"/>
			</g>
		</g>
		<g>
			<g>
				<path class="st17" d="M786.2,129.5c-0.5,0.5-1.3,0.5-1.8,0l-14.1-14.1c-0.5-0.5-0.5-1.3,0-1.8c0.5-0.5,1.3-0.5,1.8,0l14.1,14.1
					C786.7,128.1,786.7,129,786.2,129.5z"/>
			</g>
			<g>
				<path class="st17" d="M809.5,152.7c-0.5,0.5-1.3,0.5-1.8,0l-14.1-14.1c-0.5-0.5-0.5-1.3,0-1.8c0.5-0.5,1.3-0.5,1.8,0l14.1,14.1
					C810,151.4,810,152.2,809.5,152.7z"/>
			</g>
			<g>
				<path class="st17" d="M786.2,138.6l-14.1,14.1c-0.5,0.5-1.3,0.5-1.8,0c-0.5-0.5-0.5-1.3,0-1.8l14.1-14.1c0.5-0.5,1.3-0.5,1.8,0
					C786.7,137.3,786.7,138.1,786.2,138.6z"/>
			</g>
			<g>
				<path class="st17" d="M809.5,115.3l-14.1,14.1c-0.5,0.5-1.4,0.5-1.8,0c-0.5-0.5-0.5-1.3,0-1.8l14.1-14.1c0.5-0.5,1.3-0.5,1.8,0
					C810,114,810,114.8,809.5,115.3z"/>
			</g>
		</g>
		<g>
			<g>
				<path class="st17" d="M867.5,116.9c-0.6,0.6-1.6,0.6-2.2,0l-17.6-17.6c-0.6-0.6-0.6-1.6,0-2.2c0.7-0.6,1.6-0.6,2.2,0l17.6,17.6
					C868.1,115.3,868.1,116.3,867.5,116.9z"/>
			</g>
			<g>
				<path class="st17" d="M896.5,145.9c-0.6,0.6-1.6,0.6-2.3,0l-17.6-17.5c-0.6-0.7-0.6-1.6,0-2.3c0.6-0.6,1.6-0.6,2.3,0l17.6,17.6
					C897.1,144.2,897.1,145.3,896.5,145.9z"/>
			</g>
			<g>
				<path class="st17" d="M867.5,128.3l-17.6,17.5c-0.6,0.6-1.6,0.6-2.2,0c-0.6-0.6-0.6-1.6,0-2.2l17.6-17.6c0.6-0.6,1.6-0.6,2.2,0
					C868.1,126.7,868.1,127.7,867.5,128.3z"/>
			</g>
			<g>
				<path class="st17" d="M896.5,99.4l-17.6,17.6c-0.7,0.6-1.7,0.6-2.3,0c-0.6-0.6-0.6-1.6,0-2.2l17.6-17.6c0.7-0.6,1.7-0.6,2.3,0
					C897.1,97.7,897.1,98.7,896.5,99.4z"/>
			</g>
		</g>
		<g>
			<linearGradient id="SVGID_12_" gradientUnits="userSpaceOnUse" x1="623.5422" y1="264.2575" x2="920.8211" y2="264.2575">
				<stop  offset="0" style="stop-color:#FA933D"/>
				<stop  offset="1" style="stop-color:#E25933"/>
			</linearGradient>
			<path class="st18" d="M917.4,347.7c4.5-4.5,4.5-11.8,0-16.3L728.5,142.5c-4.5-4.5-13.3-7.6-19.6-6.9l-85.4,9l248.5,248.5
				L917.4,347.7z"/>
			<linearGradient id="SVGID_13_" gradientUnits="userSpaceOnUse" x1="577.218" y1="311.7909" x2="872.0714" y2="311.7909">
				<stop  offset="0.1472" style="stop-color:#F88038"/>
				<stop  offset="1" style="stop-color:#E7422C"/>
			</linearGradient>
			<path class="st19" d="M623.5,144.5l-22.3,2.3c-6.3,0.7-12,6.3-12.6,12.6l-11.3,107.6c-0.7,6.3,2.4,15.1,6.9,19.6l188.9,188.9
				c4.5,4.5,11.8,4.5,16.3,0l82.6-82.6L623.5,144.5z M635.7,193.9c-6.3,6.3-16.5,6.3-22.8,0c-6.3-6.3-6.3-16.5,0-22.8
				c6.3-6.3,16.5-6.3,22.8,0C641.9,177.4,641.9,187.6,635.7,193.9z"/>
			<g>
				<path class="st11" d="M721.3,248.3c1.2-4.8-0.9-12.5-6.6-18.2c-7.3-7.3-13.9-7.8-17.8-3.9c-4.6,4.5-0.4,11.2,5.1,18.2
					c9.6,12.2,16.9,25.2,4.4,37.7c-11.6,11.6-26.9,6.3-38.6-5.3c-10.7-10.7-15.6-22.2-9.9-35.6l12.5,4c-3.4,8.1,0.1,16.6,6.4,23
					c6.2,6.2,14.2,9.8,19.9,4.2c4.9-4.9,1.8-12.1-4.4-19.8c-9.4-12-16.4-24.6-4.7-36.4c10.7-10.7,25.7-4.6,35.5,5
					c8.1,8.1,14.3,18.9,10.1,30.9L721.3,248.3z"/>
				<path class="st11" d="M737.6,343.9l-39.1-39.1c17.4-17.4,34.9-34.8,52.3-52.2l39.1,39.1l-9.6,9.6L751,271.9l-12,12l28.3,28.3
					l-9.2,9.2l-28.3-28.3L718,304.9l29.3,29.3L737.6,343.9z"/>
				<path class="st11" d="M822.4,377c-13.7,13.4-35.5,18.6-53.8,0.2c-18.4-18.4-13.7-40.1,0.1-53.8c13.7-13.7,36.4-18.7,54.4-0.7
					C841.1,340.8,836.2,363.5,822.4,377z M778.2,333.3c-8.4,8.8-12.9,22.6-0.6,34.9c12.3,12.3,26.2,7.7,34.9-0.7
					c9-8.7,13.9-23.4,1.6-35.8C801.8,319.4,786.8,324.3,778.2,333.3z"/>
			</g>
		</g>
	</g>
	<g>
		<g id="ring5">
			<circle class="st20" cx="581" cy="590.1" r="132.4"/>
			<circle class="st21" cx="585.2" cy="583.4" r="132.4"/>
			<circle class="st11" cx="590.3" cy="579.1" r="132.4"/>
		</g>
		<linearGradient id="ring4_1_" gradientUnits="userSpaceOnUse" x1="486.5269" y1="579.1387" x2="693.9984" y2="579.1387">
			<stop  offset="0" style="stop-color:#B51F6A"/>
			<stop  offset="1" style="stop-color:#5E2E80"/>
		</linearGradient>
		<circle id="ring4" class="st22" cx="590.3" cy="579.1" r="103.7"/>
		<circle id="ring3" class="st11" cx="590.3" cy="579.1" r="76.7"/>
		<linearGradient id="ring2_1_" gradientUnits="userSpaceOnUse" x1="537.9731" y1="578.717" x2="642.5522" y2="578.717">
			<stop  offset="0" style="stop-color:#B51F6A"/>
			<stop  offset="1" style="stop-color:#5E2E80"/>
		</linearGradient>
		<path id="ring2" class="st23" d="M642.6,579.1c0,28.7-23.6,51.4-52.3,51.4S538,607,538,579.1c0-28.7,23.6-52.3,52.3-52.3
			S642.6,550.5,642.6,579.1z"/>
		<circle id="ring1" class="st11" cx="590.3" cy="579.1" r="20.2"/>
		<g id="arrows">
			<path id="arrow0" class="st24" d="M591.1,337.9h-2.5v2.5l-9.3-5.1v2.5l9.3,5.1v2.5l-9.3-5.1v2.5l9.3,5.1v2.5l-9.3-5.1v2.5
				l9.3,5.1l0,0v64.1c-2.5-1.7-5.9-2.5-9.3-2.5c4.2,3.4,8.4,7.6,10.1,12.7c1.7-5.1,5.9-9.3,10.1-12.7c-2.5,0-6.7,0.8-9.3,2.5v-64.1
				l0,0l9.3-5.1v-2.5l-9.3,5.1v-2.5l9.3-5.1v-2.5l-9.3,5.1V343l9.3-5.1v-2.5l-8.4,5.1V337.9z"/>
			<path id="arrow1" class="st24" d="M713.4,370.8l-1.7-0.8l-1.7,2.5l-5.1-9.3l-1.7,1.7l5.1,9.3l-1.7,2.5l-5.1-9.3l-1.7,2.5l5.1,9.3
				l-1.7,2.5l-5.1-9.3l-1.7,2.5l6.7,7.6l0,0l-32,55.7c-1.7-2.5-4.2-5.1-6.7-6.7c1.7,5.1,3.4,10.1,2.5,16c4.2-3.4,9.3-5.1,15.2-5.9
				c-2.5-0.8-5.9-2.5-9.3-2.5l32-55.7l0,0h11l1.7-2.5h-11l1.7-2.5h11l1.7-2.5h-11l0.8-2.5h11l0.8-2.5h-11H713.4z"/>
			<path id="arrow2" class="st24" d="M801.1,460.2l-0.8-1.7l-2.5,1.7v-11l-2.5,0.8v11l-2.5,1.7v-11l-2.5,1.7v11l-2.5,0.8v-11
				l-2.5,1.7v11l0,0l-55.7,32c0-3.4-0.8-6.7-2.5-9.3c-0.8,5.1-2.5,11-5.9,15.2c5.1-0.8,11,0.8,16,2.5c-1.7-2.5-4.2-5.1-6.7-6.7
				l55.7-32l0,0l9.3,5.1l2.5-0.8l-7.6-5.9l2.5-0.8l9.3,5.1l2.5-0.8l-9.3-5.1l2.5-0.8l9.3,5.1l2.5-1.7l-9.3-5.1L801.1,460.2z"/>
			<path id="arrow3" class="st24" d="M832.3,581.7v-2.5h-2.5l5.1-9.3h-2.5l-5.1,9.3h-2.5l5.1-9.3h-2.5l-5.1,9.3h-2.5l5.1-9.3h-2.5
				l-5.1,9.3l0,0H753c1.7-2.5,2.5-5.9,2.5-9.3c-3.4,4.2-7.6,8.4-12.7,10.1c5.1,1.7,9.3,5.9,12.7,10.1c0-2.5-0.8-6.7-2.5-9.3h64.1
				l0,0l5.1,9.3h2.5l-5.1-9.3h2.5l5.1,9.3h2.5l-5.1-9.3h2.5l5.1,9.3h2.5l-5.1-8.4H832.3z"/>
			<path id="arrow4" class="st24" d="M799.4,704l0.8-1.7l-2.5-1.7l9.3-5.1l-2.5-1.7l-8.4,5.9l-2.5-0.8l9.3-5.1l-2.5-1.7l-9.3,5.1
				l-2.5-1.7l9.3-5.1l-2.5-1.7l-7.6,5.9l0,0l-55.7-32c2.5-1.7,5.1-4.2,6.7-6.7c-5.1,2.5-10.1,3.4-16,2.5c3.4,4.2,5.1,9.3,5.9,15.2
				c0.8-2.5,2.5-5.9,2.5-9.3l55.7,32l0,0v11l2.5,1.7v-11l2.5,1.7v11l2.5,1.7v-11l2.5,1.7v11l2.5,0.8L799.4,704L799.4,704z"/>
			<path id="arrow5" class="st24" d="M710.9,792.5l1.7-0.8l-1.7-2.5h11l-1.7-2.5h-11l-1.7-2.5h11l-1.7-2.5h-11L705,779h11l-1.7-2.5
				h-11l0,0l-32-55.7c3.4,0,6.7-0.8,9.3-2.5c-5.1-0.8-11-2.5-15.2-5.9c0.8,5.1-0.8,11-2.5,16c2.5-1.7,5.1-4.2,6.7-6.7l32,55.7l0,0
				l-5.1,9.3l0.8,2.5l5.1-9.3l0.8,2.5l-5.1,9.3l0.8,2.5l5.1-9.3l1.7,2.5l-5.1,9.3l1.7,2.5l5.1-9.3L710.9,792.5z"/>
			<path id="arrow6" class="st24" d="M587.7,823.7h2.5v-2.5l9.3,5.1v-2.5l-9.3-5.1v-2.5l9.3,5.1v-2.5l-9.3-5.1v-2.5l9.3,5.1v-2.5
				l-9.3-5.1l0,0v-64.1c2.5,1.7,5.9,2.5,9.3,2.5c-4.2-3.4-8.4-7.6-10.1-12.7c-1.7,5.1-5.9,9.3-10.1,12.7c2.5,0,6.7-0.8,9.3-2.5v64.1
				l0,0l-9.3,5.1v2.5l9.3-5.1v2.5l-9.3,5.1v2.5l9.3-5.1v2.5l-9.3,5.1v2.5l9.3-5.1v2.5H587.7z"/>
			<path id="arrow7" class="st24" d="M466.3,790.8l1.7,0.8l1.7-2.5l5.1,9.3l0.8-2.5l-5.1-8.4l0.8-2.5l5.1,9.3l1.7-2.5l-5.1-9.3
				l1.7-2.5l5.1,9.3l1.7-2.5l-5.9-7.6l0,0l32-55.7c1.7,2.5,4.2,5.1,6.7,6.7c-2.5-5.1-3.4-10.1-2.5-16c-4.2,3.4-9.3,5.1-15.2,5.9
				c2.5,0.8,5.9,2.5,9.3,2.5l-32,55.7l0,0h-11l-1.7,2.5h11l-1.7,2.5h-11l-1.7,2.5h11l-0.8,2.5h-11l-0.8,2.5h11L466.3,790.8z"/>
			<path id="arrow8" class="st24" d="M377.7,701.4l0.8,1.7l2.5-1.7v11l2.5-0.8v-11l2.5-1.7v11l2.5-1.7v-11l2.5-0.8v11l2.5-1.7v-11
				l0,0l55.7-32c0,3.4,0.8,6.7,2.5,9.3c0.8-5.1,2.5-11,5.9-15.2c-5.1,0.8-11-0.8-16-2.5c1.7,2.5,4.2,5.1,6.7,6.7l-57.3,32.9l0,0
				l-9.3-5.1l-2.5,0.8l9.3,5.1l-2.5,0.8l-9.3-5.1l-2.5,0.8l9.3,5.1l-0.8,2.5l-9.3-5.1l-2.5,0.8l9.3,5.1L377.7,701.4z"/>
			<path id="arrow9" class="st24" d="M346.5,579.1v2.5h2.5l-5.1,9.3h2.5l5.1-9.3h2.5l-5.1,9.3h2.5l5.1-9.3h2.5l-5.1,9.3h2.5l5.1-9.3
				l0,0h64.1c-1.7,2.5-2.5,5.9-2.5,9.3c3.4-4.2,7.6-8.4,12.7-10.1c-5.1-1.7-9.3-5.9-12.7-10.1c0,2.5,0.8,6.7,2.5,9.3h-64.1l0,0
				l-5.1-9.3h-2.5l5.1,9.3h-2.5l-5.1-9.3h-2.5l5.1,9.3h-2.5l-5.1-9.3H344l5.1,8.4H346.5z"/>
			<path id="arrow10" class="st24" d="M379.4,457.7l-0.8,1.7l2.5,1.7l-9.3,5.1l2.5,1.7l9.3-5.1l2.5,0.8l-9.3,5.1l2.5,1.7l9.3-5.1
				l2.5,1.7l-9.3,5.1l2.5,1.7l6.7-6.7l0,0l55.7,32c-2.5,1.7-5.1,4.2-6.7,6.7c5.1-1.7,10.1-3.4,16-2.5c-3.4-4.2-5.1-9.3-5.9-15.2
				c-0.8,2.5-2.5,5.9-2.5,9.3l-55.7-32l0,0v-11l-2.5-1.7v11l-2.5-1.7v-11l-0.8-0.8v11l-2.5-0.8v-11l-2.5-0.8v11L379.4,457.7z"/>
			<path id="arrow11" class="st24" d="M468.8,369.1l-1.7,0.8l1.7,2.5h-11l1.7,2.5h11l1.7,2.5h-11l1.7,2.5h11l0.8,2.5h-11l1.7,2.5h11
				l0,0l32,55.7c-3.4,0-6.7,0.8-9.3,2.5c5.1,0.8,11,2.5,15.2,5.9c-0.8-5.1,0.8-11,2.5-16c-2.5,1.7-5.1,4.2-6.7,6.7l-33.7-57.3l0,0
				l5.1-9.3l-0.8-2.5l-5.1,9.3l-0.8-2.5l5.1-9.3l-0.8-2.5l-5.1,9.3l-0.8-2.5l5.1-9.3l-2.5-0.8l-5.1,9.3L468.8,369.1z"/>
			<path id="arrow12" class="st24" d="M468.8,369.1l-1.7,0.8l1.7,2.5h-11l1.7,2.5h11l1.7,2.5h-11l1.7,2.5h11l0.8,2.5h-11l1.7,2.5h11
				l0,0l32,55.7c-3.4,0-6.7,0.8-9.3,2.5c5.1,0.8,11,2.5,15.2,5.9c-0.8-5.1,0.8-11,2.5-16c-2.5,1.7-5.1,4.2-6.7,6.7l-33.7-57.3l0,0
				l5.1-9.3l-0.8-2.5l-5.1,9.3l-0.8-2.5l5.1-9.3l-0.8-2.5l-5.1,9.3l-0.8-2.5l5.1-9.3l-2.5-0.8l-5.1,9.3L468.8,369.1z"/>
		</g>
		<g>
			<path id="shadowLeft" class="st20" d="M589.4,711.5c-72.5,0-130.7-59-130.7-130.7c0-36.3,13.5-70.8,38-94.5
				c23.6-24.5,58.2-39.6,94.5-39.6L589.4,711.5z"/>
		</g>
		<g id="arrowMainAll">
			<path id="arrowMainShadow" class="st20" d="M756.4,529.4l-0.8-4.2l-5.1,1.7l4.2-20.2l-4.2,1.7l-4.2,20.2l-4.2,1.7l4.2-20.2
				l-4.2,1.7l-5.1,19.4l-4.2,1.7l4.2-20.2l-4.2,1.7l-4.2,19.4l0,0L613,569.9c1.7-5.1,0.8-12.7,0-17.7c-3.4,9.3-8.4,18.6-16.9,25.3
				c10.1,0.8,19.4,5.9,27.8,11c-1.7-5.1-5.1-11-9.3-14.3l113.9-36.3l0,0l15.2,13.5l4.2-1.7l-15.2-13.5l4.2-1.7l15.2,13.5l4.2-1.7
				l-15.2-13.5l4.2-1.7l15.2,13.5l4.2-1.7l-15.2-13.5L756.4,529.4z"/>
			<linearGradient id="arrowMain_1_" gradientUnits="userSpaceOnUse" x1="595.3229" y1="540.3432" x2="762.3122" y2="540.3432">
				<stop  offset="0" style="stop-color:#FA933D"/>
				<stop  offset="1" style="stop-color:#E25933"/>
			</linearGradient>
			<path id="arrowMain" class="st25" d="M752.2,515.9l-1.7-4.2l-5.1,2.5L748,494l-4.2,1.7l-2.5,20.2l-4.2,1.7l2.5-20.2l-4.2,1.7
				l-2.5,20.2l-4.2,1.7l2.5-20.2l-4.2,1.7l-2.5,20.2l0,0l-113,45.5c0.8-5.9,0-12.7-1.7-17.7c-2.5,10.1-6.7,19.4-14.3,27
				c10.1,0,20.2,4.2,28.7,9.3c-2.5-5.1-5.9-11-11-13.5l112.2-45.5l0,0l16,12.7l4.2-1.7l-16-12.7l4.2-1.7l16,12.7l4.2-1.7l-16-12.7
				l4.2-1.7l16,12.7l4.2-1.7l-15.2-14.3L752.2,515.9z"/>
		</g>
	</g>
	<g>
		<linearGradient id="SVGID_14_" gradientUnits="userSpaceOnUse" x1="148.4431" y1="411.4189" x2="353.3016" y2="411.4189">
			<stop  offset="0.1472" style="stop-color:#BBCE53"/>
			<stop  offset="1" style="stop-color:#6F9F4F"/>
		</linearGradient>
		<path class="st26" d="M350.8,389c12.4,55.2-22.4,110-77.5,122.3c-55.2,12.4-110-22.4-122.3-77.6c-12.4-55.2,22.3-110,77.6-122.3
			C283.7,299.1,338.4,333.8,350.8,389z"/>
		<g id="search_2_">
			<path class="st11" d="M211.5,461.6l10.6,8.1c1,0.8,2.3,0.5,3-0.5l20.6-31.2c7,3.2,14.9,4.4,22.9,3c22.3-4,37.1-26.6,33.3-50.4
				c-3.9-23.8-25.1-39.9-47.4-36c-22.2,4-37.1,26.6-33.2,50.4c1.4,8.6,5.1,16.1,10.3,22.2l-20.6,31.2
				C210.2,459.4,210.5,460.9,211.5,461.6z M266.4,427.3c-15.2,2.7-29.7-8.3-32.3-24.5c-2.7-16.2,7.5-31.7,22.7-34.4
				c15.1-2.7,29.6,8.3,32.3,24.5C291.7,409.2,281.5,424.6,266.4,427.3z"/>
		</g>
	</g>
	<radialGradient id="SVGID_15_" cx="1089.7212" cy="419.684" r="30.555" gradientUnits="userSpaceOnUse">
		<stop  offset="0" style="stop-color:#00A3E1"/>
		<stop  offset="0.2151" style="stop-color:#0098D5"/>
		<stop  offset="0.6025" style="stop-color:#007AB6"/>
		<stop  offset="1" style="stop-color:#00558F"/>
	</radialGradient>
	<path class="st27" d="M1113.7,389.1h-48c-3.6,0-6.5,2.9-6.5,6.5v48c0,3.6,2.9,6.5,6.5,6.5h18.7v-20.8h-8.6v-9.8h8.6v-7.5
		c0-8.5,5-13.2,12.8-13.2c3.7,0,7.6,0.7,7.6,0.7v8.3h-4.3c-4.2,0-5.5,2.6-5.5,5.3v6.3h9.4l-1.5,9.8h-7.9v20.8h18.7
		c3.6,0,6.5-2.9,6.5-6.5v-48C1120.3,392.1,1117.3,389.1,1113.7,389.1z"/>
	<g>
		
			<linearGradient id="SVGID_16_" gradientUnits="userSpaceOnUse" x1="947.0287" y1="355.5505" x2="1050.1493" y2="355.5505" gradientTransform="matrix(1 0 0 -1 0 1026.2461)">
			<stop  offset="0" style="stop-color:#96D6F7"/>
			<stop  offset="1" style="stop-color:#00B0E8"/>
		</linearGradient>
		<path class="st28" d="M1048.2,656.8c7.7,27.4-8.4,55.9-35.8,63.5c-27.4,7.7-55.9-8.4-63.5-35.8c-7.7-27.4,8.3-55.9,35.8-63.5
			C1012.1,613.4,1040.6,629.4,1048.2,656.8z"/>
		<path class="st11" d="M1028.8,660.1l-7.9-2.7c-2.3-5.5-7.6-9-13.1-8.2c-5.1,0.7-9,4.8-10.3,10c-0.5,0.6-0.8,1.3-1.2,2
			c-0.3,0-0.5,0-0.8-0.1c-10.7-0.9-16.8-9.4-16.8-9.4s-2.2,5.9,7.1,14.5c-4.8-2.4-7.5-5.7-7.5-5.7s-1.5,5.1,5.9,12.1
			c-3.4-1.1-5.5-2.5-5.5-2.5s-0.2,5.5,9.2,10c-8.9,7.1-18.1,8.4-18.1,8.4s15,6.4,29.3,1.8c9-2.9,13.6-5.2,17.7-12.4
			c1-0.8,4.9-8.9,5.3-12.6l7-1l-6.5-2.9L1028.8,660.1z M1014.2,660.9c-1.3,0.2-2.4-0.8-2.6-2.1c-0.2-1.3,0.7-2.6,2-2.8
			c1.2-0.2,2.4,0.8,2.6,2.1C1016.4,659.4,1015.5,660.7,1014.2,660.9z"/>
	</g>
	<path class="st11" d="M429.6,218.1c0,0-1-12.2-5.7-17.3c-4.6-5.1-17.7-6.8-18.8-10.3c-0.3-0.9-1.1-2.2-1.1-3.7
		c0.2-4.4,2.4-9.6,2.4-9.6s1.4-0.8,2.3-2.4c0.9-1.6,0.5-4,0.5-4s-0.7-0.5-0.6-1.3c0.3-2,1.4-5.9,1.1-10.8c-0.5-7-7.2-10.1-10.1-10.8
		c-2.8-0.7-7.7-1.1-12.6,1.4c-4.9,2.4-5.9,7.2-6.2,10.3c-0.3,3.1,1.2,10.6,1.2,10.6s-1.4,0.3-1.1,3c0.3,2.7,2.6,4.2,2.6,4.2
		s3.8,8.6,2.9,11.7c-0.8,2.9-8.6,6.1-14.6,10.6c-5.5-2.4-11.2-4.2-12-6.9c-0.3-1.1-1.3-2.8-1.2-4.6c0.2-5.6,2.7-12.1,2.7-12.1
		s1.6-1,2.6-3.1c1-2,0.6-5.1,0.6-5.1s-0.8-0.6-0.6-1.7c0.3-2.5,1.6-7.5,1.2-13.7c-0.6-8.9-8.2-12.8-11.4-13.6
		c-3.2-0.8-8.8-1.4-14.3,1.7c-5.6,3.1-6.7,9-7,12.9c-0.3,3.9,1.3,13.4,1.3,13.4s-1.5,0.4-1.2,3.7c0.3,3.4,3,5.3,3,5.3
		s4.3,10.8,3.3,14.7c-0.6,2.4-4.6,5-9.2,8.1c-5.7-3.4-14.8-5-15.8-8c-0.3-0.9-1.1-2.2-1.1-3.7c0.2-4.4,2.4-9.6,2.4-9.6
		s1.4-0.8,2.3-2.4c0.9-1.6,0.5-4,0.5-4s-0.7-0.5-0.6-1.3c0.3-2,1.4-5.9,1.1-10.8c-0.5-7-7.2-10.1-10.1-10.8
		c-2.8-0.7-7.7-1.1-12.6,1.4c-4.9,2.4-5.9,7.2-6.2,10.3c-0.3,3.1,1.2,10.6,1.2,10.6s-1.4,0.3-1.1,3c0.3,2.7,2.6,4.2,2.6,4.2
		s3.8,8.6,2.9,11.7c-0.9,3.1-9.4,6.4-15.4,11.2c-7.8,4.3-9.3,18.1-9.3,18.1h42.2c-1.5,5-1.9,9.3-1.9,9.3h76.9c0,0-0.3-4.3-1.4-9.3
		L429.6,218.1L429.6,218.1L429.6,218.1z"/>
	<g>
		<g>
			<polygon class="st11" points="943.3,527.5 954.2,533.3 952.5,536.7 943.3,533.3 			"/>
			<linearGradient id="SVGID_17_" gradientUnits="userSpaceOnUse" x1="933.8157" y1="541.6888" x2="962.2325" y2="541.6888">
				<stop  offset="0" style="stop-color:#FA933D"/>
				<stop  offset="1" style="stop-color:#E25933"/>
			</linearGradient>
			<path class="st29" d="M943.3,527.5l18.8,18.8c0.3,0.3,0.3,0.7,0,1l-8.4,8.4c-0.3,0.3-0.7,0.3-1,0l-18.8-18.8L943.3,527.5z"/>
			<linearGradient id="SVGID_18_" gradientUnits="userSpaceOnUse" x1="908.5571" y1="530.5456" x2="925.9879" y2="530.5456">
				<stop  offset="0" style="stop-color:#FA933D"/>
				<stop  offset="1" style="stop-color:#E25933"/>
			</linearGradient>
			<path class="st30" d="M926,536.3c-4,4-10.5,4-14.4,0c-4-4-4-10.5,0-14.4L926,536.3z"/>
			<path class="st31" d="M979.1,481.2c3.7-3.7,3.7-9.7,0-13.4c-3.7-3.7-9.7-3.7-13.4,0L979.1,481.2z"/>
			
				<rect x="913.4" y="507.4" transform="matrix(0.7071 -0.7071 0.7071 0.7071 -96.7694 807.8162)" class="st11" width="26.5" height="26.5"/>
			
				<rect x="918.1" y="518.8" transform="matrix(0.7071 -0.7071 0.7071 0.7071 -98.7133 812.509)" class="st32" width="26.5" height="13.3"/>
			
				<rect x="971.7" y="440.7" transform="matrix(0.7072 -0.707 0.707 0.7072 -49.0713 827.1199)" class="st11" width="4.8" height="64.2"/>
			<linearGradient id="SVGID_19_" gradientUnits="userSpaceOnUse" x1="929.3713" y1="531.0842" x2="945.4784" y2="531.0842">
				<stop  offset="0.1472" style="stop-color:#F88038"/>
				<stop  offset="1" style="stop-color:#E7422C"/>
			</linearGradient>
			<polygon class="st33" points="945.5,525.4 931.7,539.1 929.4,536.8 943.1,523 			"/>
			<path class="st34" d="M939.8,535.3l-3.8,3.8l3.2,3.2l3.8-3.8c0.9-0.9,0.9-2.3,0-3.2C942.1,534.4,940.7,534.4,939.8,535.3z"/>
			<path class="st34" d="M945.3,540.7l-3.8,3.8l3.2,3.2l3.8-3.8c0.9-0.9,0.9-2.3,0-3.2C947.6,539.8,946.2,539.8,945.3,540.7z"/>
			<path class="st34" d="M950.7,546.2l-3.8,3.8l3.2,3.2l3.8-3.8c0.9-0.9,0.9-2.3,0-3.2C953,545.3,951.6,545.3,950.7,546.2z"/>
			<linearGradient id="SVGID_20_" gradientUnits="userSpaceOnUse" x1="926.7108" y1="481.4564" x2="972.3953" y2="481.4564">
				<stop  offset="0" style="stop-color:#FA933D"/>
				<stop  offset="1" style="stop-color:#E25933"/>
			</linearGradient>
			<polygon class="st35" points="949.7,451.8 926.7,502 935.8,511.1 972.4,474.5 			"/>
			<linearGradient id="SVGID_21_" gradientUnits="userSpaceOnUse" x1="935.8204" y1="497.6208" x2="995.0605" y2="497.6208">
				<stop  offset="0" style="stop-color:#FA933D"/>
				<stop  offset="1" style="stop-color:#E25933"/>
			</linearGradient>
			<polygon class="st36" points="935.8,511.1 945.5,520.7 995.1,497.2 972.4,474.5 			"/>
		</g>
		<g>
			<path class="st11" d="M981.9,465.6c-0.2,0-0.3-0.1-0.4-0.2c-0.2-0.2-0.2-0.6,0-0.9l28-27.6c0.2-0.2,0.6-0.2,0.9,0
				c0.2,0.2,0.2,0.6,0,0.9l-28,27.6C982.2,465.5,982.1,465.6,981.9,465.6z"/>
		</g>
		<g>
			<path class="st11" d="M984.9,469.1c-0.3,0-0.5-0.2-0.6-0.4c-0.1-0.3,0.1-0.7,0.4-0.8l37.7-11.4c0.3-0.1,0.7,0.1,0.8,0.4
				c0.1,0.3-0.1,0.7-0.4,0.8l-37.7,11.4C985,469.1,985,469.1,984.9,469.1z"/>
		</g>
		<g>
			<path class="st11" d="M978.1,463.4c-0.1,0-0.1,0-0.2,0c-0.3-0.1-0.5-0.4-0.4-0.8l10.7-37.9c0.1-0.3,0.4-0.5,0.8-0.4
				c0.3,0.1,0.5,0.4,0.4,0.8L978.7,463C978.6,463.3,978.3,463.4,978.1,463.4z"/>
		</g>
	</g>
	<path class="st11" d="M500.2,287v-2.6c0-1.4-1.2-2.6-2.6-2.6h-45.4v-6.5h11.7c2.9,0,5.2-2.3,5.2-5.2v-20.7c0-2.9-2.3-5.2-5.2-5.2
		h-31.1c-2.9,0-5.2,2.3-5.2,5.2v20.7c0,2.9,2.3,5.2,5.2,5.2h11.7v6.5h-45.4c-1.4,0-2.6,1.2-2.6,2.6v2.6c0,1.4,1.2,2.6,2.6,2.6h16.9
		v6.5h-9.1c-2.9,0-5.2,2.3-5.2,5.2V322c0,2.9,2.3,5.2,5.2,5.2h25.9c2.9,0,5.2-2.3,5.2-5.2v-20.7c0-2.9-2.3-5.2-5.2-5.2h-9.1v-6.5
		H473v6.5h-9.1c-2.9,0-5.2,2.3-5.2,5.2V322c0,2.9,2.3,5.2,5.2,5.2h25.9c2.9,0,5.2-2.3,5.2-5.2v-20.7c0-2.9-2.3-5.2-5.2-5.2h-9.1
		v-6.5h16.9C499.1,289.6,500.2,288.4,500.2,287z M438,265v-10.4h20.7V265H438z M427.6,316.8h-15.6v-10.4h15.6V316.8z M484.7,316.8
		h-15.6v-10.4h15.6V316.8z"/>
	<linearGradient id="SVGID_22_" gradientUnits="userSpaceOnUse" x1="949.8449" y1="365.7982" x2="1001.0813" y2="336.2169">
		<stop  offset="0" style="stop-color:#F8E335"/>
		<stop  offset="0.4907" style="stop-color:#E88A2A;stop-opacity:0.7"/>
		<stop  offset="0.9935" style="stop-color:#872AB3"/>
	</linearGradient>
	<path class="st37" d="M975.5,337.9c-7.3,0-13.1,5.9-13.1,13.1c0,7.3,5.9,13.1,13.1,13.1s13.1-5.9,13.1-13.1
		C988.6,343.7,982.7,337.9,975.5,337.9z M975.5,359.6c-4.7,0-8.5-3.8-8.5-8.5c0-4.7,3.8-8.5,8.5-8.5s8.5,3.8,8.5,8.5
		C984,355.7,980.2,359.6,975.5,359.6L975.5,359.6z M992.2,337.3c0,1.7-1.4,3.1-3.1,3.1c-1.7,0-3.1-1.4-3.1-3.1s1.4-3.1,3.1-3.1
		C990.8,334.3,992.2,335.6,992.2,337.3z M1000.9,340.4c-0.2-4.1-1.1-7.7-4.1-10.7c-3-3-6.6-3.9-10.7-4.1c-4.2-0.2-16.9-0.2-21.2,0
		c-4.1,0.2-7.7,1.1-10.7,4.1c-3,3-3.9,6.6-4.1,10.7c-0.2,4.2-0.2,16.9,0,21.2c0.2,4.1,1.1,7.7,4.1,10.7c3,3,6.6,3.9,10.7,4.1
		c4.2,0.2,16.9,0.2,21.2,0c4.1-0.2,7.7-1.1,10.7-4.1c3-3,3.9-6.6,4.1-10.7C1001.2,357.3,1001.2,344.7,1000.9,340.4L1000.9,340.4z
		 M995.5,366.1c-0.9,2.2-2.6,4-4.9,4.9c-3.4,1.3-11.4,1-15.1,1c-3.7,0-11.7,0.3-15.1-1c-2.2-0.9-4-2.6-4.9-4.9
		c-1.3-3.4-1-11.4-1-15.1s-0.3-11.7,1-15.1c0.9-2.2,2.6-4,4.9-4.9c3.4-1.3,11.4-1,15.1-1c3.7,0,11.7-0.3,15.1,1
		c2.2,0.9,4,2.6,4.9,4.9c1.3,3.4,1,11.4,1,15.1S996.8,362.8,995.5,366.1z"/>
</g>
<g id="Layer_2">
</g>
</svg>
