<?xml version="1.0" encoding="utf-8"?>
<!-- Generator: Adobe Illustrator 24.0.0, SVG Export Plug-In . SVG Version: 6.00 Build 0)  -->
<svg version="1.1" id="Layer_1" xmlns="http://www.w3.org/2000/svg" xmlns:xlink="http://www.w3.org/1999/xlink" x="0px" y="0px"
	 viewBox="0 0 1247.2 1020.5" style="enable-background:new 0 0 1247.2 1020.5;" xml:space="preserve">
<style type="text/css">
	.st0{fill:#DADADA;}
	.st1{opacity:0.6;fill:#DADADA;enable-background:new    ;}
	.st2{fill:#DFDFDF;}
	.st3{fill:#3EBBD2;}
	.st4{fill:#FFFFFF;}
	.st5{fill:url(#SVGID_1_);}
	.st6{fill:url(#SVGID_2_);}
</style>
<g id="Layer_1_2_">
	<g id="Layer_1_3_">
		<path class="st0" d="M1156.8,743.6c3.8,59.1-59.1,112.5-114.2,133.5c-150.6,57.6-475.4-81.2-725.5-310
			C136.1,401.5,43.8,234.2,63.7,132.6c-31,102.5,62.6,280,254.2,455.2C573,821.2,905.3,962.3,1060.1,903.1
			c62.6-23.9,125.4-85.8,114.9-156C1166.1,687.6,1153.1,686.9,1156.8,743.6z"/>
		<path class="st0" d="M284.7,64.4c-80.4,12.6-111.8,61.8-95.9,129.1c-23.3-72.4,5.8-126.2,89.5-139.3
			C402.2,34.8,604,111,757.5,229.6C601.8,116.3,406.5,45.4,284.7,64.4z"/>
		<path class="st1" d="M821.6,239.5c140.4,114.9,244.5,228.2,292.9,311.6c-8.8-61.8-107.8-181.8-258.1-304.8
			C739.8,150.8,619,75.4,528.5,37.3C620.1,88.6,722.3,158.2,821.6,239.5z"/>
		<path class="st2" d="M982.3,980c-198.2,14.5-425.2-71.7-511.2-191.3c2.2,4,4.5,8.1,7.1,12.2C556,924.7,784.3,1013,988.1,998
			c197.5-14.5,255-123.9,217.1-244.9C1223.7,874.1,1167.3,966.4,982.3,980z"/>
	</g>
</g>
<circle class="st3" cx="617.1" cy="510.3" r="399.4"/>
<g id="Layer_2_1_">
</g>
<g>
	<g>
		<g>
			<path class="st4" d="M784.1,373.5c-0.6,0.6-1.4,0.6-2,0l-15-15c-0.5-0.6-0.5-1.4,0-2c0.6-0.6,1.4-0.6,2,0l15,15
				C784.6,372.1,784.6,373,784.1,373.5z"/>
		</g>
		<g>
			<path class="st4" d="M808.9,398.2c-0.6,0.6-1.4,0.6-2,0l-15-15c-0.6-0.6-0.6-1.4,0-2c0.5-0.6,1.4-0.6,2,0l15,15
				C809.3,396.9,809.3,397.8,808.9,398.2z"/>
		</g>
		<g>
			<path class="st4" d="M784.1,383.2l-15,15c-0.5,0.6-1.4,0.6-2,0c-0.5-0.5-0.5-1.4,0-2l15-15c0.6-0.6,1.4-0.6,2,0
				C784.6,381.9,784.6,382.6,784.1,383.2z"/>
		</g>
		<g>
			<path class="st4" d="M808.9,358.5l-15,15c-0.6,0.6-1.5,0.6-2,0c-0.6-0.5-0.6-1.4,0-2l15-15c0.6-0.5,1.4-0.5,2,0
				C809.3,357.1,809.3,358,808.9,358.5z"/>
		</g>
	</g>
	<g>
		<g>
			<path class="st4" d="M388.7,395.7c-0.5,0.5-1.1,0.5-1.5,0l-11.6-11.4c-0.5-0.5-0.5-1.1,0-1.5c0.5-0.5,1.1-0.5,1.5,0l11.6,11.4
				C389.1,394.6,389.1,395.2,388.7,395.7z"/>
		</g>
		<g>
			<path class="st4" d="M407.6,414.6c-0.5,0.5-1.1,0.5-1.5,0l-11.4-11.4c-0.5-0.5-0.5-1.1,0-1.5s1.1-0.5,1.5,0l11.4,11.4
				C407.9,413.5,407.9,414.1,407.6,414.6z"/>
		</g>
		<g>
			<path class="st4" d="M388.7,403l-11.6,11.4c-0.5,0.5-1.1,0.5-1.5,0c-0.5-0.5-0.5-1.1,0-1.5l11.6-11.6c0.5-0.5,1.1-0.5,1.5,0
				C389.1,402,389.1,402.7,388.7,403z"/>
		</g>
		<g>
			<path class="st4" d="M407.6,384.3l-11.4,11.4c-0.5,0.5-1.1,0.5-1.5,0s-0.5-1.1,0-1.5l11.4-11.4c0.5-0.5,1.1-0.5,1.5,0
				C407.9,383.1,407.9,383.8,407.6,384.3z"/>
		</g>
	</g>
	<g>
		<g>
			<path class="st4" d="M332.3,309.9c-0.6,0.6-1.5,0.6-2.1,0l-16.7-16.7c-0.6-0.6-0.6-1.5,0-2.1s1.5-0.6,2.1,0l16.7,16.7
				C332.9,308.2,332.9,309.3,332.3,309.9z"/>
		</g>
		<g>
			<path class="st4" d="M359.6,337.2c-0.6,0.6-1.5,0.6-2.1,0l-16.7-16.7c-0.6-0.6-0.6-1.5,0-2.1c0.6-0.6,1.5-0.6,2.1,0l16.7,16.7
				C360.2,335.7,360.2,336.6,359.6,337.2z"/>
		</g>
		<g>
			<path class="st4" d="M332.3,320.5l-16.7,16.7c-0.6,0.6-1.5,0.6-2.1,0c-0.6-0.6-0.6-1.5,0-2.1l16.7-16.7c0.6-0.6,1.5-0.6,2.1,0
				C332.9,319,332.9,319.9,332.3,320.5z"/>
		</g>
		<g>
			<path class="st4" d="M359.6,293.2l-16.7,16.7c-0.6,0.6-1.7,0.6-2.1,0c-0.6-0.6-0.6-1.5,0-2.1l16.7-16.7c0.6-0.6,1.5-0.6,2.1,0
				C360.2,291.7,360.2,292.6,359.6,293.2z"/>
		</g>
	</g>
	<g>
		<g>
			<path class="st4" d="M451.8,231.3c-0.8,0.8-2,0.8-2.7,0l-21-21c-0.8-0.8-0.8-2,0-2.7c0.8-0.8,2-0.8,2.7,0l21,21
				C452.6,229.3,452.6,230.5,451.8,231.3z"/>
		</g>
		<g>
			<path class="st4" d="M486.5,265.9c-0.8,0.8-2,0.8-2.7,0l-21-21c-0.8-0.8-0.8-2,0-2.7c0.8-0.8,2-0.8,2.7,0l21,21
				C487.2,264,487.2,265.2,486.5,265.9z"/>
		</g>
		<g>
			<path class="st4" d="M451.8,244.9l-21,21c-0.8,0.8-1.8,0.8-2.7,0c-0.8-0.8-0.8-2,0-2.7l21-21.2c0.8-0.8,2-0.8,2.7,0
				C452.6,243,452.6,244.2,451.8,244.9z"/>
		</g>
		<g>
			<path class="st4" d="M486.5,210.3l-21,21c-0.8,0.8-2,0.8-2.7,0c-0.8-0.8-0.8-2,0-2.7l21-21c0.8-0.8,2-0.8,2.7,0
				C487.2,208.3,487.2,209.5,486.5,210.3z"/>
		</g>
	</g>
	<g>
		<g>
			<path class="st4" d="M730.1,286c-0.8,0.8-2,0.8-2.7,0l-21.2-21.2c-0.8-0.8-0.8-2,0-2.7c0.8-0.8,2-0.8,2.7,0l21.2,21.2
				C730.9,283.9,730.9,285.3,730.1,286z"/>
		</g>
		<g>
			<path class="st4" d="M765.1,320.8c-0.8,0.8-2,0.8-2.7,0l-21.2-21.2c-0.8-0.8-0.8-2,0-2.7c0.8-0.8,2-0.8,2.7,0l21.2,21.2
				C765.8,318.9,765.8,320.1,765.1,320.8z"/>
		</g>
		<g>
			<path class="st4" d="M730.1,299.7L709,320.8c-0.8,0.8-2,0.8-2.7,0c-0.8-0.8-0.8-2,0-2.7l21.2-21.2c0.8-0.8,2-0.8,2.7,0
				C730.9,297.7,730.9,298.9,730.1,299.7z"/>
		</g>
		<g>
			<path class="st4" d="M765.1,264.7l-21.2,21.2c-0.8,0.8-2.1,0.8-2.7,0c-0.8-0.8-0.8-2,0-2.7l21.2-21.2c0.8-0.8,2-0.8,2.7,0
				C765.8,262.8,765.8,264,765.1,264.7z"/>
		</g>
	</g>
	<g>
		<g>
			<path class="st4" d="M852.1,267.1c-0.9,0.9-2.4,0.9-3.3,0l-26.4-26.4c-0.9-0.9-0.9-2.4,0-3.3c1.1-0.9,2.4-0.9,3.3,0l26.4,26.4
				C853,264.7,853,266.2,852.1,267.1z"/>
		</g>
		<g>
			<path class="st4" d="M895.6,310.6c-0.9,0.9-2.4,0.9-3.5,0l-26.4-26.3c-0.9-1.1-0.9-2.4,0-3.5c0.9-0.9,2.4-0.9,3.5,0l26.4,26.4
				C896.5,308.1,896.5,309.7,895.6,310.6z"/>
		</g>
		<g>
			<path class="st4" d="M852.1,284.2l-26.4,26.3c-0.9,0.9-2.4,0.9-3.3,0s-0.9-2.4,0-3.3l26.4-26.4c0.9-0.9,2.4-0.9,3.3,0
				C853,281.8,853,283.3,852.1,284.2z"/>
		</g>
		<g>
			<path class="st4" d="M895.6,240.9l-26.4,26.4c-1.1,0.9-2.6,0.9-3.5,0c-0.9-0.9-0.9-2.4,0-3.3l26.4-26.4c1.1-0.9,2.6-0.9,3.5,0
				C896.5,238.3,896.5,239.8,895.6,240.9z"/>
		</g>
	</g>
	<g>
		
			<linearGradient id="SVGID_1_" gradientUnits="userSpaceOnUse" x1="486.0472" y1="236.2389" x2="932" y2="236.2389" gradientTransform="matrix(1 0 0 1 0 252)">
			<stop  offset="0" style="stop-color:#FA933D"/>
			<stop  offset="1" style="stop-color:#E25933"/>
		</linearGradient>
		<path class="st5" d="M926.9,613.3c6.8-6.8,6.8-17.7,0-24.5L643.6,305.5c-6.8-6.8-20-11.4-29.4-10.4L486,308.7l372.8,372.8
			L926.9,613.3z"/>
		
			<linearGradient id="SVGID_2_" gradientUnits="userSpaceOnUse" x1="416.593" y1="307.3255" x2="858.8307" y2="307.3255" gradientTransform="matrix(1 0 0 1 0 252)">
			<stop  offset="0.1472" style="stop-color:#F88038"/>
			<stop  offset="1" style="stop-color:#E7422C"/>
		</linearGradient>
		<path class="st6" d="M486,308.5l-33.5,3.5c-9.5,1.1-18,9.5-18.9,18.9l-17,161.4c-1.1,9.5,3.6,22.7,10.4,29.4l283.4,283.4
			c6.8,6.8,17.7,6.8,24.5,0l123.9-123.9L486,308.5z M504.3,382.6c-9.5,9.5-24.8,9.5-34.2,0c-9.5-9.5-9.5-24.8,0-34.2
			c9.5-9.5,24.8-9.5,34.2,0C513.6,357.9,513.6,373.2,504.3,382.6z"/>
		<g>
			<path class="st4" d="M632.8,464.2c1.8-7.2-1.4-18.8-9.9-27.3c-11-11-20.9-11.7-26.7-5.9c-6.9,6.8-0.6,16.8,7.7,27.3
				c14.4,18.3,25.4,37.8,6.6,56.6c-17.4,17.4-40.4,9.5-57.9-8c-16.1-16.1-23.4-33.3-14.9-53.4l18.8,6c-5.1,12.2,0.1,24.9,9.6,34.5
				c9.3,9.3,21.3,14.7,29.9,6.3c7.4-7.4,2.7-18.2-6.6-29.7c-14.1-18-24.6-36.9-7.1-54.6c16.1-16.1,38.6-6.9,53.3,7.5
				c12.2,12.2,21.5,28.4,15.2,46.4L632.8,464.2z"/>
			<path class="st4" d="M657.2,607.6L598.6,549c26.1-26.1,52.4-52.2,78.5-78.3l58.7,58.7l-14.4,14.4l-44-44.1l-18,18l42.5,42.5
				L688,573.9l-42.5-42.5l-17.7,17.7l44,44L657.2,607.6z"/>
			<path class="st4" d="M784.4,657.3c-20.6,20.1-53.3,27.9-80.7,0.3c-27.6-27.6-20.6-60.2,0.1-80.7c20.6-20.6,54.6-28.1,81.6-1.1
				C812.5,603,805.1,637.1,784.4,657.3z M718.1,591.7c-12.6,13.2-19.4,33.9-0.9,52.4c18.5,18.5,39.3,11.6,52.4-1.1
				c13.5-13.1,20.9-35.1,2.4-53.7C753.5,570.9,731,578.2,718.1,591.7z"/>
		</g>
	</g>
</g>
</svg>
