<?xml version="1.0" encoding="utf-8"?>
<!-- Generator: Adobe Illustrator 24.0.0, SVG Export Plug-In . SVG Version: 6.00 Build 0)  -->
<svg version="1.1" id="Layer_1" xmlns="http://www.w3.org/2000/svg" xmlns:xlink="http://www.w3.org/1999/xlink" x="0px" y="0px"
	 viewBox="0 0 1247.2 1020.5" style="enable-background:new 0 0 1247.2 1020.5;" xml:space="preserve">
<style type="text/css">
	.st0{fill:#DADADA;}
	.st1{opacity:0.6;fill:#DADADA;enable-background:new    ;}
	.st2{fill:#DFDFDF;}
	.st3{fill:url(#SVGID_1_);}
	.st4{opacity:0.26;fill:url(#SVGID_2_);enable-background:new    ;}
	.st5{opacity:0.35;fill:url(#SVGID_3_);enable-background:new    ;}
	.st6{fill:url(#SVGID_4_);}
	.st7{fill:url(#SVGID_5_);}
	.st8{fill:url(#SVGID_6_);}
	.st9{fill:url(#SVGID_7_);}
	.st10{fill:url(#SVGID_8_);}
	.st11{fill:url(#SVGID_9_);}
	.st12{fill:url(#SVGID_10_);}
	.st13{fill:url(#SVGID_11_);}
	.st14{fill:url(#SVGID_12_);}
	.st15{fill:url(#SVGID_13_);}
	.st16{fill:url(#SVGID_14_);}
	.st17{fill:url(#SVGID_15_);}
	.st18{fill:url(#SVGID_16_);}
</style>
<g id="Layer_1_2_">
	<g id="Layer_1_1_">
		<path class="st0" d="M1142.5,736c3.8,59.1-59.1,112.5-114.2,133.5c-150.6,57.6-475.4-81.2-725.5-310
			C121.8,393.9,29.5,226.6,49.4,125c-31,102.5,62.6,280,254.2,455.2C558.7,813.6,891,954.7,1045.8,895.5
			c62.6-23.9,125.4-85.8,114.9-156C1151.8,680,1138.8,679.3,1142.5,736z"/>
		<path class="st0" d="M270.4,56.8c-80.4,12.6-111.8,61.8-95.9,129.1c-23.3-72.4,5.8-126.2,89.5-139.3
			C387.9,27.2,589.7,103.4,743.2,222C587.5,108.7,392.2,37.8,270.4,56.8z"/>
		<path class="st1" d="M807.3,231.9c140.4,114.9,244.5,228.2,292.9,311.6c-8.8-61.8-107.8-181.8-258.1-304.8
			c-116.6-95.5-237.4-170.9-327.9-209C605.8,81,708,150.6,807.3,231.9z"/>
		<path class="st2" d="M968,972.4c-198.2,14.5-425.2-71.7-511.2-191.3c2.2,4,4.5,8.1,7.1,12.2c77.8,123.8,306.1,212.1,509.9,197.1
			c197.5-14.5,255-123.9,217.1-244.9C1209.4,866.5,1153,958.8,968,972.4z"/>
	</g>
</g>
<g id="Layer_2_2_">
</g>
<linearGradient id="SVGID_1_" gradientUnits="userSpaceOnUse" x1="416.8947" y1="307.7057" x2="612.3619" y2="307.7057" gradientTransform="matrix(1 0 0 1 0 265.437)">
	<stop  offset="0.1472" style="stop-color:#F88038"/>
	<stop  offset="1" style="stop-color:#E7422C"/>
</linearGradient>
<path class="st3" d="M416.9,473.3v0.2l0.2,0.1l21.4,16.2l0,0l0.1,0.1l0,0c-0.1,0.5,0.2,1.4,2.4,3c3.2,2.3,6.2,7.4,6.2,7.4
	s-3.3,12.5,1.2,20.5c4.5,8,24.9,15.9,24.9,15.9l-0.7-5.4c0,0,2.9-0.2,3.7-4c0.8-3.8,0.7-6.7,0.7-6.7l0,0l0,0l0,0l0,0
	c0.1,0,1.9-0.5,2.8-0.7c0.1,0,0.1,0,0.1,0c0.1,0,0.2-0.1,0.3-0.1c0.4-0.1,4.5,27.4,1.2,55.9s-1.3,30-1.3,30l2.2,0.8
	c0,0,3.5,53.6,4.9,72.4c1.3,18.6,3.7,86.2,4.1,90.1c0.5,3.8,0.5,9.3,0.5,9.3s-13,10.8-14.3,15.4c-1.3,4.5-5.9,16.3,1.8,16.3
	c7.7,0,15.5,2.1,20.5-1c5-3.1,1.3-7.9,5.7-12.2c4.3-4.3,10.7-3.6,10.5-8.2c-0.2-4.5,1.2-5.7,0.5-7.3c-0.8-1.7,2.7-4.7,4.3-7.4
	c1.6-2.8,9.8-68.6,8.8-76.3c-0.9-7.7,1.8-62.8,4.8-73.5c0,0,8,37.1,10.7,66.6c2.7,29.5,6.4,74.5,6.4,74.5s-0.6,3.4,1.9,6.2
	S562,783,562,783s0.5,2.8,0.9,3.5c0.5,0.7-1.1,2.9,0.7,5.4c1.7,2.5,3.4,2.7,3.8,3.7c0.4,1.1,1.2,10.7,2.8,13c1.6,2.3,6.7,4.8,11.4,5
	c4.8,0.2,13.3-2.3,14.3-3.9c1.1-1.7,2.5-11.8-2.3-19.4c-4.8-7.5-5.5-7.9-5.5-7.9s2.5-3,2.5-8.2s2-33.3,1.2-50.1
	c-0.9-16.7-5-47.5-4.5-51s1.2-27.8,1.2-34s-1.3-23.7-1.3-23.7s8.4-1.3,9-2.5c0.6-1.2,0.6-1.2,0.6-1.2s6.3-1.8,7.6-3.3
	c1.3-1.3,0.9-1.8,0.9-1.8s2-0.1,3-1.9s1.1-2.7,1.1-2.7s1.7,0,2-4.4c0.4-4.4,1.2-9.8,0.5-12.7c-0.8-2.9-0.8-4-0.8-4s1.2-0.1,1.6-0.7
	c0.4-0.6-0.4-20.2-0.8-24c-0.4-3.8-1.6-48.6-7.1-65.9c-5.5-17.2-8.2-33.7-9.3-38.4c-1.2-4.5-4.6-16.2-6.7-21.3
	c-2.1-5.2-2.8-14-5.5-15c-2.6-1-6.6-0.7-8.9-1.4c-2.4-0.7-10.5-1.3-13.1-2.6c-2.6-1.3-9.4-3.1-12.5-3.7c-3.1-0.6-4.4-0.9-4.4-0.9
	s-0.7-1.2-1.9-2.6c-1.2-1.4-1.9-3.6-2.9-4.5c-0.1-0.1-0.1-0.2-0.1-0.3l0,0c0-0.2-0.1-0.3-0.1-0.6c0-0.1,0-0.2,0-0.3
	c0-0.2,0-0.3,0-0.5c0-0.1,0-0.3,0-0.4c0-0.2,0-0.3,0-0.5s0-0.4,0-0.5c0-0.2,0-0.3,0.1-0.5c0-0.2,0-0.4,0.1-0.6c0-0.2,0-0.3,0.1-0.5
	c0-0.2,0.1-0.5,0.1-0.7c0-0.2,0.1-0.3,0.1-0.5c0-0.3,0.1-0.5,0.1-0.8c0-0.2,0-0.3,0.1-0.5c0-0.3,0.1-0.5,0.1-0.8
	c0-0.2,0.1-0.3,0.1-0.5c0-0.3,0.1-0.5,0.1-0.8c0-0.1,0-0.3,0.1-0.4c0-0.3,0.1-0.5,0.1-0.8c0-0.1,0-0.3,0.1-0.4
	c0-0.2,0.1-0.5,0.1-0.7c0-0.1,0-0.2,0.1-0.4c0-0.2,0.1-0.4,0.1-0.6c0-0.1,0.1-0.2,0.1-0.4c0-0.2,0.1-0.3,0.1-0.5c0-0.1,0-0.1,0-0.2
	c0-0.1,0.1-0.3,0.1-0.4c0-0.1,0-0.1,0-0.2c0-0.2,0.1-0.4,0.1-0.4s4.5,0.7,5.4-3.5c0.9-4,2-12,1.2-13.3c-0.8-1.2-2.4-1.5-2.9-1.2
	c-0.2,0.2,0-2,0.3-4.8c0-0.1,0-0.1,0-0.2c0-0.3,0-0.5,0.1-0.8c0-0.2,0-0.4,0-0.5c0-0.2,0-0.4,0-0.6c0-0.2,0-0.5,0-0.7
	c0-0.2,0-0.4,0-0.5c0-0.2,0-0.5,0-0.7c0-0.2,0-0.3,0-0.5c0-0.3,0-0.5,0-0.8c0-0.2,0-0.3,0-0.4c0-0.3,0-0.5,0-0.8c0-0.1,0-0.3,0-0.4
	c0-0.3,0-0.5,0-0.8c0-0.1,0-0.2,0-0.4c0-0.3,0-0.5,0-0.8c0-0.1,0-0.2,0-0.3c0-0.3-0.1-0.6-0.1-0.9c-0.7-4.5-8.9-21.8-28.3-20.1
	c-19.3,1.7-25.2,22-25.7,23.9c-0.5,1.9,1.1,14,1.8,15.6c0.1,0.1,0.1,0.2,0.1,0.3l0,0c0,0.1,0,0.1,0,0.1c-0.2,0.1-1.4-1,0,5.4
	c1.7,7.9,1.9,9.8,4.2,10.6c2.3,0.7,3.2-0.9,3.2-0.9s2.6,5.9,3.1,9.7c0.5,3.8,0.2,5,0.2,5s0,0-0.1,0.1l0,0l0,0l0,0l0,0l0,0
	c-0.1,0.1-0.2,0.1-0.4,0.3l0,0l0,0c-0.5,0.4-1.2,1.1-1.4,1.8c-0.2,1.2-0.7,2.8-1.4,3.4s-0.9,2.1-0.9,2.1s-7.5,2.8-10.8,4.4
	c-3.3,1.6-16.4,7.9-19.8,8.9c-3.3,1.1-6.8-0.9-6.5,10.2c0.2,10.3-5.2,41.3-5.9,45.2l-4.7-3.5l-0.1-0.1h-0.1c-0.1,0-19.1-1.5-23-2.2
	c-3.8-0.8-11-2.9-11-2.9l-0.4-0.1v0.5L416.9,473.3z M586.6,611.6c0,0,0.1-4.8-0.1-6.3c0.5-0.2,3.1-2.7,4.2-5.6s1.2-8.5,1.6-7.9
	s1.1,0.9,1.1,0.9s-0.2,2-0.4,4.3s-0.4,6-0.4,6s-0.4-0.4-1.8,0.4c-1.4,0.8-1.1,2.5-1.1,2.5s0-0.1-1-0.1c-1,0.1-1.2,0.4-1.7,1.5
	c-0.5,1.2,0.2,2,0.8,2.4C588.6,610,586.6,611.6,586.6,611.6z M576.9,507.8c0,0,2,5.5,3.8,19.6s3.2,19.6,3.8,27.1
	c0.7,7.4,0.9,17.5,0.9,17.5S574.2,518.1,576.9,507.8z"/>
<radialGradient id="SVGID_2_" cx="620.0005" cy="1977.6602" r="118.0143" gradientTransform="matrix(5.2092 3.500000e-02 -2.800000e-03 0.421 -2438.3774 -41.4942)" gradientUnits="userSpaceOnUse">
	<stop  offset="0" style="stop-color:#1D1E1C"/>
	<stop  offset="0.1186" style="stop-color:#313230;stop-opacity:0.8784"/>
	<stop  offset="0.3627" style="stop-color:#666765;stop-opacity:0.6282"/>
	<stop  offset="0.7073" style="stop-color:#B9BAB9;stop-opacity:0.2749"/>
	<stop  offset="0.9755" style="stop-color:#FFFFFF;stop-opacity:0"/>
</radialGradient>
<path class="st4" d="M1382.6,816.8c-0.2,28.3-267.5,49.3-597.2,47.1C455.8,861.7,188.8,837,189,808.8
	c0.2-28.2,267.5-49.3,597.2-47.1C1115.8,763.9,1382.8,788.5,1382.6,816.8"/>
<radialGradient id="SVGID_3_" cx="600.5637" cy="2363.196" r="118.0116" gradientTransform="matrix(4.0955 2.750000e-02 -2.200000e-03 0.3335 -1979.1636 2.1379)" gradientUnits="userSpaceOnUse">
	<stop  offset="0" style="stop-color:#1D1E1C"/>
	<stop  offset="0.1186" style="stop-color:#313230;stop-opacity:0.8784"/>
	<stop  offset="0.3627" style="stop-color:#666765;stop-opacity:0.6282"/>
	<stop  offset="0.7073" style="stop-color:#B9BAB9;stop-opacity:0.2749"/>
	<stop  offset="0.9755" style="stop-color:#FFFFFF;stop-opacity:0"/>
</radialGradient>
<path class="st5" d="M6,803.7c0.2-22.4,210.3-39,469.5-37.3c259.2,1.7,469.1,21.2,468.9,43.6c-0.2,22.4-210.3,39-469.5,37.3
	C215.8,845.6,5.8,826.1,6,803.7"/>
<linearGradient id="SVGID_4_" gradientUnits="userSpaceOnUse" x1="204.366" y1="333.7014" x2="362.9685" y2="333.7014" gradientTransform="matrix(1 0 0 1 0 265.437)">
	<stop  offset="0" style="stop-color:#B51F6A"/>
	<stop  offset="1" style="stop-color:#5E2E80"/>
</linearGradient>
<path class="st6" d="M363,594.9c0,0-14.5-112.7-15-113.7c-0.5-1.1-7.2-11.3-9.1-16.7c-1.9-5.4-5.2-9.2-8.4-11.9
	c-2.9-2.5-13.3-2.1-14.7-2.6l0,0l0,0v-0.1c0.3-0.9,0-4.8,0-4.8V445l0,0l6.3-6.9c0,0,9.6-13.4,5.9-32.2c-5.8-29-61-10.4-50.2,2.9
	c0,0,0.2-1.2,0.8-2.1c0.1-0.2,0.2-0.2,0.3-0.3h0.1c0.1,0,0.1,0,0.2,0h0.1c0.1,0,0.2,0.1,0.3,0.1l0,0c0.1,0.1,0.1,0.2,0.2,0.3
	c0.1,0.2,0.1,0.6-0.1,0.9c-0.7,1-3.4,4.9-4.3,6.4c-0.9,1.5-0.3,1.7,0.2,3.4c0.6,1.5-0.1,2.2-0.6,3.2c-0.5,1-4.2,4.3-4.8,4.9
	c-0.6,0.6-1.4,2.3-0.8,3.6c0.6,1.3,2.8,1.4,2.9,1.7c0,0.3-0.7,2.2-1.2,3.2c-0.5,1,1,1.9,0.6,2c-0.5,0.1-2,1.6-1.2,2
	c0.8,0.4,1.5,2.8,1.6,3.3c0.1,0.5-3,6.5,1.3,7s5,3.3,6.7,4.4c1.5,1,2.4,3.3,2.8,3.8l0,0c-0.2,0.2-7.8,5.7-8.5,7.3
	c-0.5,1.2,0.3,2.6,0.9,3.7c0.3,0.5,0.6,1,0.7,1.2c0.2,0.7-0.2,1.2-0.7,1.8c-0.2,0.3-0.6,0.7-0.8,1.1c-0.7,1.2-0.5,3.1-0.5,3.3l0,0
	c-0.5,0.1-2,0.4-3,0.5c-1.3,0.2-3.1,2-3.1,2s-0.3-1.2-1-2c-0.6-1-2.4-0.8-3.9,0.1c-1.5,0.9-2.4,4.7-2.4,4.7s-2.9,0.8-3.8,3.3
	c-0.8,2.5,1.5,5.9,1.5,5.9s-1.4,1.2-1.5,6.6c-0.1,4.7,2,7.8,2.6,8.5v0.1l0,0l0,0c0,0.1-0.9,25.8-1.9,41.7c-0.6,9,0.6,16.2,1.5,22.4
	c0.6,3.7,1,7.1,1,10.2v0.3l0.1-0.1c0,0.7,0,1.2,0,1.8c-0.2,3.7-1.3,17.1-2.4,33.1c-1,2.2-2,4.4-2.2,5.7c-0.5,2.2,0,7.4,1,11.2
	c-1.2,16.1-2.3,32-2.9,41.7c-1.5,23.3-11.6,101.6-13.3,104.2c-1.7,2.6-0.5,3.6-0.5,3.6s0,0-10.6,6.7s-15.7,4.9-18,4.9
	s-4.6,1.1-6,3.6c-1.4,2.4,0.3,6.9,3.2,8.7c2.9,1.8,23.9,5.2,33,2.5c9.1-2.8,30.4-2.5,34-3.8c3.6-1.3,2.3-9.3,2.3-9.3
	c1-1.3,0,0,3.6-2.3s15.2-93.4,15.2-93.4s19.1,70.6,18.3,71.4c-0.8,1-4.2,1.3-11.1,0.6c-7-0.8-8.1,0.8-8.1,0.8s-3.9,4.6,0.5,8.7
	c4.3,4.1,18.9,5.1,21.9,4.7c2.9-0.3,10.7,1.7,15.7,4.4c5,2.8,15.1,2.9,18.7,1c3.6-2,1.3-12.4,1.3-12.4s1.7,1.9,1.4-2
	c-0.3-3.9-21-93.2-26.7-105.6c-5.6-12.3,3-45.9,3-45.9s5.7,1.1,7.3,1c1.5-0.2,16.5-2.9,19.4-7.7c2.9-4.7-2-19.1-2-19.1
	s0.6,0,2.8-0.3C360.6,596.8,363,594.9,363,594.9z"/>
<linearGradient id="SVGID_5_" gradientUnits="userSpaceOnUse" x1="919.8516" y1="348.4803" x2="1083.4197" y2="348.4803" gradientTransform="matrix(1 0 0 1 0 265.437)">
	<stop  offset="0" style="stop-color:#294C95"/>
	<stop  offset="1" style="stop-color:#5D90C5"/>
</linearGradient>
<path class="st7" d="M1082.6,791.6c0,0,1.1-2.7-4-3.7s-16.1-3.6-22.6-9.9c-6.6-6.3-6.7-8.8-6.7-8.8s-14.7-40.8-21.1-84.1
	c-6.4-43.4-6.4-43.4-6.4-43.4s6.7-3.6,8.4-8.2c1.6-4.6,0.7-6.9,1.6-8.7c0.9-1.7,0.8-3.3,0-5c-0.8-1.7-3.2-10.6-3.2-10.6s0-0.1,0-0.2
	c-0.2-0.7-1.1-3.5-1.8-6.3c0-0.1,0-0.1-0.1-0.2c-0.1-0.3-0.2-0.6-0.3-0.9c0-0.1-0.1-0.3-0.1-0.4c-0.1-0.2-0.1-0.4-0.2-0.6
	c-0.1-0.2-0.1-0.4-0.2-0.6v-0.1c-0.2-0.6-0.3-1.1-0.4-1.5c0-0.1-0.1-0.2-0.1-0.3c-0.1-0.2-0.1-0.4-0.1-0.5c0-0.1-0.1-0.3-0.1-0.4
	c0-0.2-0.1-0.3-0.1-0.4c0-0.1-0.1-0.2-0.1-0.4c0-0.1-0.1-0.2-0.1-0.3s0-0.2-0.1-0.3c0-0.1,0-0.1,0-0.2c0-0.1,0-0.2,0-0.3
	c0.2-0.9,0.7-1.9-0.4-2.4s-0.9-0.6-1.1-2.2s0.1-3.8-0.8-5.2c-0.9-1.3-0.3-7.9-0.3-7.9s1.1-2.2,2.5-3c1.4-0.8,2,0.8,3.7,0.1
	s1.6-3.1,3.5-5.2c1.8-2.1,6.9-6,6.1-9.1c-0.9-3.2-7.2-17.8-7.2-17.8s0.5,0.8,4.5,0.4c4.1-0.4,3.9-2.2,3.9-2.2s-6-18.5-11.5-26.7
	c-5.6-8.3-16.2-21.9-24.4-27.7c-8.2-5.8-17.3-10.9-17.3-10.9s-0.3-2,2-3.9c2.4-1.9,3.7-7.5,3.7-7.5s0.9-0.1,1.6-1.8
	c0.8-1.8,1.8-10.6,1.6-11.6c-0.2-1-1.1-1.6-1.1-1.6s1.5-11.8-1.3-19.1c-3-7.2-10.4-12.6-16.8-12.6c-6.4,0-17.7,1.9-23.6,7.8
	c-5.9,6-6.2,11.8-5.9,15.6c0.3,3.7,2.2,8.6,2.2,8.6s-2,1.2-0.8,5.1c1.1,3.2,2.1,8.4,6.2,8.8c0,0,1.7,3.7,1.8,5.1
	c0,0.1,0,0.4-0.1,0.6v0.1c-0.1,0.3-0.1,0.6-0.2,0.9c-0.1,0.4-0.3,0.9-0.5,1.3v0.1c-0.1,0.2-0.2,0.5-0.3,0.7c0,0.1,0,0.1-0.1,0.2
	c-0.1,0.2-0.2,0.4-0.3,0.7c0,0.1,0,0.1-0.1,0.2c-0.1,0.3-0.2,0.5-0.3,0.8l0,0c-0.1,0.3-0.2,0.6-0.4,0.9c0,0,0,0.1-0.1,0.1
	c-0.1,0.2-0.2,0.4-0.3,0.7c0,0.1-0.1,0.1-0.1,0.2c-0.1,0.2-0.2,0.4-0.2,0.6c0,0,0,0.1-0.1,0.2c-0.3,0.7-0.5,1.2-0.7,1.5
	c-0.1,0.2-0.1,0.3-0.2,0.4v0.1c0,0-12.1,2.7-13.8,3.7c-1.7,1.1-3.6,7.1-3.6,7.1s-14.9,15.9-14.9,22.4c0,6.5,1.9,14.9,1.9,21.5
	c0,6.6,0.9,26.3,1.1,29.2c0.1,2.9-0.5,13.8,0.4,16.1c0.9,2.2,3.7,2.6,4.1,9.8c0.5,7.2,0.5,11,1.3,12.3c0.9,1.3,7.3,8.4,7.3,8.4
	l0.2,168.7l2.6,2c0,0-1.9,8.7-0.5,11.5c1.4,2.9,4.5,3.7,6.2,7.7s7.2,8.4,12.1,9.8c5,1.4,14.6,2.3,17.7,0.2c3.1-2.2,2-6.8-0.5-10.3
	c-2.5-3.5-7.9-11.4-6.2-13.7l13.5-104l30.5,104l6.2-1.7c0,0-0.9,8.7,0.9,10.5c1.7,1.7,8.5,3.2,11.5,2.8c3.1-0.5,14-1.6,19.4-0.3
	c5.4,1.3,21.5,4,26.1,2.2c4.5-1.9,6.9-3.1,7.5-4.3C1083.6,792.3,1082.6,791.6,1082.6,791.6z"/>
<linearGradient id="SVGID_6_" gradientUnits="userSpaceOnUse" x1="827.2764" y1="327.1289" x2="969.4528" y2="327.1289" gradientTransform="matrix(1 0 0 1 0 265.437)">
	<stop  offset="0.1472" style="stop-color:#BBCE53"/>
	<stop  offset="1" style="stop-color:#6F9F4F"/>
</linearGradient>
<path class="st8" d="M968.1,548.6c-0.6-4-1.3-7.4-1.3-7.4s2.6-4.7,2.6-10.1c0-5.5-0.6-10.1-0.5-12.9c0.2-2.7,0.3-5-2.8-11
	c-3.1-6-5.1-11.1-6.2-18c-1.2-6.9-7.4-23.9-10.1-25.9c-2.6-1.9-11.4-7.6-14.9-9.3s-3.7-1.3-3.7-1.3s-3.8-5.7-4.9-7.1
	c-1.1-1.4-2.5-3.6-2.5-3.6s0,0,0.1,0h0.1c0.1,0,0.1,0,0.2,0l0,0c0.3-0.1,0.8-0.3,1.2-0.6h0.1l0.1-0.1c0.1-0.1,0.1-0.1,0.2-0.2
	c0.1-0.1,0.2-0.2,0.3-0.4c0.1-0.1,0.1-0.2,0.1-0.3c0.1-0.2,0.1-0.4,0.2-0.6c0-0.1,0.1-0.2,0.1-0.3c0.1-0.3,0.1-0.7,0.1-1.1
	c-0.2-3.5,1-7.3,1.3-7.8c0.5-0.5,0.5-1.2-0.4-1.5c-0.8-0.3,0.9-0.8,1-2c0.1-1.2-0.3-3.2,0.1-4.1s2.6-0.3,2.2-2.7
	c-0.4-2.4-1.3-3.1-1.9-4c-0.6-1,0.6-2.6,1.6-4.6s0.8-3.5,0.2-6.2c-0.7-2.8-1.2-1.2-0.9-4.7c0.2-1.9,0.2-3.1,0.1-3.7l0,0
	c0,0,0,0,0-0.1s0-0.2,0-0.2c0-0.1,0-0.1,0-0.2l0,0c0-0.1,0-0.1,0-0.1l0,0v-0.1c0,0,1.2,1.7,1,2.9c-0.2,1.2,1.7-3.1,1-4.8
	c-0.5-1.2-0.9-1.5-1.1-1.8c-0.1-0.1-0.2-0.1-0.2-0.1s0.1,0,0.2,0.1c0.4,0.4,1.4,1.2,1.6,1.7c0.3,0.6-0.2-2-1.5-3.2
	c-1.3-1.2-0.4-1.2-0.4-1.2s-8.7-13.2-23.8-10.1c-15.1,3.2-21.6,12.2-22.2,20.2c-0.6,8.1,0.2,15.5,1.3,18.8s3.9,9.8,4.7,10.1
	c0.1,0,0.2,0.1,0.2,0.2c0,0,0.1,0.1,0.1,0.2c0,0.1,0.1,0.1,0.1,0.2c0,0.1,0.1,0.2,0.1,0.2c0,0.1,0,0.1,0.1,0.2c0,0.1,0,0.2,0.1,0.3
	c0.1,0.8,0.1,1.6,0.1,1.6s-5-0.8-7.8,1.9c-2.8,2.7-3.5,4.1-5.6,5.2c-2.1,1.1-4.1,6.3-4.1,6.3s-23.8,7.4-27,11.3
	c-3.2,4-9,18.8-9.9,25.6c-0.9,6.7-7.6,25.4-7.6,39.2c0,13.8,0.6,20.9,5,26.3c4.4,5.5,6.4,5.8,10.2,15.5c3.8,9.6,12,12.9,12,12.9
	l-0.3,26.1h-2.5l-0.3,9.8l2.9,0.7c0,0-5.4,50.9-5.4,57.3c0,6.4-4.4,13.2-4.7,21.5c-0.3,8.4-12.2,85.5-12.2,85.5s0.5,2.6-1.4,5.2
	c-1.9,2.6-5.3,8.1-5.1,11.5c0.2,3.6,0.8,7.7,1.7,9.8c1.1,2.1,10.1,2.7,14.9,1.4c4.8-1.2,7.1-2.4,7.9-5.1c0.8-2.7,0.8-7.9,1.2-9
	c0.5-1.2,3.8-2.6,3.9-4.8c0.2-2.2,0.3-6.9,0.3-6.9l4.8-1.6c0,0,13.5-34.8,19.3-68.5c5.9-33.7,13.2-74.6,18.6-78.6
	c0,0,4.1,28.9,4.1,48.3c0,19.3,1.1,83.1,1.1,83.1l5.3,8.1c0,0-0.7,6.2,2,8.6c2.6,2.4,6.2,3.4,7.9,6.6c1.6,3.2,2.5,7.4,5.3,9
	c4.8,2.8,18.5,4.2,20.6-3.2c0.8-2.6-0.3-8.7-3.7-12.7c-3.4-4-7-9.5-7-9.5s8-119.4,8.8-127.1c0.9-7.7,0.3-25.8,0.3-25.8
	s2.4,0.6,3.6-0.7s-1.9-21.3-0.2-25.6c1.7-4.1,3.2-6,5.1-6.6c1.9-0.7,4.4-0.8,6.2-3.2c1.9-2.4,3.4-6.2,5.6-7.4
	c2.2-1.2,1.3-2.2,0.9-5.7c-0.5-3.4-2.2-3.1-0.5-5.5C967.1,558.9,968.8,552.6,968.1,548.6z"/>
<linearGradient id="SVGID_7_" gradientUnits="userSpaceOnUse" x1="332.7447" y1="321.9991" x2="486.8227" y2="321.9991" gradientTransform="matrix(1 0 0 1 0 265.437)">
	<stop  offset="0" style="stop-color:#DB61A0"/>
	<stop  offset="1" style="stop-color:#C41A7D"/>
</linearGradient>
<path class="st9" d="M463.4,447.5c-0.4-3.8-3.2-3.4-5-3.8c-1.9-0.5-29.8-8.4-30-8.8c-0.2-0.6-3.2-3.1-3.3-3.9
	c-0.1-0.9-1.4-3.3-1.4-3.3c0.7-4.4,1.3-8.7,2-13.2c0,0,1.9,1.4,3.5,0.6c1.5-0.9,1.9-1.9,2.7-8c0.9-6.1-0.7-6-0.7-6
	c8.5-31.1-33.9-53.8-46.8-17.4c-1.5,4.2-1.2,9.6,0,15.5c0,0-1,0.5-1.8,1.9c-1.4,2.5,0,13.5,3.8,14.3c1.1,0.2,2.7-0.4,2.7-0.4
	s0.8,3.4,1.3,5.6c0.7,2.1,1.5,8.2,1.5,8.2s-0.5,0.1-0.9,1.1c-0.8,2.1-4,7.2-4,7.2s-4.8,0.9-9.2,2.7c-4.4,1.8-23.3,7-24.7,8.2
	c-1.4,1.2-0.2,2.7-2.5,10.2s-9.2,49-9.2,49s-3.4,8.8-5,17s-4.2,71.9-3.8,72.8c0.4,0.9,2,2.1,2,2.1s0,0,0,1.5
	c0,1.5-0.3,11.9,0.6,15.5c0.8,3.2,1.7,3,2,2.9c-0.2,0.1-1,0.7,0.1,2.7c1.2,2.4,2.8,1.9,2.9,2.7s2.6,1.4,3.3,2.4
	c0.7,0.9,5.3,1.9,5.3,1.9s2.1,1.3,4,1.6c2,0.3,2,1.9,3.4,0.8s-0.3-3.7-0.3-3.7s0.7-1.5-0.2-2.5c-0.9-1-2-0.7-2-0.7s0.3-0.4-0.5-1.6
	c-0.9-1.2-2.7-0.8-2.7-0.8s-0.2-0.9,0.2-2.7c0.4-1.8-0.8-3-0.8-3.8s-0.2-1.7,0-2.4s-0.5-1.4-0.2-2c0.3-0.6,1.4-1.3,1.5-0.8
	s1.9,6.7,2.5,8.9c0.1,0.3,0.2,0.5,0.3,0.8c1,1.6,3,2.1,3,2.1s-0.1,0.2-0.3,0.9c-0.3,1.2,1.1,9.9,0.8,10.6
	c-0.3,0.7-0.5,10.3-0.7,14.4c-0.2,4,2.7,23.2,2.7,28.4c0,5.2,1.2,7.5-0.6,27c-1.9,19.5,3.6,47,2.7,53.4c-0.9,6.3,0.8,25.7,0.8,25.7
	s-5,5.4-6.9,8.7c-1.9,3.3-3.7,13-3.3,15.6s6,3.7,15,3.7c9-0.1,10.9-8.7,11.3-11.4c0.4-2.9,1.3-3,3.2-3.6c1.8-0.6,4.7-2.8,6.1-5.2
	c1.3-2.4-0.4-3.7,0.2-5.2c0.7-1.4,0-3.4,0-3.4s5.8-8.1,6.3-11c0.7-3-0.2-11.6,0.2-44.3c0.4-32.7,10-92.2,10-92.2s8.7,77.2,9.2,90.8
	c0.4,13.7,13.9,54.3,13.5,55.7c-0.4,1.3,1.6,5.5,1.6,5.5s-0.5,0-0.8,2.5c-0.2,2.5,3.7,5.7,7.8,6.8c3.9,1.2,3.2,3,5.2,6.8
	c2.1,3.8,7.3,6.8,16.3,7.3s10.3-3.8,9.2-10s-16.9-20.9-16.9-23.6c0-2.7-2.9-18.2-1.2-25.5c1.6-7.3-1.2-54,0.9-68.6
	c2.1-14.5,2-67.7,2-67.7c0.5,0,0.9,0,1.3,0c-1.7-18.4-3.5-36.6-5.2-55c0,0-0.7-0.2,14-12.3c14.6-12,23.5-23,23.5-25.7
	c0-2.7,2.7-6.8,1.2-11.3C485,504.8,463.9,451.3,463.4,447.5z M356.9,589.4c0,0-0.4-5.2-0.7-14.3c-0.2-9.1,5-32.7,5-32.7
	C363.6,545.1,356.9,589.4,356.9,589.4z M456.5,512.6c-0.4,0.9-2,3.3-2.1,3.8c-0.1,0.6-3.3,1.9-3.6,2.6c-0.3,0.7,1.5-10.9,1.5-12.6
	s-1.4-5,0.3-5.7c0,0-0.4,1.9,1,5.7C455.1,510.2,457,511.7,456.5,512.6z"/>
<linearGradient id="SVGID_8_" gradientUnits="userSpaceOnUse" x1="686.8042" y1="318.1924" x2="846.8355" y2="318.1924" gradientTransform="matrix(1 0 0 1 0 265.437)">
	<stop  offset="0.1472" style="stop-color:#40BCD2"/>
	<stop  offset="1" style="stop-color:#117CA8"/>
</linearGradient>
<path class="st10" d="M844.7,813.8c0.4-1.2-1.9-4.4-6.6-8c-4.7-3.5-23.1-21.6-23.8-23.9c-0.8-2.3-4.1-64-4.7-112.5
	s-2.6-66.6-2.6-66.6l2.2-3.2c0,0,0.3,0.2,3.7,0.2c3.5,0,6.3-2.2,6.3-2.2l3.9-44.5c0,0,1.5-0.8,2.3-1.2c0.8-0.5,3.4-5.5,4.6-7.5
	c1.2-2,10.3-21.5,12.6-28.8c2.4-7.3,4.8-18,4-29.6c-0.8-11.6-3.6-14.9-5.7-16.9c-2.1-2-5.9-6.5-6.7-10.3c-1-3.8-2.6-3.7-2.3-5.1
	c0.3-1.2-4.4-7.5-5.5-9.2c-1.1-1.7-0.2-3.5-3.3-12.5c-3.1-9-9.2-8.6-9.2-8.6s-12.5-1.2-15.8-2.3s-11.5-2.6-11.5-2.6l-1.2-3.1
	c0,0,1.5-2.4,3.6-5.6c2-3.3,2.5-6.4,3.5-11s1.3-10,0.8-12.4c-0.5-2.1,0.4-3.9,0.6-4.4l0,0v-0.1c0,0,0.6,0,1.3-6.3
	c0.8-6.2,0.6-13.9-1.5-19.3c-2.1-5.4-8.1-11-26.1-11.8c-18.1-0.9-23.6,13.4-24.7,19.7c-1.1,6.4,1,14.3,1,14.3l0,0l0,0h-0.1l0,0l0,0
	c-0.3-0.1-1,0-1.8,1.7c-2.6,5.2,1.2,11.7,4.6,16.3l0,0c0,0,0,0,0,0.1c0.4,0.6,0.9,1.2,1.2,1.6c0.1,0.1,0.1,0.1,0.2,0.2
	c0.4,0.5,0.8,1,1.1,1.3c0.2,0.2,0.3,0.4,0.4,0.7c0.1,0.1,0.1,0.2,0.2,0.3c0.1,0.2,0.2,0.3,0.2,0.5c0.1,0.1,0.1,0.3,0.1,0.4
	c0.1,0.2,0.1,0.3,0.2,0.5c0,0.1,0.1,0.3,0.1,0.4c0.1,0.2,0.1,0.4,0.1,0.6c0.7,3.4,0.5,7.3,0.5,7.3s-1.6,1.4-2.9,3.5
	c-1.2,2-5.6,5.6-5.6,5.6s-5.2,2.1-11.8,4.6c-6.6,2.5-25.4,4.4-27.7,7.1c-2.3,2.7-8,33.7-12,62c-3.9,28.3-4.5,52.1-3.6,62.9
	c1,10.8,1.3,46.8,1.3,47.8s1.5,1.2,1.5,1.2s-1,12.6,0,16c1,3.4,3.7,3.3,3.7,3.3s-0.2,2.2,1.2,3.8c1.4,1.6,3.8,1.3,3.8,1.3
	s-0.1,1.5,1.7,2.8c1.8,1.2,6.4,0.1,6.8,1.3c0.4,1.2,5.6,3.2,5.6,3.2s1.2,31.9,3.6,60.1s13.2,64.3,13.2,64.3s-1.1,3.7-0.6,7.9
	c0.4,4.2,2.3,9.8,2.3,9.8s-1.1,1.5-2.3,5c-1.3,3.5-3,17.1-0.3,23.1c2.7,6,11.3,5.6,16.3,5.8c5,0.3,8.1-4.5,8.1-10.5
	c0-6,2.3-24,2.3-24l6.1-10.5c0,0-8.6-38.1-5.1-55.3c3.5-17.2,6.5-65.4,6.5-65.4s6.5,56.7,8.9,77.1c2.4,20.4,9.5,57.5,10,61.2
	c0.5,3.7,4,3,4,3c-1.1,3.9,0.5,7.9,0.5,7.9s-0.5,0.5-0.4,1.6c0.1,1.2,0.2,3.4,3.8,5.5c3.7,2.1,8.7,2.4,14.2,3.9
	c5.5,1.6,6.3,3.7,7,4.8c0.7,1.1,9.8,10.4,17.8,10.9c8,0.5,14.4-3.5,15.9-5C846,815.9,844.3,815.1,844.7,813.8z"/>
<linearGradient id="SVGID_9_" gradientUnits="userSpaceOnUse" x1="561.5275" y1="303.6324" x2="736.0311" y2="303.6324" gradientTransform="matrix(1 0 0 1 0 265.437)">
	<stop  offset="0.1472" style="stop-color:#EF943F"/>
	<stop  offset="1" style="stop-color:#FAD14A"/>
</linearGradient>
<path class="st11" d="M733.7,805.8c0.4-1.2-2.1-4.6-7.2-8.2c-5.2-3.6-25.2-22.2-26-24.6c-0.8-2.4-4.5-65.8-5.1-115.6
	c-0.6-49.8-2.9-68.4-2.9-68.4l2.4-3.3c0,0,0.3,0.2,4.1,0.2c3.7,0,6.9-2.3,6.9-2.3l4.3-45.8c0,0,1.7-0.8,2.5-1.2
	c0.8-0.5,3.7-5.7,5-7.7c1.3-2,11.2-22.2,13.7-29.7c2.6-7.5,5.3-18.6,4.4-30.5c-0.9-11.9-3.8-15.4-6.2-17.4s-6.3-6.7-7.4-10.6
	c-1-3.9-2.8-3.9-2.5-5.2c0.3-1.3-4.8-7.7-6-9.5c-1.2-1.7-0.2-3.6-3.6-12.8c-3.4-9.3-10-8.8-10-8.8s-13.7-1.2-17.2-2.4
	c-3.6-1.2-12.6-2.7-12.6-2.7l-1.3-3.2c0,0,1.6-2.4,3.8-5.8c2.1-3.4,2.8-6.6,3.7-11.3c1.1-4.7,1.5-10.3,0.9-12.8
	c-0.6-2.1,0.4-4,0.7-4.5l0,0v-0.1c0,0,0.6,0,1.4-6.4c0.9-6.4,0.7-14.3-1.7-19.8c-2.3-5.6-8.8-11.2-28.5-12.2
	c-19.7-1-25.8,13.7-27,20.3c-1.2,6.5,1.1,14.7,1.1,14.7s0,0-0.1,0l0,0h-0.1l0,0l0,0c-0.4-0.1-1.1,0-2,1.7c-2.8,5.3,1.3,12,5.1,16.8
	l0,0c0,0,0,0,0,0.1c0.5,0.6,0.9,1.2,1.3,1.6c0.1,0.1,0.1,0.1,0.2,0.2c0.4,0.5,0.8,1,1.2,1.3c0.2,0.2,0.3,0.4,0.5,0.7
	c0.1,0.1,0.1,0.2,0.2,0.3c0.1,0.2,0.2,0.3,0.2,0.5c0.1,0.1,0.1,0.3,0.2,0.4c0.1,0.2,0.1,0.4,0.2,0.5c0,0.1,0.1,0.3,0.1,0.4
	c0.1,0.2,0.1,0.4,0.2,0.6c0.8,3.4,0.6,7.5,0.6,7.5s-1.7,1.5-3.2,3.6c-1.4,2-6.1,5.8-6.1,5.8s-5.6,2.2-12.9,4.8
	c-7.3,2.6-27.7,4.5-30.2,7.3c-2.5,2.8-8.7,34.7-13.1,63.7c-4.3,29-5,53.5-3.9,64.7c1.1,11.2,1.4,48.2,1.4,49.1s1.6,1.2,1.6,1.2
	s-1.1,13,0,16.4c1.1,3.5,4,3.4,4,3.4s-0.2,2.2,1.4,3.9c1.6,1.7,4.2,1.4,4.2,1.4s-0.1,1.5,1.9,2.8c2,1.2,7,0.1,7.5,1.3
	c0.5,1.2,6.1,3.3,6.1,3.3s1.2,32.9,3.9,61.8c2.6,28.9,14.4,66.1,14.4,66.1s-1.2,3.7-0.7,8.2s2.5,10.1,2.5,10.1s-1.2,1.5-2.6,5.1
	c-1.4,3.6-3.3,17.6-0.3,23.6c3,6.1,12.4,5.7,17.8,6c5.4,0.3,8.7-4.6,8.7-10.8c0-6.2,2.5-24.7,2.5-24.7l6.6-10.9
	c0,0-9.3-39.1-5.6-56.9c3.7-17.7,7.1-67.2,7.1-67.2s7.1,58.4,9.7,79.3c2.6,21,10.4,59.1,10.9,63c0.5,3.8,4.3,3,4.3,3
	c-1.2,4,0.6,8.1,0.6,8.1s-0.6,0.6-0.4,1.7c0.2,1.2,0.2,3.5,4.1,5.6c3.9,2.1,9.5,2.4,15.5,4.1c6,1.6,6.9,3.9,7.7,5
	c0.8,1.1,10.7,10.7,19.3,11.2c8.7,0.6,15.7-3.6,17.3-5.2C735.4,808,733.4,807.1,733.7,805.8z"/>
<linearGradient id="SVGID_10_" gradientUnits="userSpaceOnUse" x1="2324.606" y1="-377.1402" x2="2473.6782" y2="-377.1402" gradientTransform="matrix(1.03 0 0 1 -2171.0115 695.2606)">
	<stop  offset="0" style="stop-color:#DB61A0"/>
	<stop  offset="1" style="stop-color:#C41A7D"/>
</linearGradient>
<path class="st12" d="M376.9,331.7l-0.1-59.8c0-15-13.6-27.2-30.4-27.2h-92.6c-16.8,0-30.4,12.2-30.4,27.2v59.8
	c0,15,13.6,27.2,30.4,27.2h35.3l42.7,32.6l2.4-32.6h12.2C363.2,358.9,376.9,346.7,376.9,331.7L376.9,331.7z"/>
<linearGradient id="SVGID_11_" gradientUnits="userSpaceOnUse" x1="5505.23" y1="-1999.746" x2="5929.8042" y2="-1999.746" gradientTransform="matrix(-0.3288 0 0 0.2964 2854.4197 932.097)">
	<stop  offset="0.1472" style="stop-color:#359C53"/>
	<stop  offset="1" style="stop-color:#35834C"/>
</linearGradient>
<path class="st13" d="M904.7,352c0,13.9,12.4,25.2,27.7,25.2h11.1l2.2,30.3l38.8-30.3h32.1c15.3,0,27.7-11.3,27.7-25.2v-55.5
	c0-13.9-12.4-25.2-27.7-25.2h-84.2c-15.3,0-27.7,11.3-27.7,25.2V352L904.7,352z"/>
<linearGradient id="SVGID_12_" gradientUnits="userSpaceOnUse" x1="650.2896" y1="-789.8653" x2="916.8606" y2="-789.8653" gradientTransform="matrix(-1 0 0 1 1249.4114 1027.001)">
	<stop  offset="0" style="stop-color:#FA933D"/>
	<stop  offset="1" style="stop-color:#E25933"/>
</linearGradient>
<path class="st14" d="M333.3,233.4c3.3,17.5,16.8,31,33.8,36.3c-0.4,3.4-0.3,6.9,0.3,10.4c3.8,20.1,24.7,33.3,46.7,29.6
	c2.4-0.4,4.8-1.1,7.1-1.9c10.4,19.8,33.2,33.6,59.8,33.6c2.8,0,5.7-0.2,8.4-0.5c-16.4-4.7-29.7-15.5-36.5-29.3
	c13.4,5.6,28.9,7.5,44.9,4.9c14-2.4,26.3-8,36.3-15.8c8.5,4.5,18.6,6.3,28.9,4.6c23.7-4,39.6-25.4,35.3-47.9
	c-2.6-13.5-11.8-24.3-23.9-29.9c8.9-9.5,13.4-22.2,10.9-35.1c-4.4-23.3-29.2-38.5-55.5-34.1c-5.7,1-11,2.7-15.8,5.2
	c-12.2-21.9-40.9-34.7-71.2-29.6c-27.3,4.5-48.1,22.3-54.4,43.7c-4.3-0.3-8.8-0.1-13.2,0.6C347.3,183,328.5,207.7,333.3,233.4z"/>
<linearGradient id="SVGID_13_" gradientUnits="userSpaceOnUse" x1="505.5631" y1="1353.7555" x2="752.2605" y2="1353.7555" gradientTransform="matrix(-1 0 0 -1 1313.9666 1567.001)">
	<stop  offset="0" style="stop-color:#FFD949"/>
	<stop  offset="1" style="stop-color:#F99F40"/>
</linearGradient>
<path class="st15" d="M561.8,232.6l-0.1-85.4c0-21.4,21.9-38.8,49-38.8h148.8c27.1,0,49,17.4,49,38.8v85.4c0,21.4-21.9,38.8-49,38.8
	h-56.7l-68.5,46.6l-3.9-46.6h-19.6C583.7,271.5,561.8,254.1,561.8,232.6L561.8,232.6z"/>
<linearGradient id="SVGID_14_" gradientUnits="userSpaceOnUse" x1="766.8199" y1="271.2723" x2="987.2273" y2="271.2723">
	<stop  offset="0.1472" style="stop-color:#40BCD2"/>
	<stop  offset="1" style="stop-color:#117CA8"/>
</linearGradient>
<path class="st16" d="M767.4,238.6c2.1,13.6,9.6,24.5,19.7,30.1c-7.4,9.5-11,22.3-9,35.5c3.6,23.4,24.3,38.9,45.9,34.4
	c3-0.6,5.9-1.6,8.6-2.8c-4.2,17.2-16.1,31.1-31.5,36.6c2.3,0.3,4.5,0.5,6.8,0.5c20.5,0,38.4-13.1,47-32.2c11.4,8,25.9,11.4,41,8.3
	c17.8-3.7,32.1-15.5,40.1-30.8c5.1,1.1,10.5,1.2,16,0.2c23-4.7,38.7-29.5,34.6-55.5c-2.7-17.7-13.9-31.2-28-36.6
	c0.3-3.4,0.3-6.9-0.3-10.5c-3.2-20.1-20.5-33.6-38.7-29.8c-4.7,1.1-8.9,3-12.7,5.8c-13.1-16.6-34.3-25.3-56.5-20.8
	c-14,3-26.2,10.8-35.1,21.4c-5.9-2.5-12.4-3.3-18.8-1.9C776.9,194.4,763.8,216.1,767.4,238.6z"/>
<linearGradient id="SVGID_15_" gradientUnits="userSpaceOnUse" x1="994.2273" y1="400.6595" x2="1118.4348" y2="400.6595">
	<stop  offset="0" style="stop-color:#294C95"/>
	<stop  offset="1" style="stop-color:#5D90C5"/>
</linearGradient>
<path class="st17" d="M994.6,382.5c1.2,7.5,5.4,13.6,11.1,16.7c-4.2,5.3-6.2,12.4-5.1,19.7c2,13,13.7,21.6,25.9,19.1
	c1.7-0.3,3.3-0.9,4.8-1.6c-2.4,9.5-9.1,17.2-17.7,20.3c1.3,0.2,2.5,0.3,3.8,0.3c11.5,0,21.6-7.3,26.5-17.8
	c6.5,4.4,14.6,6.3,23.1,4.6c10-2.1,18.1-8.6,22.6-17.1c2.9,0.6,5.9,0.7,9,0.1c13-2.6,21.8-16.4,19.5-30.8
	c-1.5-9.8-7.8-17.3-15.8-20.3c0.2-1.9,0.2-3.8-0.2-5.8c-1.8-11.2-11.5-18.6-21.8-16.5c-2.6,0.6-5,1.6-7.1,3.2
	c-7.4-9.2-19.4-14-31.8-11.5c-7.9,1.6-14.8,6-19.8,11.9c-3.3-1.4-7-1.8-10.6-1C999.9,358,992.5,370.1,994.6,382.5z"/>
<linearGradient id="SVGID_16_" gradientUnits="userSpaceOnUse" x1="975.6943" y1="372.7723" x2="1099.9017" y2="372.7723" gradientTransform="matrix(-1 0 0 1 1246.7695 0)">
	<stop  offset="0" style="stop-color:#B51F6A"/>
	<stop  offset="1" style="stop-color:#5E2E80"/>
</linearGradient>
<path class="st18" d="M254.4,328c-3.7-0.8-7.3-0.3-10.6,1c-5-5.9-11.9-10.2-19.8-11.9c-12.5-2.5-24.4,2.3-31.8,11.5
	c-2.1-1.6-4.5-2.6-7.1-3.2c-10.3-2.1-20,5.4-21.8,16.5c-0.3,2-0.3,3.9-0.2,5.8c-8,2.9-14.3,10.5-15.8,20.3
	c-2.3,14.4,6.5,28.2,19.5,30.8c3.1,0.6,6.1,0.5,9-0.1c4.5,8.5,12.6,15,22.6,17.1c8.5,1.7,16.6-0.2,23.1-4.6
	c4.8,10.6,14.9,17.8,26.5,17.8c1.3,0,2.5-0.1,3.8-0.3c-8.7-3-15.4-10.7-17.7-20.3c1.5,0.7,3.1,1.2,4.8,1.6
	c12.2,2.5,23.9-6.1,25.9-19.1c1.1-7.3-0.9-14.4-5.1-19.7c5.7-3.1,9.9-9.2,11.1-16.7C272.8,342.2,265.4,330.1,254.4,328z"/>
</svg>
