<?xml version="1.0" encoding="utf-8"?>
<!-- Generator: Adobe Illustrator 24.0.0, SVG Export Plug-In . SVG Version: 6.00 Build 0)  -->
<svg version="1.1" id="Layer_1" xmlns="http://www.w3.org/2000/svg" xmlns:xlink="http://www.w3.org/1999/xlink" x="0px" y="0px"
	 viewBox="0 0 1247.2 1020.5" style="enable-background:new 0 0 1247.2 1020.5;" xml:space="preserve">
<style type="text/css">
	.st0{fill:#DADADA;}
	.st1{opacity:0.6;fill:#DADADA;enable-background:new    ;}
	.st2{fill:#DFDFDF;}
	.st3{fill:#2470B0;}
	.st4{fill:#FFFFFF;}
	.st5{fill:url(#SVGID_1_);}
	.st6{fill:url(#SVGID_2_);}
	.st7{fill:#E58553;}
	.st8{fill:#E6E7E8;}
	.st9{fill:url(#SVGID_3_);}
	.st10{fill:#AC643E;}
	.st11{fill:url(#SVGID_4_);}
	.st12{fill:url(#SVGID_5_);}
	.st13{fill:url(#SVGID_6_);}
	.st14{fill:url(#SVGID_7_);}
	.st15{fill:url(#SVGID_8_);}
	.st16{fill:#BBCE53;}
	.st17{fill:#C41A7D;}
	.st18{fill:#3EBBD2;}
	.st19{fill:#FFD949;}
	.st20{fill-rule:evenodd;clip-rule:evenodd;fill:#FFD949;}
</style>
<g id="Layer_1_2_">
	<g id="Layer_1_3_">
		<path class="st0" d="M1142.4,729.2c3.8,59.1-59.1,112.5-114.2,133.5c-150.6,57.6-475.4-81.2-725.5-310
			C121.7,387.1,29.4,219.8,49.3,118.2c-31,102.5,62.6,280,254.2,455.2c255.1,233.4,587.4,374.5,742.2,315.3
			c62.6-23.9,125.4-85.8,114.9-156C1151.7,673.2,1138.7,672.5,1142.4,729.2z"/>
		<path class="st0" d="M270.3,50c-80.4,12.6-111.8,61.8-95.9,129.1c-23.3-72.4,5.8-126.2,89.5-139.3
			c123.9-19.4,325.7,56.8,479.2,175.4C587.4,101.9,392.1,31,270.3,50z"/>
		<path class="st1" d="M807.2,225.1c140.4,114.9,244.5,228.2,292.9,311.6c-8.8-61.8-107.8-181.8-258.1-304.8
			C725.4,136.4,604.6,61,514.1,22.9C605.7,74.2,707.9,143.8,807.2,225.1z"/>
		<path class="st2" d="M967.9,965.6c-198.2,14.5-425.2-71.7-511.2-191.3c2.2,4,4.5,8.1,7.1,12.2c77.8,123.8,306.1,212.1,509.9,197.1
			c197.5-14.5,255-123.9,217.1-244.9C1209.3,859.7,1152.9,952,967.9,965.6z"/>
	</g>
</g>
<g id="Layer_2_1_">
</g>
<g id="Layer_1_1_">
	<g>
		<g>
			<circle class="st3" cx="644.5" cy="464" r="326"/>
			<polygon class="st4" points="577.9,605.2 618.7,626.9 612.3,639.6 577.9,626.9 			"/>
			
				<linearGradient id="SVGID_1_" gradientUnits="userSpaceOnUse" x1="542.4518" y1="406.3654" x2="648.7093" y2="406.3654" gradientTransform="matrix(1 0 0 1 0 252)">
				<stop  offset="0" style="stop-color:#FA933D"/>
				<stop  offset="1" style="stop-color:#E25933"/>
			</linearGradient>
			<path class="st5" d="M577.9,605.2l70.3,70.3c1.1,1.1,1.1,2.6,0,3.7l-31.4,31.4c-1.1,1.1-2.6,1.1-3.7,0l-70.3-70.3L577.9,605.2z"
				/>
			
				<linearGradient id="SVGID_2_" gradientUnits="userSpaceOnUse" x1="448.031" y1="364.8248" x2="513.1902" y2="364.8248" gradientTransform="matrix(1 0 0 1 0 252)">
				<stop  offset="0" style="stop-color:#FA933D"/>
				<stop  offset="1" style="stop-color:#E25933"/>
			</linearGradient>
			<path class="st6" d="M513.2,638.1c-15,15-39.3,15-53.8,0c-15-15-15-39.3,0-53.8L513.2,638.1z"/>
			<path class="st7" d="M711.7,432.2c13.8-13.8,13.8-36.3,0-50.1c-13.8-13.8-36.3-13.8-50.1,0L711.7,432.2z"/>
			
				<rect x="466.1" y="530.4" transform="matrix(0.7071 -0.7071 0.7071 0.7071 -259.0305 534.46)" class="st4" width="99.1" height="99.1"/>
			
				<rect x="483.6" y="572.9" transform="matrix(0.7071 -0.7071 0.7071 0.7071 -266.5204 552.0446)" class="st8" width="99.1" height="49.7"/>
			
				<rect x="684" y="280.7" transform="matrix(0.7072 -0.707 0.707 0.7072 -80.4056 607.2816)" class="st4" width="17.9" height="240"/>
			
				<linearGradient id="SVGID_3_" gradientUnits="userSpaceOnUse" x1="525.8378" y1="366.507" x2="586.0223" y2="366.507" gradientTransform="matrix(1 0 0 1 0 252)">
				<stop  offset="0.1472" style="stop-color:#F88038"/>
				<stop  offset="1" style="stop-color:#E7422C"/>
			</linearGradient>
			<polygon class="st9" points="586.1,597.4 534.5,648.6 525.9,640 577.2,588.4 			"/>
			<path class="st10" d="M564.8,634.4l-14.2,14.2l12,12l14.2-14.2c3.4-3.4,3.4-8.6,0-12C573.4,631,568.2,631,564.8,634.4z"/>
			<path class="st10" d="M585.4,654.6l-14.2,14.2l12,12l14.2-14.2c3.4-3.4,3.4-8.6,0-12S588.7,651.2,585.4,654.6z"/>
			<path class="st10" d="M605.6,675.1l-14.2,14.2l12,12l14.2-14.2c3.4-3.4,3.4-8.6,0-12S608.9,671.8,605.6,675.1z"/>
			
				<linearGradient id="SVGID_4_" gradientUnits="userSpaceOnUse" x1="515.8522" y1="181.0938" x2="686.6866" y2="181.0938" gradientTransform="matrix(1 0 0 1 0 252)">
				<stop  offset="0" style="stop-color:#FA933D"/>
				<stop  offset="1" style="stop-color:#E25933"/>
			</linearGradient>
			<polygon class="st11" points="601.8,322.3 515.9,509.9 549.9,543.9 686.7,407.1 			"/>
			
				<linearGradient id="SVGID_5_" gradientUnits="userSpaceOnUse" x1="549.8694" y1="241.4653" x2="771.3191" y2="241.4653" gradientTransform="matrix(1 0 0 1 0 252)">
				<stop  offset="0" style="stop-color:#FA933D"/>
				<stop  offset="1" style="stop-color:#E25933"/>
			</linearGradient>
			<polygon class="st12" points="549.9,543.9 586.1,579.8 771.5,492 686.7,407.1 			"/>
		</g>
		<g>
			<path class="st4" d="M722.2,373.8c-0.7,0-1.1-0.4-1.5-0.7c-0.7-0.7-0.7-2.2,0-3.4l104.7-103.2c0.7-0.7,2.2-0.7,3.4,0
				c0.7,0.7,0.7,2.2,0,3.4L724.1,373.1C723.3,373.5,722.9,373.8,722.2,373.8z"/>
		</g>
		<g>
			<path class="st4" d="M733.4,386.9c-1.1,0-1.9-0.7-2.2-1.5c-0.4-1.1,0.4-2.6,1.5-3l140.9-42.6c1.1-0.4,2.6,0.4,3,1.5
				c0.4,1.1-0.4,2.6-1.5,3l-140.9,42.6C733.8,386.9,733.8,386.9,733.4,386.9z"/>
		</g>
		<g>
			<path class="st4" d="M708,365.6c-0.4,0-0.4,0-0.7,0c-1.1-0.4-1.9-1.5-1.5-3l40-141.7c0.4-1.1,1.5-1.9,3-1.5
				c1.1,0.4,1.9,1.5,1.5,3l-40,141.7C709.9,365.2,708.7,365.6,708,365.6z"/>
		</g>
	</g>
</g>
<g>
	
		<linearGradient id="SVGID_6_" gradientUnits="userSpaceOnUse" x1="264.1619" y1="693.6859" x2="365.4596" y2="693.6859" gradientTransform="matrix(1 0 0 -1 0 1278.2461)">
		<stop  offset="0" style="stop-color:#B51F6A"/>
		<stop  offset="1" style="stop-color:#5E2E80"/>
	</linearGradient>
	<path class="st13" d="M315.2,540.5c6.3,8.9,11.3,19.2,17.8,28.1c11.3,1.4,21.6,3.8,32.6,5.4c0.5,3.8-6.6,7.5-10.3,11.3
		c-4.2,4.2-8,8.7-11.7,12c0.5,11.3,3,20.4,3.8,31.4c-11.3-3.5-20.6-8.9-31.9-12.7c-11,3.8-20.4,9.1-31.9,12.7
		c1.6-9.8,2.3-20.6,4.5-30c-6.8-9.1-16.9-15.5-23.7-24.6c11.5-1.4,21.8-4,33.3-5.4C304.2,559.9,309.1,549.6,315.2,540.5z"/>
	
		<linearGradient id="SVGID_7_" gradientUnits="userSpaceOnUse" x1="219.5491" y1="554.6667" x2="284.8148" y2="554.6667" gradientTransform="matrix(1 0 0 -1 0 1278.2461)">
		<stop  offset="0" style="stop-color:#B51F6A"/>
		<stop  offset="1" style="stop-color:#5E2E80"/>
	</linearGradient>
	<path class="st14" d="M252.4,695.2c4.2,5.9,7.3,12.4,11.5,18.1c7.3,0.9,13.8,2.3,20.9,3.5c0.2,2.3-4.2,4.9-6.6,7.3
		c-2.8,2.6-5.2,5.6-7.7,7.7c0.2,7.3,1.9,13.1,2.3,20.2c-7.3-2.3-13.4-5.9-20.4-8.2c-7,2.6-13.1,5.9-20.4,8.2
		c1.2-6.3,1.4-13.4,2.8-19.5c-4.5-5.9-10.8-9.8-15.2-15.9c7.3-0.9,14.1-2.6,21.3-3.5C245.3,707.6,248.4,701.1,252.4,695.2z"/>
	
		<linearGradient id="SVGID_8_" gradientUnits="userSpaceOnUse" x1="319.8867" y1="591.3555" x2="460.167" y2="591.3555" gradientTransform="matrix(1 0 0 -1 0 1278.2461)">
		<stop  offset="0" style="stop-color:#B51F6A"/>
		<stop  offset="1" style="stop-color:#5E2E80"/>
	</linearGradient>
	<path class="st15" d="M390.7,625.8c8.9,12.4,15.7,26.5,24.6,38.9c15.7,1.9,29.8,5.2,45,7.5c0.7,5.2-8.9,10.5-14.3,15.7
		c-5.9,5.6-11,12.2-16.4,16.6c0.7,15.5,4.2,28.1,5.2,43.4c-15.7-4.9-28.6-12.4-44.1-17.6c-15.2,5.4-28.1,12.7-44.1,17.6
		c2.3-13.6,3.3-28.6,6.1-41.7c-9.4-12.9-23.4-21.3-32.8-34.2c15.9-2.1,30-5.6,45.9-7.5C375.2,652.8,382,638.5,390.7,625.8z"/>
</g>
<path class="st16" d="M867.9,59.8c5.5,7.8,9.9,16.8,15.6,24.6c9.9,1.2,18.9,3.3,28.5,4.7c0.4,3.3-5.7,6.6-9,9.9
	c-3.7,3.7-7,7.6-10.3,10.5c0.4,9.9,2.7,17.9,3.3,27.5c-9.9-3.1-18.1-7.8-27.9-11.1c-9.6,3.3-17.9,8-27.9,11.1
	c1.4-8.6,2.1-18.1,3.9-26.3c-6-8-14.8-13.5-20.7-21.6c10.1-1.2,19.1-3.5,29.2-4.7C858.3,76.9,862.6,67.8,867.9,59.8z"/>
<path class="st16" d="M812.9,195.3c3.7,5.1,6.4,10.9,10.1,15.8c6.4,0.8,12.1,2.1,18.3,3.1c0.2,2.1-3.7,4.3-5.7,6.4
	c-2.5,2.3-4.5,4.9-6.8,6.8c0.2,6.4,1.6,11.5,2.1,17.7c-6.4-2.1-11.7-5.1-17.9-7.2c-6.2,2.3-11.5,5.1-17.9,7.2c1-5.5,1.2-11.7,2.5-17
	c-3.9-5.1-9.4-8.6-13.3-14c6.4-0.8,12.3-2.3,18.7-3.1C806.8,206.2,809.4,200.5,812.9,195.3z"/>
<path class="st16" d="M934,134.6c7.8,10.9,13.8,23.2,21.6,34.1c13.8,1.6,26.1,4.5,39.4,6.6c0.6,4.5-7.8,9.2-12.5,13.8
	c-5.1,4.9-9.6,10.7-14.4,14.6c0.6,13.5,3.7,24.6,4.5,38c-13.8-4.3-25-10.9-38.6-15.4c-13.3,4.7-24.6,11.1-38.6,15.4
	c2.1-11.9,2.9-25,5.3-36.5c-8.2-11.3-20.5-18.7-28.7-30c14-1.8,26.3-4.9,40.2-6.6C920.5,158.2,926.4,145.6,934,134.6z"/>
<path class="st17" d="M931.4,444.4c6.3,8.9,11.3,19.2,17.8,28.1c11.3,1.4,21.6,3.8,32.6,5.4c0.5,3.8-6.6,7.5-10.3,11.3
	c-4.2,4.2-8,8.7-11.7,12c0.5,11.3,3,20.4,3.8,31.4c-11.3-3.5-20.6-8.9-31.9-12.7c-11,3.8-20.4,9.1-31.9,12.7
	c1.6-9.8,2.3-20.6,4.5-30c-6.8-9.1-16.9-15.5-23.7-24.6c11.5-1.4,21.8-4,33.3-5.4C920.4,463.9,925.3,453.6,931.4,444.4z"/>
<path class="st17" d="M868.6,599.2c4.2,5.9,7.3,12.4,11.5,18.1c7.3,0.9,13.8,2.3,20.9,3.5c0.2,2.3-4.2,4.9-6.6,7.3
	c-2.8,2.6-5.2,5.6-7.7,7.7c0.2,7.3,1.9,13.1,2.3,20.2c-7.3-2.3-13.4-5.9-20.4-8.2c-7,2.6-13.1,5.9-20.4,8.2
	c1.2-6.3,1.4-13.4,2.8-19.5c-4.5-5.9-10.8-9.8-15.2-15.9c7.3-0.9,14.1-2.6,21.3-3.5C861.6,611.6,864.6,605,868.6,599.2z"/>
<path class="st17" d="M1006.9,529.8c8.9,12.4,15.7,26.5,24.6,38.9c15.7,1.9,29.8,5.2,45,7.5c0.7,5.2-8.9,10.5-14.3,15.7
	c-5.9,5.6-11,12.2-16.4,16.6c0.7,15.5,4.2,28.1,5.2,43.4c-15.7-4.9-28.6-12.4-44.1-17.6c-15.2,5.4-28.1,12.7-44.1,17.6
	c2.3-13.6,3.3-28.6,6.1-41.7c-9.4-12.9-23.4-21.3-32.8-34.2c15.9-2.1,30-5.6,45.9-7.5C991.4,556.7,998.2,542.4,1006.9,529.8z"/>
<g>
	<path class="st18" d="M770,844.9c0,15.2-12.4,27.5-27.6,27.5c-15.2,0-27.6-12.3-27.6-27.5s12.4-27.7,27.6-27.7
		C757.6,817.3,770,829.7,770,844.9z"/>
	<path class="st18" d="M850.1,870.9h-36.3c-0.4-25.9-10.7-50.1-29-68.5c-18.3-18.3-42.4-28.6-68.2-29.1v-36.2
		C789.8,738.2,849.1,797.6,850.1,870.9z"/>
	<path class="st18" d="M920.7,870.9h-36.2c-1-92.3-75.7-167.3-167.8-168.3v-36.2C828.7,667.4,919.7,758.6,920.7,870.9z"/>
</g>
<polygon class="st19" points="382.4,233.4 382.4,339.3 409.6,312.1 429.4,350.2 443.8,342.8 424.7,306 461.5,306 "/>
<path class="st20" d="M400.1,204.6c-1.4-13.3-3.6-25.6-6.4-36.2c19.4,7.7,34.9,23.2,42.7,42.7C425.7,208.2,413.5,206,400.1,204.6z
	 M365.6,202.8c-7.3,0-14.3,0.2-21.2,0.7c1.9-16.3,4.9-29.4,8.1-39.4c4.3-0.7,8.6-1.1,13-1.1c4.4,0,8.8,0.4,12.9,1.1
	c3.3,10,6.3,23.1,8.1,39.4C379.9,203,372.8,202.8,365.6,202.8z M330,260.3c-16.2-1.9-29.4-4.9-39.3-8.1c-0.7-4.2-1.1-8.6-1.1-13
	c0-4.5,0.4-8.8,1.1-13c10-3.3,23.1-6.3,39.3-8.1c-0.4,6.8-0.7,13.9-0.7,21.2C329.3,246.4,329.6,253.4,330,260.3z M337.6,309.9
	c-19.4-7.7-34.9-23.2-42.7-42.7c10.6,2.8,22.9,5,36.2,6.5C332.5,287,334.7,299.3,337.6,309.9z M337.6,168.3
	c-2.8,10.6-5,22.9-6.5,36.2c-13.3,1.4-25.6,3.6-36.2,6.5C302.6,191.6,318.1,176.1,337.6,168.3z M463.4,256.2c0.2-1,0.3-2,0.5-3
	l0.2-1.6c0.1-1,0.2-1.9,0.3-2.9l0.2-2.3l0.2-2.4c0.1-1.6,0.1-3.2,0.1-4.8c0-1.6,0-3.2-0.1-4.7c0-1-0.1-2-0.2-2.9l-0.1-1.5
	c-0.1-1.3-0.3-2.5-0.4-3.8l-0.1-0.6c-0.2-1.3-0.4-2.6-0.6-3.9l0-0.2c-7.8-43.5-44-77.2-88.7-81.2l-0.2,0c-1.4-0.1-2.7-0.2-4.1-0.3
	c-1.5-0.1-3.1-0.1-4.6-0.1c-1.6,0-3.1,0-4.7,0.1c-1.4,0.1-2.8,0.2-4.1,0.3l-0.2,0c-44.7,4-80.9,37.7-88.7,81.2l0,0.3
	c-0.2,1.3-0.4,2.6-0.6,3.9l-0.1,0.6c-0.2,1.2-0.3,2.5-0.4,3.8l-0.1,1.5c-0.1,1-0.2,2-0.2,2.9c-0.1,1.6-0.1,3.1-0.1,4.7
	c0,1.6,0,3.1,0.1,4.7c0,1.1,0.1,2.1,0.2,3.1l0.1,1.4c0.1,1.3,0.3,2.6,0.4,3.8l0.1,0.5c0.2,1.4,0.4,2.8,0.7,4.1v0.1
	c7.3,40.7,39.3,72.7,80,80.1l0,0l0.9,0.2l2.8,0.4l1.9,0.2l2.6,0.3l2.6,0.2c0.7,0,1.4,0.1,2.1,0.1c1.6,0.1,3.2,0.1,4.8,0.1h0.3v-0.9
	v-22.2l-0.3,0c-4.4,0-8.8-0.4-13-1.1c-3.3-10-6.3-23.1-8.1-39.4c6.9,0.4,13.9,0.7,21.2,0.7h0.3v-13.2h-0.3c-7.9,0-15.4-0.3-22.4-0.7
	c-0.5-7-0.7-14.4-0.7-22.3c0-7.9,0.2-15.4,0.7-22.4c7-0.5,14.4-0.7,22.4-0.7c7.9,0,15.3,0.2,22.3,0.7l0.1,1.2c2,0.7,3.9,1.8,5.6,3.4
	l8.1,7.4c-0.1-3.7-0.3-7.2-0.5-10.8c16.3,1.9,29.4,4.9,39.4,8.2c0.7,4.2,1.1,8.6,1.1,13c0,4.4-0.4,8.8-1.1,13c-3.1,1-6.5,2-10.2,2.9
	l7.8,7.1l18.3,16.8c3.1-7,5.4-14.5,6.8-22.3L463.4,256.2z"/>
</svg>
