<svg xmlns="http://www.w3.org/2000/svg" xmlns:xlink="http://www.w3.org/1999/xlink" viewBox="0 0 30.08 25.56"><defs><style>.cls-1{fill:url(#linear-gradient);}.cls-2{fill:none;stroke:#263359;stroke-miterlimit:10;stroke-width:0.5px;}.cls-3{fill:#fff;}</style><linearGradient id="linear-gradient" x1="-12.41" y1="26.71" x2="12.61" y2="12.02" gradientTransform="translate(5.43 -3.67) rotate(21.82)" gradientUnits="userSpaceOnUse"><stop offset="0" stop-color="#fb3601"/><stop offset="1" stop-color="#ff6915"/></linearGradient></defs><g id="Layer_2" data-name="Layer 2"><g id="Layer_1-2" data-name="Layer 1"><circle class="cls-1" cx="12.24" cy="12.24" r="12.24" transform="translate(-3.67 5.43) rotate(-21.82)"/><circle class="cls-2" cx="12.81" cy="13.07" r="12.24" transform="translate(-4.2 6.32) rotate(-23.95)"/><path class="cls-3" d="M5.34,13.53V14c0,.39.13.74.64.74s.54-.34.54-.68c0-.58-.48-.8-.9-1.06a4.47,4.47,0,0,1-1.21-.89,2,2,0,0,1-.47-1.37A1.8,1.8,0,0,1,6,8.8,1.92,1.92,0,0,1,8,11H6.52c0-.4,0-.95-.53-1a.47.47,0,0,0-.56.45c0,.41.17.62.48.84a12,12,0,0,1,1.5,1A2,2,0,0,1,8,13.94a1.85,1.85,0,0,1-2.07,2c-1.47,0-2.09-.82-2.09-1.72v-.73Z"/><path class="cls-3" d="M8.35,15.82,9.85,9h1.94l1.49,6.85H11.65l-.23-1.34H10.16L10,15.82Zm2.47-5.61h0l-.46,3.07h.93Z"/><path class="cls-3" d="M13.69,15.82V9H15.3v5.48h2v1.37Z"/><path class="cls-3" d="M17.83,15.82V9h3.68v1.37H19.43V11.6h2V13h-2v1.48h2.19v1.37Z"/><line class="cls-2" x1="27.82" y1="13.07" x2="27.82" y2="14.15"/><line class="cls-2" x1="27.82" y1="16.51" x2="27.82" y2="17.59"/><line class="cls-2" x1="30.08" y1="15.33" x2="29" y2="15.33"/><line class="cls-2" x1="26.64" y1="15.33" x2="25.56" y2="15.33"/><line class="cls-2" x1="21.62" y1="2.21" x2="26.1" y2="2.21"/><line class="cls-2" x1="2.12" y1="24.31" x2="5.51" y2="24.31"/></g></g></svg>