<svg xmlns="http://www.w3.org/2000/svg" viewBox="0 0 280 69.8"><defs><style>.cls-1{fill:#2b5faa;}</style></defs><g id="Layer_2" data-name="Layer 2"><g id="Layer_1-2" data-name="Layer 1"><path class="cls-1" d="M67.88,68.85V35.78H79.94V40.7A13.53,13.53,0,0,1,84,36.79a11.88,11.88,0,0,1,6.39-2q8.08,0,10.8,6.06a13.47,13.47,0,0,1,11.44-6.06q7,0,10,3.85,2.72,3.42,2.72,10.61V68.85H112.19V52q0-3.72-1-5.27a3.69,3.69,0,0,0-3.44-1.55q-4.58,0-4.58,7.32V68.85H90V52q0-3.72-.94-5.27a3.69,3.69,0,0,0-3.44-1.55q-4.58,0-4.58,7.32V68.85Z"/><path class="cls-1" d="M168.29,55.28h-25A6.22,6.22,0,0,0,145.19,60a6.35,6.35,0,0,0,4.59,1.83,5,5,0,0,0,4.91-2.9h12.53a13.26,13.26,0,0,1-7.13,8.52,24.2,24.2,0,0,1-11.17,2.4q-8.28,0-13.38-4.42-5.43-4.66-5.43-12.75a16.83,16.83,0,0,1,5.43-13,18.94,18.94,0,0,1,13.31-4.8q9.09,0,14.33,5.68T168.29,55.28Zm-25-6.69h11.86a5.9,5.9,0,0,0-5.77-5.74Q143.3,42.85,143.3,48.59Z"/><path class="cls-1" d="M209.44,68.85h-11.8V64.43q-4.12,5.37-10.19,5.37-7.22,0-11.26-4.93-3.8-4.61-3.8-11.92,0-8.09,4-13.19a13,13,0,0,1,19.82-.63V23.41h13.19Zm-18.71-8.52q6,0,6-7.7T191.1,45q-5.52,0-5.52,7.83Q185.58,60.33,190.73,60.33Z"/><path class="cls-1" d="M216.25,31.55V22.21h13.19v9.34Zm13.19,37.3H216.25V35.78h13.19Z"/><path class="cls-1" d="M273.43,68.85H259.86l-.63-3.53q-4.8,4.47-12.43,4.48a13.47,13.47,0,0,1-8.27-2.4A9,9,0,0,1,235,59.83q0-6.51,6.12-9,2.52-1.06,11.3-2.21c4.08-.54,6.12-1.6,6.12-3.15q0-2.71-4.29-2.72c-2.82,0-4.36,1.08-4.61,3.22H237q0-11.1,18.08-11.11,10.68,0,14.22,3.92,2.42,2.64,2.41,9.78V64a7.27,7.27,0,0,0,.24,2.27,4.15,4.15,0,0,0,1.46,2Zm-20.7-6.5q6.38,0,5.81-8.14a21.21,21.21,0,0,1-4.42,1.32,15.17,15.17,0,0,0-3.91,1.2,3.07,3.07,0,0,0-1.64,2.84C248.57,61.42,250,62.35,252.73,62.35Z"/><rect class="cls-1" x="273" y="28.58" width="7" height="7"/><path class="cls-1" d="M39.19,45.85c-1.53,4.38-3.44,8.38-4.87,10-3.1,3.64-3.91,1-4.06-.08A54.09,54.09,0,0,0,30.41,49a36.84,36.84,0,0,1-8,.66c-.49,2.66-.42,5.37-.57,5.89-.29,1.08-1.44,3.63-4.05-.11A23.81,23.81,0,0,1,15.08,49,76.21,76.21,0,0,1,0,44.52V69.8H15.81Q34,69.8,41.06,66q16-8.54,16-26.07a30,30,0,0,0-2.65-12.83C52.11,33.13,47.59,41.12,39.19,45.85Z"/><path class="cls-1" d="M0,43.9c7.81,2.94,39.46,12.44,51-22.14a31.84,31.84,0,0,0-10-7.94Q34,10.11,17.83,10.07H6.8S.24,10.2,0,16.57c0,.1,0,.19,0,.3V27.34H0ZM13.76,31.17c2.39-5.36,7-4.82,9.84-3.12s4.17,1.67,4.17,1.67,1.28.08,4.26-1.59,7.7-2.2,9.44,3.46a6,6,0,0,1,.2,1,35.61,35.61,0,0,1-3.46,4.28,29.65,29.65,0,0,1-23.93,9.5h-.09C13,40.5,12.51,34.1,13.76,31.17Z"/><path class="cls-1" d="M56,17.2h6.66a2.09,2.09,0,0,0,1.47-.4,2,2,0,0,0,.42-1.45V9.8a2,2,0,0,0-.42-1.46,2.14,2.14,0,0,0-1.47-.4H59.23L63.5,0H60L54.06,8.78v6.57a2,2,0,0,0,.42,1.45A2.12,2.12,0,0,0,56,17.2Z"/></g></g></svg>