<svg xmlns="http://www.w3.org/2000/svg" xmlns:xlink="http://www.w3.org/1999/xlink" viewBox="0 0 125 31.16"><defs><style>.cls-1{fill:none;}.cls-2{clip-path:url(#clip-path);}.cls-3{fill:url(#linear-gradient);}.cls-4{fill:url(#linear-gradient-2);}.cls-5{fill:url(#linear-gradient-3);}.cls-6{fill:url(#linear-gradient-4);}.cls-7{fill:url(#linear-gradient-6);}.cls-8{fill:url(#linear-gradient-7);}.cls-9{fill:url(#linear-gradient-8);}.cls-10{fill:url(#linear-gradient-9);}</style><clipPath id="clip-path" transform="translate(0 -14.84)"><rect class="cls-1" width="125" height="46"/></clipPath><linearGradient id="linear-gradient" x1="-6.11" y1="37.98" x2="131.9" y2="37.98" gradientUnits="userSpaceOnUse"><stop offset="0" stop-color="#264a9d"/><stop offset="0.13" stop-color="#2a499c"/><stop offset="0.27" stop-color="#38469b"/><stop offset="0.42" stop-color="#4d4197"/><stop offset="0.57" stop-color="#6c3a93"/><stop offset="0.73" stop-color="#93328e"/><stop offset="0.88" stop-color="#c22787"/><stop offset="1" stop-color="#eb1e81"/></linearGradient><linearGradient id="linear-gradient-2" x1="-6.11" y1="38.2" x2="131.9" y2="38.2" xlink:href="#linear-gradient"/><linearGradient id="linear-gradient-3" x1="-6.11" y1="35.65" x2="131.9" y2="35.65" xlink:href="#linear-gradient"/><linearGradient id="linear-gradient-4" x1="-6.11" y1="35.17" x2="131.9" y2="35.17" xlink:href="#linear-gradient"/><linearGradient id="linear-gradient-6" x1="-6.11" y1="14.32" x2="131.9" y2="14.32" xlink:href="#linear-gradient"/><linearGradient id="linear-gradient-7" x1="-6.11" y1="36.48" x2="131.9" y2="36.48" xlink:href="#linear-gradient"/><linearGradient id="linear-gradient-8" x1="-6.11" y1="27.65" x2="131.9" y2="27.65" xlink:href="#linear-gradient"/><linearGradient id="linear-gradient-9" x1="-6.11" y1="18.68" x2="131.9" y2="18.68" xlink:href="#linear-gradient"/></defs><g id="Layer_2" data-name="Layer 2"><g id="Layer_1-2" data-name="Layer 1"><g class="cls-2"><path class="cls-3" d="M30.3,45.58V30.81h5.39V33a6,6,0,0,1,1.83-1.75,5.28,5.28,0,0,1,2.85-.87c2.41,0,4,.9,4.82,2.71a6,6,0,0,1,5.11-2.71q3.11,0,4.46,1.72A7.53,7.53,0,0,1,56,36.84v8.74H50.08V38.05a4.81,4.81,0,0,0-.42-2.35A1.65,1.65,0,0,0,48.12,35q-2,0-2,3.27v7.3H40.19V38.05a4.81,4.81,0,0,0-.42-2.35A1.64,1.64,0,0,0,38.24,35c-1.37,0-2.05,1.09-2.05,3.27v7.3Z" transform="translate(0 -14.84)"/><path class="cls-4" d="M75.13,39.52H64a2.73,2.73,0,0,0,.85,2.08,2.81,2.81,0,0,0,2.05.82,2.22,2.22,0,0,0,2.19-1.29h5.59a5.94,5.94,0,0,1-3.18,3.8,10.87,10.87,0,0,1-5,1.07,8.82,8.82,0,0,1-6-2,7.11,7.11,0,0,1-2.43-5.69,7.52,7.52,0,0,1,2.43-5.81,8.49,8.49,0,0,1,5.94-2.14,8.28,8.28,0,0,1,6.4,2.54A9.13,9.13,0,0,1,75.13,39.52ZM64,36.53h5.3A2.63,2.63,0,0,0,66.69,34C64.88,34,64,34.82,64,36.53Z" transform="translate(0 -14.84)"/><path class="cls-5" d="M93.5,45.58H88.23v-2A5.55,5.55,0,0,1,83.68,46a6.13,6.13,0,0,1-5-2.2A8.08,8.08,0,0,1,77,38.48a9.21,9.21,0,0,1,1.8-5.89,5.79,5.79,0,0,1,8.85-.28v-7H93.5Zm-8.35-3.81q2.66,0,2.66-3.43c0-2.28-.83-3.41-2.5-3.41s-2.46,1.16-2.46,3.49S83.61,41.77,85.15,41.77Z" transform="translate(0 -14.84)"/><path class="cls-6" d="M96.54,28.93V24.76h5.89v4.17Zm5.89,16.65H96.54V30.81h5.89Z" transform="translate(0 -14.84)"/><path class="cls-4" d="M122.07,45.58H116L115.73,44a7.83,7.83,0,0,1-5.55,2,6,6,0,0,1-3.69-1.07,4.37,4.37,0,0,1,1.15-7.41,24.16,24.16,0,0,1,5-1q2.73-.36,2.73-1.41c0-.8-.64-1.21-1.92-1.21s-1.94.48-2,1.44h-5.64q0-5,8.07-5,4.77,0,6.35,1.75c.72.79,1.08,2.24,1.08,4.37v6.9a3,3,0,0,0,.11,1,1.88,1.88,0,0,0,.65.88Zm-9.24-2.9c1.89,0,2.76-1.22,2.59-3.64a8.75,8.75,0,0,1-2,.59,6.58,6.58,0,0,0-1.75.54,1.36,1.36,0,0,0-.73,1.27C111,42.26,111.59,42.68,112.83,42.68Z" transform="translate(0 -14.84)"/><rect class="cls-7" x="121.88" y="12.76" width="3.12" height="3.13"/><path class="cls-8" d="M17.49,35.31a16,16,0,0,1-2.17,4.47c-1.38,1.63-1.74.46-1.81,0a24.56,24.56,0,0,0,.07-3A16.88,16.88,0,0,1,10,37c-.22,1.19-.18,2.39-.25,2.63-.13.48-.64,1.62-1.8,0A10.58,10.58,0,0,1,6.73,36.7a34.93,34.93,0,0,1-6.72-2V46H7.06q8.13,0,11.27-1.68,7.16-3.81,7.16-11.63A13.31,13.31,0,0,0,24.3,27,16.11,16.11,0,0,1,17.49,35.31Z" transform="translate(0 -14.84)"/><path class="cls-9" d="M0,34.44C3.5,35.75,17.62,40,22.8,24.56A14.11,14.11,0,0,0,18.33,21Q15.18,19.36,8,19.34H3a3,3,0,0,0-3,2.9s0,.08,0,.13v4.68H0Zm6.13-5.69a2.87,2.87,0,0,1,4.4-1.39,3.89,3.89,0,0,0,1.86.75,4.24,4.24,0,0,0,1.9-.71c1.35-.76,3.43-1,4.21,1.54a2.88,2.88,0,0,1,.09.46,17.17,17.17,0,0,1-1.54,1.91A13.25,13.25,0,0,1,6.37,35.55h0C5.82,32.92,5.58,30.06,6.14,28.75Z" transform="translate(0 -14.84)"/><path class="cls-10" d="M25,22.52h3a.93.93,0,0,0,.66-.18.86.86,0,0,0,.19-.65V19.21a.87.87,0,0,0-.19-.65,1,1,0,0,0-.66-.17H26.44l1.91-3.55H26.77l-2.64,3.92v2.93a.9.9,0,0,0,.19.65A1,1,0,0,0,25,22.52Z" transform="translate(0 -14.84)"/></g></g></g></svg>